%TF.GenerationSoftware,KiCad,Pcbnew,8.0.0*%
%TF.CreationDate,2025-11-22T16:25:16+03:00*%
%TF.ProjectId,Loewe Q2300 Breakout Board,4c6f6577-6520-4513-9233-303020427265,rev?*%
%TF.SameCoordinates,Original*%
%TF.FileFunction,Legend,Bot*%
%TF.FilePolarity,Positive*%
%FSLAX46Y46*%
G04 Gerber Fmt 4.6, Leading zero omitted, Abs format (unit mm)*
G04 Created by KiCad (PCBNEW 8.0.0) date 2025-11-22 16:25:16*
%MOMM*%
%LPD*%
G01*
G04 APERTURE LIST*
%ADD10C,0.150000*%
G04 APERTURE END LIST*
D10*
X159537030Y-94209875D02*
X160013220Y-94209875D01*
X160013220Y-94209875D02*
X160013220Y-93209875D01*
X159060839Y-94209875D02*
X159156077Y-94162256D01*
X159156077Y-94162256D02*
X159203696Y-94114636D01*
X159203696Y-94114636D02*
X159251315Y-94019398D01*
X159251315Y-94019398D02*
X159251315Y-93733684D01*
X159251315Y-93733684D02*
X159203696Y-93638446D01*
X159203696Y-93638446D02*
X159156077Y-93590827D01*
X159156077Y-93590827D02*
X159060839Y-93543208D01*
X159060839Y-93543208D02*
X158917982Y-93543208D01*
X158917982Y-93543208D02*
X158822744Y-93590827D01*
X158822744Y-93590827D02*
X158775125Y-93638446D01*
X158775125Y-93638446D02*
X158727506Y-93733684D01*
X158727506Y-93733684D02*
X158727506Y-94019398D01*
X158727506Y-94019398D02*
X158775125Y-94114636D01*
X158775125Y-94114636D02*
X158822744Y-94162256D01*
X158822744Y-94162256D02*
X158917982Y-94209875D01*
X158917982Y-94209875D02*
X159060839Y-94209875D01*
X157917982Y-94162256D02*
X158013220Y-94209875D01*
X158013220Y-94209875D02*
X158203696Y-94209875D01*
X158203696Y-94209875D02*
X158298934Y-94162256D01*
X158298934Y-94162256D02*
X158346553Y-94067017D01*
X158346553Y-94067017D02*
X158346553Y-93686065D01*
X158346553Y-93686065D02*
X158298934Y-93590827D01*
X158298934Y-93590827D02*
X158203696Y-93543208D01*
X158203696Y-93543208D02*
X158013220Y-93543208D01*
X158013220Y-93543208D02*
X157917982Y-93590827D01*
X157917982Y-93590827D02*
X157870363Y-93686065D01*
X157870363Y-93686065D02*
X157870363Y-93781303D01*
X157870363Y-93781303D02*
X158346553Y-93876541D01*
X157537029Y-93543208D02*
X157346553Y-94209875D01*
X157346553Y-94209875D02*
X157156077Y-93733684D01*
X157156077Y-93733684D02*
X156965601Y-94209875D01*
X156965601Y-94209875D02*
X156775125Y-93543208D01*
X156013220Y-94162256D02*
X156108458Y-94209875D01*
X156108458Y-94209875D02*
X156298934Y-94209875D01*
X156298934Y-94209875D02*
X156394172Y-94162256D01*
X156394172Y-94162256D02*
X156441791Y-94067017D01*
X156441791Y-94067017D02*
X156441791Y-93686065D01*
X156441791Y-93686065D02*
X156394172Y-93590827D01*
X156394172Y-93590827D02*
X156298934Y-93543208D01*
X156298934Y-93543208D02*
X156108458Y-93543208D01*
X156108458Y-93543208D02*
X156013220Y-93590827D01*
X156013220Y-93590827D02*
X155965601Y-93686065D01*
X155965601Y-93686065D02*
X155965601Y-93781303D01*
X155965601Y-93781303D02*
X156441791Y-93876541D01*
X154108458Y-94305113D02*
X154203696Y-94257494D01*
X154203696Y-94257494D02*
X154298934Y-94162256D01*
X154298934Y-94162256D02*
X154441791Y-94019398D01*
X154441791Y-94019398D02*
X154537029Y-93971779D01*
X154537029Y-93971779D02*
X154632267Y-93971779D01*
X154584648Y-94209875D02*
X154679886Y-94162256D01*
X154679886Y-94162256D02*
X154775124Y-94067017D01*
X154775124Y-94067017D02*
X154822743Y-93876541D01*
X154822743Y-93876541D02*
X154822743Y-93543208D01*
X154822743Y-93543208D02*
X154775124Y-93352732D01*
X154775124Y-93352732D02*
X154679886Y-93257494D01*
X154679886Y-93257494D02*
X154584648Y-93209875D01*
X154584648Y-93209875D02*
X154394172Y-93209875D01*
X154394172Y-93209875D02*
X154298934Y-93257494D01*
X154298934Y-93257494D02*
X154203696Y-93352732D01*
X154203696Y-93352732D02*
X154156077Y-93543208D01*
X154156077Y-93543208D02*
X154156077Y-93876541D01*
X154156077Y-93876541D02*
X154203696Y-94067017D01*
X154203696Y-94067017D02*
X154298934Y-94162256D01*
X154298934Y-94162256D02*
X154394172Y-94209875D01*
X154394172Y-94209875D02*
X154584648Y-94209875D01*
X153775124Y-93305113D02*
X153727505Y-93257494D01*
X153727505Y-93257494D02*
X153632267Y-93209875D01*
X153632267Y-93209875D02*
X153394172Y-93209875D01*
X153394172Y-93209875D02*
X153298934Y-93257494D01*
X153298934Y-93257494D02*
X153251315Y-93305113D01*
X153251315Y-93305113D02*
X153203696Y-93400351D01*
X153203696Y-93400351D02*
X153203696Y-93495589D01*
X153203696Y-93495589D02*
X153251315Y-93638446D01*
X153251315Y-93638446D02*
X153822743Y-94209875D01*
X153822743Y-94209875D02*
X153203696Y-94209875D01*
X152870362Y-93209875D02*
X152251315Y-93209875D01*
X152251315Y-93209875D02*
X152584648Y-93590827D01*
X152584648Y-93590827D02*
X152441791Y-93590827D01*
X152441791Y-93590827D02*
X152346553Y-93638446D01*
X152346553Y-93638446D02*
X152298934Y-93686065D01*
X152298934Y-93686065D02*
X152251315Y-93781303D01*
X152251315Y-93781303D02*
X152251315Y-94019398D01*
X152251315Y-94019398D02*
X152298934Y-94114636D01*
X152298934Y-94114636D02*
X152346553Y-94162256D01*
X152346553Y-94162256D02*
X152441791Y-94209875D01*
X152441791Y-94209875D02*
X152727505Y-94209875D01*
X152727505Y-94209875D02*
X152822743Y-94162256D01*
X152822743Y-94162256D02*
X152870362Y-94114636D01*
X151632267Y-93209875D02*
X151537029Y-93209875D01*
X151537029Y-93209875D02*
X151441791Y-93257494D01*
X151441791Y-93257494D02*
X151394172Y-93305113D01*
X151394172Y-93305113D02*
X151346553Y-93400351D01*
X151346553Y-93400351D02*
X151298934Y-93590827D01*
X151298934Y-93590827D02*
X151298934Y-93828922D01*
X151298934Y-93828922D02*
X151346553Y-94019398D01*
X151346553Y-94019398D02*
X151394172Y-94114636D01*
X151394172Y-94114636D02*
X151441791Y-94162256D01*
X151441791Y-94162256D02*
X151537029Y-94209875D01*
X151537029Y-94209875D02*
X151632267Y-94209875D01*
X151632267Y-94209875D02*
X151727505Y-94162256D01*
X151727505Y-94162256D02*
X151775124Y-94114636D01*
X151775124Y-94114636D02*
X151822743Y-94019398D01*
X151822743Y-94019398D02*
X151870362Y-93828922D01*
X151870362Y-93828922D02*
X151870362Y-93590827D01*
X151870362Y-93590827D02*
X151822743Y-93400351D01*
X151822743Y-93400351D02*
X151775124Y-93305113D01*
X151775124Y-93305113D02*
X151727505Y-93257494D01*
X151727505Y-93257494D02*
X151632267Y-93209875D01*
X150679886Y-93209875D02*
X150584648Y-93209875D01*
X150584648Y-93209875D02*
X150489410Y-93257494D01*
X150489410Y-93257494D02*
X150441791Y-93305113D01*
X150441791Y-93305113D02*
X150394172Y-93400351D01*
X150394172Y-93400351D02*
X150346553Y-93590827D01*
X150346553Y-93590827D02*
X150346553Y-93828922D01*
X150346553Y-93828922D02*
X150394172Y-94019398D01*
X150394172Y-94019398D02*
X150441791Y-94114636D01*
X150441791Y-94114636D02*
X150489410Y-94162256D01*
X150489410Y-94162256D02*
X150584648Y-94209875D01*
X150584648Y-94209875D02*
X150679886Y-94209875D01*
X150679886Y-94209875D02*
X150775124Y-94162256D01*
X150775124Y-94162256D02*
X150822743Y-94114636D01*
X150822743Y-94114636D02*
X150870362Y-94019398D01*
X150870362Y-94019398D02*
X150917981Y-93828922D01*
X150917981Y-93828922D02*
X150917981Y-93590827D01*
X150917981Y-93590827D02*
X150870362Y-93400351D01*
X150870362Y-93400351D02*
X150822743Y-93305113D01*
X150822743Y-93305113D02*
X150775124Y-93257494D01*
X150775124Y-93257494D02*
X150679886Y-93209875D01*
X159679887Y-95296009D02*
X159537030Y-95343628D01*
X159537030Y-95343628D02*
X159489411Y-95391247D01*
X159489411Y-95391247D02*
X159441792Y-95486485D01*
X159441792Y-95486485D02*
X159441792Y-95629342D01*
X159441792Y-95629342D02*
X159489411Y-95724580D01*
X159489411Y-95724580D02*
X159537030Y-95772200D01*
X159537030Y-95772200D02*
X159632268Y-95819819D01*
X159632268Y-95819819D02*
X160013220Y-95819819D01*
X160013220Y-95819819D02*
X160013220Y-94819819D01*
X160013220Y-94819819D02*
X159679887Y-94819819D01*
X159679887Y-94819819D02*
X159584649Y-94867438D01*
X159584649Y-94867438D02*
X159537030Y-94915057D01*
X159537030Y-94915057D02*
X159489411Y-95010295D01*
X159489411Y-95010295D02*
X159489411Y-95105533D01*
X159489411Y-95105533D02*
X159537030Y-95200771D01*
X159537030Y-95200771D02*
X159584649Y-95248390D01*
X159584649Y-95248390D02*
X159679887Y-95296009D01*
X159679887Y-95296009D02*
X160013220Y-95296009D01*
X159013220Y-95819819D02*
X159013220Y-95153152D01*
X159013220Y-95343628D02*
X158965601Y-95248390D01*
X158965601Y-95248390D02*
X158917982Y-95200771D01*
X158917982Y-95200771D02*
X158822744Y-95153152D01*
X158822744Y-95153152D02*
X158727506Y-95153152D01*
X158013220Y-95772200D02*
X158108458Y-95819819D01*
X158108458Y-95819819D02*
X158298934Y-95819819D01*
X158298934Y-95819819D02*
X158394172Y-95772200D01*
X158394172Y-95772200D02*
X158441791Y-95676961D01*
X158441791Y-95676961D02*
X158441791Y-95296009D01*
X158441791Y-95296009D02*
X158394172Y-95200771D01*
X158394172Y-95200771D02*
X158298934Y-95153152D01*
X158298934Y-95153152D02*
X158108458Y-95153152D01*
X158108458Y-95153152D02*
X158013220Y-95200771D01*
X158013220Y-95200771D02*
X157965601Y-95296009D01*
X157965601Y-95296009D02*
X157965601Y-95391247D01*
X157965601Y-95391247D02*
X158441791Y-95486485D01*
X157108458Y-95819819D02*
X157108458Y-95296009D01*
X157108458Y-95296009D02*
X157156077Y-95200771D01*
X157156077Y-95200771D02*
X157251315Y-95153152D01*
X157251315Y-95153152D02*
X157441791Y-95153152D01*
X157441791Y-95153152D02*
X157537029Y-95200771D01*
X157108458Y-95772200D02*
X157203696Y-95819819D01*
X157203696Y-95819819D02*
X157441791Y-95819819D01*
X157441791Y-95819819D02*
X157537029Y-95772200D01*
X157537029Y-95772200D02*
X157584648Y-95676961D01*
X157584648Y-95676961D02*
X157584648Y-95581723D01*
X157584648Y-95581723D02*
X157537029Y-95486485D01*
X157537029Y-95486485D02*
X157441791Y-95438866D01*
X157441791Y-95438866D02*
X157203696Y-95438866D01*
X157203696Y-95438866D02*
X157108458Y-95391247D01*
X156632267Y-95819819D02*
X156632267Y-94819819D01*
X156537029Y-95438866D02*
X156251315Y-95819819D01*
X156251315Y-95153152D02*
X156632267Y-95534104D01*
X155679886Y-95819819D02*
X155775124Y-95772200D01*
X155775124Y-95772200D02*
X155822743Y-95724580D01*
X155822743Y-95724580D02*
X155870362Y-95629342D01*
X155870362Y-95629342D02*
X155870362Y-95343628D01*
X155870362Y-95343628D02*
X155822743Y-95248390D01*
X155822743Y-95248390D02*
X155775124Y-95200771D01*
X155775124Y-95200771D02*
X155679886Y-95153152D01*
X155679886Y-95153152D02*
X155537029Y-95153152D01*
X155537029Y-95153152D02*
X155441791Y-95200771D01*
X155441791Y-95200771D02*
X155394172Y-95248390D01*
X155394172Y-95248390D02*
X155346553Y-95343628D01*
X155346553Y-95343628D02*
X155346553Y-95629342D01*
X155346553Y-95629342D02*
X155394172Y-95724580D01*
X155394172Y-95724580D02*
X155441791Y-95772200D01*
X155441791Y-95772200D02*
X155537029Y-95819819D01*
X155537029Y-95819819D02*
X155679886Y-95819819D01*
X154489410Y-95153152D02*
X154489410Y-95819819D01*
X154917981Y-95153152D02*
X154917981Y-95676961D01*
X154917981Y-95676961D02*
X154870362Y-95772200D01*
X154870362Y-95772200D02*
X154775124Y-95819819D01*
X154775124Y-95819819D02*
X154632267Y-95819819D01*
X154632267Y-95819819D02*
X154537029Y-95772200D01*
X154537029Y-95772200D02*
X154489410Y-95724580D01*
X154156076Y-95153152D02*
X153775124Y-95153152D01*
X154013219Y-94819819D02*
X154013219Y-95676961D01*
X154013219Y-95676961D02*
X153965600Y-95772200D01*
X153965600Y-95772200D02*
X153870362Y-95819819D01*
X153870362Y-95819819D02*
X153775124Y-95819819D01*
X152346552Y-95296009D02*
X152203695Y-95343628D01*
X152203695Y-95343628D02*
X152156076Y-95391247D01*
X152156076Y-95391247D02*
X152108457Y-95486485D01*
X152108457Y-95486485D02*
X152108457Y-95629342D01*
X152108457Y-95629342D02*
X152156076Y-95724580D01*
X152156076Y-95724580D02*
X152203695Y-95772200D01*
X152203695Y-95772200D02*
X152298933Y-95819819D01*
X152298933Y-95819819D02*
X152679885Y-95819819D01*
X152679885Y-95819819D02*
X152679885Y-94819819D01*
X152679885Y-94819819D02*
X152346552Y-94819819D01*
X152346552Y-94819819D02*
X152251314Y-94867438D01*
X152251314Y-94867438D02*
X152203695Y-94915057D01*
X152203695Y-94915057D02*
X152156076Y-95010295D01*
X152156076Y-95010295D02*
X152156076Y-95105533D01*
X152156076Y-95105533D02*
X152203695Y-95200771D01*
X152203695Y-95200771D02*
X152251314Y-95248390D01*
X152251314Y-95248390D02*
X152346552Y-95296009D01*
X152346552Y-95296009D02*
X152679885Y-95296009D01*
X151537028Y-95819819D02*
X151632266Y-95772200D01*
X151632266Y-95772200D02*
X151679885Y-95724580D01*
X151679885Y-95724580D02*
X151727504Y-95629342D01*
X151727504Y-95629342D02*
X151727504Y-95343628D01*
X151727504Y-95343628D02*
X151679885Y-95248390D01*
X151679885Y-95248390D02*
X151632266Y-95200771D01*
X151632266Y-95200771D02*
X151537028Y-95153152D01*
X151537028Y-95153152D02*
X151394171Y-95153152D01*
X151394171Y-95153152D02*
X151298933Y-95200771D01*
X151298933Y-95200771D02*
X151251314Y-95248390D01*
X151251314Y-95248390D02*
X151203695Y-95343628D01*
X151203695Y-95343628D02*
X151203695Y-95629342D01*
X151203695Y-95629342D02*
X151251314Y-95724580D01*
X151251314Y-95724580D02*
X151298933Y-95772200D01*
X151298933Y-95772200D02*
X151394171Y-95819819D01*
X151394171Y-95819819D02*
X151537028Y-95819819D01*
X150346552Y-95819819D02*
X150346552Y-95296009D01*
X150346552Y-95296009D02*
X150394171Y-95200771D01*
X150394171Y-95200771D02*
X150489409Y-95153152D01*
X150489409Y-95153152D02*
X150679885Y-95153152D01*
X150679885Y-95153152D02*
X150775123Y-95200771D01*
X150346552Y-95772200D02*
X150441790Y-95819819D01*
X150441790Y-95819819D02*
X150679885Y-95819819D01*
X150679885Y-95819819D02*
X150775123Y-95772200D01*
X150775123Y-95772200D02*
X150822742Y-95676961D01*
X150822742Y-95676961D02*
X150822742Y-95581723D01*
X150822742Y-95581723D02*
X150775123Y-95486485D01*
X150775123Y-95486485D02*
X150679885Y-95438866D01*
X150679885Y-95438866D02*
X150441790Y-95438866D01*
X150441790Y-95438866D02*
X150346552Y-95391247D01*
X149870361Y-95819819D02*
X149870361Y-95153152D01*
X149870361Y-95343628D02*
X149822742Y-95248390D01*
X149822742Y-95248390D02*
X149775123Y-95200771D01*
X149775123Y-95200771D02*
X149679885Y-95153152D01*
X149679885Y-95153152D02*
X149584647Y-95153152D01*
X148822742Y-95819819D02*
X148822742Y-94819819D01*
X148822742Y-95772200D02*
X148917980Y-95819819D01*
X148917980Y-95819819D02*
X149108456Y-95819819D01*
X149108456Y-95819819D02*
X149203694Y-95772200D01*
X149203694Y-95772200D02*
X149251313Y-95724580D01*
X149251313Y-95724580D02*
X149298932Y-95629342D01*
X149298932Y-95629342D02*
X149298932Y-95343628D01*
X149298932Y-95343628D02*
X149251313Y-95248390D01*
X149251313Y-95248390D02*
X149203694Y-95200771D01*
X149203694Y-95200771D02*
X149108456Y-95153152D01*
X149108456Y-95153152D02*
X148917980Y-95153152D01*
X148917980Y-95153152D02*
X148822742Y-95200771D01*
X147727503Y-94819819D02*
X147394170Y-95819819D01*
X147394170Y-95819819D02*
X147060837Y-94819819D01*
X146727503Y-95724580D02*
X146679884Y-95772200D01*
X146679884Y-95772200D02*
X146727503Y-95819819D01*
X146727503Y-95819819D02*
X146775122Y-95772200D01*
X146775122Y-95772200D02*
X146727503Y-95724580D01*
X146727503Y-95724580D02*
X146727503Y-95819819D01*
X145727504Y-95819819D02*
X146298932Y-95819819D01*
X146013218Y-95819819D02*
X146013218Y-94819819D01*
X146013218Y-94819819D02*
X146108456Y-94962676D01*
X146108456Y-94962676D02*
X146203694Y-95057914D01*
X146203694Y-95057914D02*
X146298932Y-95105533D01*
X145298932Y-95724580D02*
X145251313Y-95772200D01*
X145251313Y-95772200D02*
X145298932Y-95819819D01*
X145298932Y-95819819D02*
X145346551Y-95772200D01*
X145346551Y-95772200D02*
X145298932Y-95724580D01*
X145298932Y-95724580D02*
X145298932Y-95819819D01*
X144632266Y-94819819D02*
X144537028Y-94819819D01*
X144537028Y-94819819D02*
X144441790Y-94867438D01*
X144441790Y-94867438D02*
X144394171Y-94915057D01*
X144394171Y-94915057D02*
X144346552Y-95010295D01*
X144346552Y-95010295D02*
X144298933Y-95200771D01*
X144298933Y-95200771D02*
X144298933Y-95438866D01*
X144298933Y-95438866D02*
X144346552Y-95629342D01*
X144346552Y-95629342D02*
X144394171Y-95724580D01*
X144394171Y-95724580D02*
X144441790Y-95772200D01*
X144441790Y-95772200D02*
X144537028Y-95819819D01*
X144537028Y-95819819D02*
X144632266Y-95819819D01*
X144632266Y-95819819D02*
X144727504Y-95772200D01*
X144727504Y-95772200D02*
X144775123Y-95724580D01*
X144775123Y-95724580D02*
X144822742Y-95629342D01*
X144822742Y-95629342D02*
X144870361Y-95438866D01*
X144870361Y-95438866D02*
X144870361Y-95200771D01*
X144870361Y-95200771D02*
X144822742Y-95010295D01*
X144822742Y-95010295D02*
X144775123Y-94915057D01*
X144775123Y-94915057D02*
X144727504Y-94867438D01*
X144727504Y-94867438D02*
X144632266Y-94819819D01*
M02*
