%TF.GenerationSoftware,KiCad,Pcbnew,8.0.0*%
%TF.CreationDate,2025-11-22T16:25:16+03:00*%
%TF.ProjectId,Loewe Q2300 Breakout Board,4c6f6577-6520-4513-9233-303020427265,rev?*%
%TF.SameCoordinates,Original*%
%TF.FileFunction,Copper,L2,Bot*%
%TF.FilePolarity,Positive*%
%FSLAX46Y46*%
G04 Gerber Fmt 4.6, Leading zero omitted, Abs format (unit mm)*
G04 Created by KiCad (PCBNEW 8.0.0) date 2025-11-22 16:25:16*
%MOMM*%
%LPD*%
G01*
G04 APERTURE LIST*
G04 Aperture macros list*
%AMRoundRect*
0 Rectangle with rounded corners*
0 $1 Rounding radius*
0 $2 $3 $4 $5 $6 $7 $8 $9 X,Y pos of 4 corners*
0 Add a 4 corners polygon primitive as box body*
4,1,4,$2,$3,$4,$5,$6,$7,$8,$9,$2,$3,0*
0 Add four circle primitives for the rounded corners*
1,1,$1+$1,$2,$3*
1,1,$1+$1,$4,$5*
1,1,$1+$1,$6,$7*
1,1,$1+$1,$8,$9*
0 Add four rect primitives between the rounded corners*
20,1,$1+$1,$2,$3,$4,$5,0*
20,1,$1+$1,$4,$5,$6,$7,0*
20,1,$1+$1,$6,$7,$8,$9,0*
20,1,$1+$1,$8,$9,$2,$3,0*%
G04 Aperture macros list end*
%TA.AperFunction,ComponentPad*%
%ADD10C,4.000000*%
%TD*%
%TA.AperFunction,ComponentPad*%
%ADD11R,1.600000X1.600000*%
%TD*%
%TA.AperFunction,ComponentPad*%
%ADD12C,1.600000*%
%TD*%
%TA.AperFunction,ComponentPad*%
%ADD13RoundRect,0.250000X0.600000X0.725000X-0.600000X0.725000X-0.600000X-0.725000X0.600000X-0.725000X0*%
%TD*%
%TA.AperFunction,ComponentPad*%
%ADD14O,1.700000X1.950000*%
%TD*%
%TA.AperFunction,Conductor*%
%ADD15C,0.300000*%
%TD*%
%TA.AperFunction,Conductor*%
%ADD16C,0.500000*%
%TD*%
G04 APERTURE END LIST*
D10*
%TO.P,J1,0*%
%TO.N,unconnected-(J1-Pad0)*%
X104995000Y-98500000D03*
%TO.N,unconnected-(J1-Pad0)_0*%
X129995000Y-98500000D03*
D11*
%TO.P,J1,1*%
%TO.N,/RED_B*%
X113180000Y-96450000D03*
D12*
%TO.P,J1,2*%
%TO.N,/GREEN_B*%
X115470000Y-96450000D03*
%TO.P,J1,3*%
%TO.N,/BLUE_B*%
X117760000Y-96450000D03*
%TO.P,J1,4*%
%TO.N,unconnected-(J1-Pad4)*%
X120050000Y-96450000D03*
%TO.P,J1,5*%
%TO.N,/GND_B*%
X122340000Y-96450000D03*
%TO.P,J1,6*%
X112035000Y-98430000D03*
%TO.P,J1,7*%
X114325000Y-98430000D03*
%TO.P,J1,8*%
X116615000Y-98430000D03*
%TO.P,J1,9*%
%TO.N,unconnected-(J1-Pad9)*%
X118905000Y-98430000D03*
%TO.P,J1,10*%
%TO.N,/GND_B*%
X121195000Y-98430000D03*
%TO.P,J1,11*%
%TO.N,unconnected-(J1-Pad11)*%
X113180000Y-100410000D03*
%TO.P,J1,12*%
%TO.N,unconnected-(J1-Pad12)*%
X115470000Y-100410000D03*
%TO.P,J1,13*%
%TO.N,/HSYNC_B*%
X117760000Y-100410000D03*
%TO.P,J1,14*%
%TO.N,/VSYNC_B*%
X120050000Y-100410000D03*
%TO.P,J1,15*%
%TO.N,unconnected-(J1-Pad15)*%
X122340000Y-100410000D03*
%TD*%
D13*
%TO.P,J2,1,Pin_1*%
%TO.N,/GND_B*%
X159600000Y-100650000D03*
D14*
%TO.P,J2,2,Pin_2*%
%TO.N,/VSYNC_B*%
X157060000Y-100650000D03*
%TO.P,J2,3,Pin_3*%
%TO.N,/GND_B*%
X154520000Y-100650000D03*
%TO.P,J2,4,Pin_4*%
%TO.N,/HSYNC_B*%
X151980000Y-100650000D03*
%TO.P,J2,5,Pin_5*%
%TO.N,/GND_B*%
X149440000Y-100650000D03*
%TO.P,J2,6,Pin_6*%
%TO.N,/BLUE_B*%
X146900000Y-100650000D03*
%TO.P,J2,7,Pin_7*%
%TO.N,/GND_B*%
X144360000Y-100650000D03*
%TO.P,J2,8,Pin_8*%
%TO.N,/GREEN_B*%
X141820000Y-100650000D03*
%TO.P,J2,9,Pin_9*%
%TO.N,/GND_B*%
X139280000Y-100650000D03*
%TO.P,J2,10,Pin_10*%
%TO.N,/RED_B*%
X136740000Y-100650000D03*
%TD*%
D15*
%TO.N,/HSYNC_B*%
X117760000Y-100410000D02*
X120150000Y-102800000D01*
X149830000Y-102800000D02*
X151980000Y-100650000D01*
X120150000Y-102800000D02*
X149830000Y-102800000D01*
D16*
%TO.N,/GREEN_B*%
X134950000Y-93850000D02*
X141750000Y-100650000D01*
X115510000Y-96450000D02*
X118110000Y-93850000D01*
X115470000Y-96450000D02*
X115510000Y-96450000D01*
X118110000Y-93850000D02*
X134950000Y-93850000D01*
%TO.N,/GND_B*%
X114325000Y-98430000D02*
X112035000Y-98430000D01*
X121195000Y-98430000D02*
X121235000Y-98470000D01*
X121195000Y-98430000D02*
X122930000Y-98430000D01*
X114325000Y-98430000D02*
X116615000Y-98430000D01*
%TO.N,/BLUE_B*%
X128200000Y-102200000D02*
X145350000Y-102200000D01*
X124250000Y-94550000D02*
X126150000Y-96450000D01*
X126150000Y-100150000D02*
X128200000Y-102200000D01*
X119660000Y-94550000D02*
X124250000Y-94550000D01*
X126150000Y-96450000D02*
X126150000Y-100150000D01*
X145350000Y-102200000D02*
X146900000Y-100650000D01*
X117760000Y-96450000D02*
X119660000Y-94550000D01*
%TD*%
%TA.AperFunction,Conductor*%
%TO.N,/GND_B*%
G36*
X162242539Y-91270185D02*
G01*
X162288294Y-91322989D01*
X162299500Y-91374500D01*
X162299500Y-102825500D01*
X162279815Y-102892539D01*
X162227011Y-102938294D01*
X162175500Y-102949500D01*
X150899808Y-102949500D01*
X150832769Y-102929815D01*
X150787014Y-102877011D01*
X150777070Y-102807853D01*
X150806095Y-102744297D01*
X150812127Y-102737819D01*
X151001167Y-102548777D01*
X151454502Y-102095441D01*
X151515823Y-102061958D01*
X151580497Y-102065192D01*
X151663757Y-102092246D01*
X151873713Y-102125500D01*
X151873714Y-102125500D01*
X152086286Y-102125500D01*
X152086287Y-102125500D01*
X152296243Y-102092246D01*
X152498412Y-102026557D01*
X152687816Y-101930051D01*
X152717209Y-101908696D01*
X152859786Y-101805109D01*
X152859788Y-101805106D01*
X152859792Y-101805104D01*
X153010104Y-101654792D01*
X153010106Y-101654788D01*
X153010109Y-101654786D01*
X153102448Y-101527690D01*
X153135051Y-101482816D01*
X153139793Y-101473508D01*
X153187763Y-101422711D01*
X153255583Y-101405911D01*
X153321719Y-101428445D01*
X153360763Y-101473500D01*
X153365377Y-101482555D01*
X153490272Y-101654459D01*
X153490276Y-101654464D01*
X153640535Y-101804723D01*
X153640540Y-101804727D01*
X153812442Y-101929620D01*
X154001782Y-102026095D01*
X154203871Y-102091757D01*
X154270000Y-102102231D01*
X154270000Y-101054145D01*
X154336657Y-101092630D01*
X154457465Y-101125000D01*
X154582535Y-101125000D01*
X154703343Y-101092630D01*
X154770000Y-101054145D01*
X154770000Y-102102230D01*
X154836126Y-102091757D01*
X154836129Y-102091757D01*
X155038217Y-102026095D01*
X155227557Y-101929620D01*
X155399459Y-101804727D01*
X155399464Y-101804723D01*
X155549723Y-101654464D01*
X155549727Y-101654459D01*
X155674620Y-101482558D01*
X155679232Y-101473507D01*
X155727205Y-101422709D01*
X155795025Y-101405912D01*
X155861161Y-101428447D01*
X155900204Y-101473504D01*
X155904949Y-101482817D01*
X156029890Y-101654786D01*
X156180213Y-101805109D01*
X156352179Y-101930048D01*
X156352181Y-101930049D01*
X156352184Y-101930051D01*
X156541588Y-102026557D01*
X156743757Y-102092246D01*
X156953713Y-102125500D01*
X156953714Y-102125500D01*
X157166286Y-102125500D01*
X157166287Y-102125500D01*
X157376243Y-102092246D01*
X157578412Y-102026557D01*
X157767816Y-101930051D01*
X157797209Y-101908696D01*
X157939786Y-101805109D01*
X157939788Y-101805106D01*
X157939792Y-101805104D01*
X158090104Y-101654792D01*
X158094018Y-101649404D01*
X158149342Y-101606734D01*
X158218955Y-101600748D01*
X158280753Y-101633348D01*
X158312046Y-101683272D01*
X158315639Y-101694114D01*
X158315643Y-101694124D01*
X158407684Y-101843345D01*
X158531654Y-101967315D01*
X158680875Y-102059356D01*
X158680880Y-102059358D01*
X158847302Y-102114505D01*
X158847309Y-102114506D01*
X158950019Y-102124999D01*
X159349999Y-102124999D01*
X159350000Y-102124998D01*
X159350000Y-101054145D01*
X159416657Y-101092630D01*
X159537465Y-101125000D01*
X159662535Y-101125000D01*
X159783343Y-101092630D01*
X159850000Y-101054145D01*
X159850000Y-102124999D01*
X160249972Y-102124999D01*
X160249986Y-102124998D01*
X160352697Y-102114505D01*
X160519119Y-102059358D01*
X160519124Y-102059356D01*
X160668345Y-101967315D01*
X160792315Y-101843345D01*
X160884356Y-101694124D01*
X160884358Y-101694119D01*
X160939505Y-101527697D01*
X160939506Y-101527690D01*
X160949999Y-101424986D01*
X160950000Y-101424973D01*
X160950000Y-100900000D01*
X160004146Y-100900000D01*
X160042630Y-100833343D01*
X160075000Y-100712535D01*
X160075000Y-100587465D01*
X160042630Y-100466657D01*
X160004146Y-100400000D01*
X160949999Y-100400000D01*
X160949999Y-99875028D01*
X160949998Y-99875013D01*
X160939505Y-99772302D01*
X160884358Y-99605880D01*
X160884356Y-99605875D01*
X160792315Y-99456654D01*
X160668345Y-99332684D01*
X160519124Y-99240643D01*
X160519119Y-99240641D01*
X160352697Y-99185494D01*
X160352690Y-99185493D01*
X160249986Y-99175000D01*
X159850000Y-99175000D01*
X159850000Y-100245854D01*
X159783343Y-100207370D01*
X159662535Y-100175000D01*
X159537465Y-100175000D01*
X159416657Y-100207370D01*
X159350000Y-100245854D01*
X159350000Y-99175000D01*
X158950028Y-99175000D01*
X158950012Y-99175001D01*
X158847302Y-99185494D01*
X158680880Y-99240641D01*
X158680875Y-99240643D01*
X158531654Y-99332684D01*
X158407684Y-99456654D01*
X158315643Y-99605875D01*
X158315641Y-99605881D01*
X158312046Y-99616729D01*
X158272270Y-99674171D01*
X158207753Y-99700991D01*
X158138977Y-99688672D01*
X158094020Y-99650598D01*
X158090105Y-99645209D01*
X157939786Y-99494890D01*
X157767820Y-99369951D01*
X157578414Y-99273444D01*
X157578413Y-99273443D01*
X157578412Y-99273443D01*
X157376243Y-99207754D01*
X157376241Y-99207753D01*
X157376240Y-99207753D01*
X157214957Y-99182208D01*
X157166287Y-99174500D01*
X156953713Y-99174500D01*
X156905042Y-99182208D01*
X156743760Y-99207753D01*
X156541585Y-99273444D01*
X156352179Y-99369951D01*
X156180213Y-99494890D01*
X156029890Y-99645213D01*
X155904949Y-99817182D01*
X155900202Y-99826499D01*
X155852227Y-99877293D01*
X155784405Y-99894087D01*
X155718271Y-99871548D01*
X155679234Y-99826495D01*
X155674622Y-99817444D01*
X155549727Y-99645540D01*
X155549723Y-99645535D01*
X155399464Y-99495276D01*
X155399459Y-99495272D01*
X155227557Y-99370379D01*
X155038215Y-99273903D01*
X154836124Y-99208241D01*
X154770000Y-99197768D01*
X154770000Y-100245854D01*
X154703343Y-100207370D01*
X154582535Y-100175000D01*
X154457465Y-100175000D01*
X154336657Y-100207370D01*
X154270000Y-100245854D01*
X154270000Y-99197768D01*
X154269999Y-99197768D01*
X154203875Y-99208241D01*
X154001784Y-99273903D01*
X153812442Y-99370379D01*
X153640540Y-99495272D01*
X153640535Y-99495276D01*
X153490276Y-99645535D01*
X153490272Y-99645540D01*
X153365378Y-99817443D01*
X153360762Y-99826502D01*
X153312784Y-99877295D01*
X153244963Y-99894087D01*
X153178829Y-99871546D01*
X153139794Y-99826493D01*
X153135051Y-99817184D01*
X153135049Y-99817181D01*
X153135048Y-99817179D01*
X153010109Y-99645213D01*
X152859786Y-99494890D01*
X152687820Y-99369951D01*
X152498414Y-99273444D01*
X152498413Y-99273443D01*
X152498412Y-99273443D01*
X152296243Y-99207754D01*
X152296241Y-99207753D01*
X152296240Y-99207753D01*
X152134957Y-99182208D01*
X152086287Y-99174500D01*
X151873713Y-99174500D01*
X151825042Y-99182208D01*
X151663760Y-99207753D01*
X151461585Y-99273444D01*
X151272179Y-99369951D01*
X151100213Y-99494890D01*
X150949890Y-99645213D01*
X150824949Y-99817182D01*
X150820202Y-99826499D01*
X150772227Y-99877293D01*
X150704405Y-99894087D01*
X150638271Y-99871548D01*
X150599234Y-99826495D01*
X150594622Y-99817444D01*
X150469727Y-99645540D01*
X150469723Y-99645535D01*
X150319464Y-99495276D01*
X150319459Y-99495272D01*
X150147557Y-99370379D01*
X149958215Y-99273903D01*
X149756124Y-99208241D01*
X149690000Y-99197768D01*
X149690000Y-100245854D01*
X149623343Y-100207370D01*
X149502535Y-100175000D01*
X149377465Y-100175000D01*
X149256657Y-100207370D01*
X149190000Y-100245854D01*
X149190000Y-99197768D01*
X149189999Y-99197768D01*
X149123875Y-99208241D01*
X148921784Y-99273903D01*
X148732442Y-99370379D01*
X148560540Y-99495272D01*
X148560535Y-99495276D01*
X148410276Y-99645535D01*
X148410272Y-99645540D01*
X148285378Y-99817443D01*
X148280762Y-99826502D01*
X148232784Y-99877295D01*
X148164963Y-99894087D01*
X148098829Y-99871546D01*
X148059794Y-99826493D01*
X148055051Y-99817184D01*
X148055049Y-99817181D01*
X148055048Y-99817179D01*
X147930109Y-99645213D01*
X147779786Y-99494890D01*
X147607820Y-99369951D01*
X147418414Y-99273444D01*
X147418413Y-99273443D01*
X147418412Y-99273443D01*
X147216243Y-99207754D01*
X147216241Y-99207753D01*
X147216240Y-99207753D01*
X147054957Y-99182208D01*
X147006287Y-99174500D01*
X146793713Y-99174500D01*
X146745042Y-99182208D01*
X146583760Y-99207753D01*
X146381585Y-99273444D01*
X146192179Y-99369951D01*
X146020213Y-99494890D01*
X145869890Y-99645213D01*
X145744949Y-99817182D01*
X145740202Y-99826499D01*
X145692227Y-99877293D01*
X145624405Y-99894087D01*
X145558271Y-99871548D01*
X145519234Y-99826495D01*
X145514622Y-99817444D01*
X145389727Y-99645540D01*
X145389723Y-99645535D01*
X145239464Y-99495276D01*
X145239459Y-99495272D01*
X145067557Y-99370379D01*
X144878215Y-99273903D01*
X144676124Y-99208241D01*
X144610000Y-99197768D01*
X144610000Y-100245854D01*
X144543343Y-100207370D01*
X144422535Y-100175000D01*
X144297465Y-100175000D01*
X144176657Y-100207370D01*
X144110000Y-100245854D01*
X144110000Y-99197768D01*
X144109999Y-99197768D01*
X144043875Y-99208241D01*
X143841784Y-99273903D01*
X143652442Y-99370379D01*
X143480540Y-99495272D01*
X143480535Y-99495276D01*
X143330276Y-99645535D01*
X143330272Y-99645540D01*
X143205378Y-99817443D01*
X143200762Y-99826502D01*
X143152784Y-99877295D01*
X143084963Y-99894087D01*
X143018829Y-99871546D01*
X142979794Y-99826493D01*
X142975051Y-99817184D01*
X142975049Y-99817181D01*
X142975048Y-99817179D01*
X142850109Y-99645213D01*
X142699786Y-99494890D01*
X142527820Y-99369951D01*
X142338414Y-99273444D01*
X142338413Y-99273443D01*
X142338412Y-99273443D01*
X142136243Y-99207754D01*
X142136241Y-99207753D01*
X142136240Y-99207753D01*
X141974957Y-99182208D01*
X141926287Y-99174500D01*
X141713713Y-99174500D01*
X141671721Y-99181150D01*
X141503753Y-99207754D01*
X141474405Y-99217290D01*
X141404564Y-99219285D01*
X141348407Y-99187040D01*
X135428421Y-93267052D01*
X135428414Y-93267046D01*
X135354729Y-93217812D01*
X135354729Y-93217813D01*
X135305491Y-93184913D01*
X135168917Y-93128343D01*
X135168907Y-93128340D01*
X135023920Y-93099500D01*
X135023918Y-93099500D01*
X118183917Y-93099500D01*
X118036082Y-93099500D01*
X118036080Y-93099500D01*
X117891092Y-93128340D01*
X117891082Y-93128343D01*
X117754511Y-93184912D01*
X117754498Y-93184919D01*
X117631584Y-93267048D01*
X117631580Y-93267051D01*
X115772129Y-95126501D01*
X115710806Y-95159986D01*
X115673641Y-95162348D01*
X115470002Y-95144532D01*
X115469998Y-95144532D01*
X115243313Y-95164364D01*
X115243302Y-95164366D01*
X115023511Y-95223258D01*
X115023502Y-95223261D01*
X114817267Y-95319431D01*
X114817265Y-95319432D01*
X114630860Y-95449953D01*
X114627962Y-95452851D01*
X114566636Y-95486331D01*
X114496945Y-95481342D01*
X114441014Y-95439466D01*
X114424106Y-95408497D01*
X114423799Y-95407675D01*
X114423793Y-95407664D01*
X114337547Y-95292455D01*
X114337544Y-95292452D01*
X114222335Y-95206206D01*
X114222328Y-95206202D01*
X114087482Y-95155908D01*
X114087483Y-95155908D01*
X114027883Y-95149501D01*
X114027881Y-95149500D01*
X114027873Y-95149500D01*
X114027864Y-95149500D01*
X112332129Y-95149500D01*
X112332123Y-95149501D01*
X112272516Y-95155908D01*
X112137671Y-95206202D01*
X112137664Y-95206206D01*
X112022455Y-95292452D01*
X112022452Y-95292455D01*
X111936206Y-95407664D01*
X111936202Y-95407671D01*
X111885908Y-95542517D01*
X111879501Y-95602116D01*
X111879500Y-95602135D01*
X111879500Y-97030657D01*
X111859815Y-97097696D01*
X111807011Y-97143451D01*
X111787594Y-97150432D01*
X111588680Y-97203731D01*
X111588673Y-97203734D01*
X111382516Y-97299866D01*
X111382512Y-97299868D01*
X111309526Y-97350973D01*
X111309526Y-97350974D01*
X111905590Y-97947037D01*
X111842007Y-97964075D01*
X111727993Y-98029901D01*
X111634901Y-98122993D01*
X111569075Y-98237007D01*
X111552037Y-98300589D01*
X110955974Y-97704526D01*
X110955973Y-97704526D01*
X110904868Y-97777512D01*
X110904866Y-97777516D01*
X110808734Y-97983673D01*
X110808730Y-97983682D01*
X110749860Y-98203389D01*
X110749858Y-98203400D01*
X110730034Y-98429997D01*
X110730034Y-98430002D01*
X110749858Y-98656599D01*
X110749860Y-98656610D01*
X110808730Y-98876317D01*
X110808735Y-98876331D01*
X110904863Y-99082478D01*
X110955974Y-99155472D01*
X111552037Y-98559409D01*
X111569075Y-98622993D01*
X111634901Y-98737007D01*
X111727993Y-98830099D01*
X111842007Y-98895925D01*
X111905588Y-98912962D01*
X111309526Y-99509025D01*
X111382513Y-99560132D01*
X111382521Y-99560136D01*
X111588668Y-99656264D01*
X111588682Y-99656269D01*
X111808389Y-99715139D01*
X111808400Y-99715141D01*
X111882439Y-99721618D01*
X111947508Y-99747069D01*
X111988487Y-99803660D01*
X111992366Y-99873422D01*
X111984016Y-99897550D01*
X111953260Y-99963506D01*
X111953258Y-99963511D01*
X111894366Y-100183302D01*
X111894364Y-100183313D01*
X111874532Y-100409998D01*
X111874532Y-100410001D01*
X111894364Y-100636686D01*
X111894366Y-100636697D01*
X111953258Y-100856488D01*
X111953261Y-100856497D01*
X112049431Y-101062732D01*
X112049432Y-101062734D01*
X112179954Y-101249141D01*
X112340858Y-101410045D01*
X112340861Y-101410047D01*
X112527266Y-101540568D01*
X112733504Y-101636739D01*
X112953308Y-101695635D01*
X113109214Y-101709275D01*
X113179998Y-101715468D01*
X113180000Y-101715468D01*
X113180002Y-101715468D01*
X113250786Y-101709275D01*
X113406692Y-101695635D01*
X113626496Y-101636739D01*
X113832734Y-101540568D01*
X114019139Y-101410047D01*
X114180047Y-101249139D01*
X114223425Y-101187188D01*
X114278001Y-101143563D01*
X114347499Y-101136369D01*
X114409854Y-101167891D01*
X114426576Y-101187189D01*
X114469955Y-101249142D01*
X114630858Y-101410045D01*
X114630861Y-101410047D01*
X114817266Y-101540568D01*
X115023504Y-101636739D01*
X115243308Y-101695635D01*
X115399214Y-101709275D01*
X115469998Y-101715468D01*
X115470000Y-101715468D01*
X115470002Y-101715468D01*
X115540786Y-101709275D01*
X115696692Y-101695635D01*
X115916496Y-101636739D01*
X116122734Y-101540568D01*
X116309139Y-101410047D01*
X116470047Y-101249139D01*
X116513425Y-101187188D01*
X116568001Y-101143563D01*
X116637499Y-101136369D01*
X116699854Y-101167891D01*
X116716576Y-101187189D01*
X116759955Y-101249142D01*
X116920858Y-101410045D01*
X116920861Y-101410047D01*
X117107266Y-101540568D01*
X117313504Y-101636739D01*
X117533308Y-101695635D01*
X117689214Y-101709275D01*
X117759998Y-101715468D01*
X117760000Y-101715468D01*
X117760002Y-101715468D01*
X117791421Y-101712719D01*
X117986692Y-101695635D01*
X118027162Y-101684791D01*
X118097012Y-101686452D01*
X118146938Y-101716884D01*
X119167873Y-102737819D01*
X119201358Y-102799142D01*
X119196374Y-102868834D01*
X119154502Y-102924767D01*
X119089038Y-102949184D01*
X119080192Y-102949500D01*
X102424500Y-102949500D01*
X102357461Y-102929815D01*
X102311706Y-102877011D01*
X102300500Y-102825500D01*
X102300500Y-99031166D01*
X102320185Y-98964127D01*
X102372989Y-98918372D01*
X102442147Y-98908428D01*
X102505703Y-98937453D01*
X102543477Y-98996231D01*
X102546301Y-99007918D01*
X102564731Y-99104532D01*
X102568270Y-99123083D01*
X102665497Y-99422316D01*
X102665499Y-99422321D01*
X102799461Y-99707003D01*
X102799464Y-99707009D01*
X102968051Y-99972661D01*
X102968054Y-99972665D01*
X103168606Y-100215090D01*
X103168608Y-100215092D01*
X103168610Y-100215094D01*
X103332415Y-100368917D01*
X103397968Y-100430476D01*
X103397978Y-100430484D01*
X103652504Y-100615408D01*
X103652509Y-100615410D01*
X103652516Y-100615416D01*
X103928234Y-100766994D01*
X103928239Y-100766996D01*
X103928241Y-100766997D01*
X103928242Y-100766998D01*
X104220771Y-100882818D01*
X104220774Y-100882819D01*
X104409292Y-100931222D01*
X104525527Y-100961066D01*
X104591010Y-100969338D01*
X104837670Y-101000499D01*
X104837679Y-101000499D01*
X104837682Y-101000500D01*
X104837684Y-101000500D01*
X105152316Y-101000500D01*
X105152318Y-101000500D01*
X105152321Y-101000499D01*
X105152329Y-101000499D01*
X105338593Y-100976968D01*
X105464473Y-100961066D01*
X105769225Y-100882819D01*
X105769228Y-100882818D01*
X106061757Y-100766998D01*
X106061758Y-100766997D01*
X106061756Y-100766997D01*
X106061766Y-100766994D01*
X106337484Y-100615416D01*
X106592030Y-100430478D01*
X106821390Y-100215094D01*
X107021947Y-99972663D01*
X107190537Y-99707007D01*
X107324503Y-99422315D01*
X107421731Y-99123079D01*
X107480688Y-98814015D01*
X107500444Y-98500000D01*
X107500181Y-98495826D01*
X107480689Y-98185995D01*
X107480688Y-98185988D01*
X107480688Y-98185985D01*
X107421731Y-97876921D01*
X107324503Y-97577685D01*
X107284338Y-97492331D01*
X107264441Y-97450047D01*
X107190537Y-97292993D01*
X107133890Y-97203731D01*
X107021948Y-97027338D01*
X107021945Y-97027334D01*
X106821393Y-96784909D01*
X106821391Y-96784907D01*
X106757117Y-96724549D01*
X106592030Y-96569522D01*
X106592027Y-96569520D01*
X106592021Y-96569515D01*
X106337495Y-96384591D01*
X106337488Y-96384586D01*
X106337484Y-96384584D01*
X106061766Y-96233006D01*
X106061763Y-96233004D01*
X106061758Y-96233002D01*
X106061757Y-96233001D01*
X105769228Y-96117181D01*
X105769225Y-96117180D01*
X105464476Y-96038934D01*
X105464463Y-96038932D01*
X105152329Y-95999500D01*
X105152318Y-95999500D01*
X104837682Y-95999500D01*
X104837670Y-95999500D01*
X104525536Y-96038932D01*
X104525523Y-96038934D01*
X104220774Y-96117180D01*
X104220771Y-96117181D01*
X103928242Y-96233001D01*
X103928241Y-96233002D01*
X103652516Y-96384584D01*
X103652504Y-96384591D01*
X103397978Y-96569515D01*
X103397968Y-96569523D01*
X103168608Y-96784907D01*
X103168606Y-96784909D01*
X102968054Y-97027334D01*
X102968051Y-97027338D01*
X102799464Y-97292990D01*
X102799461Y-97292996D01*
X102665499Y-97577678D01*
X102665497Y-97577683D01*
X102600649Y-97777266D01*
X102568269Y-97876921D01*
X102546303Y-97992070D01*
X102514406Y-98054232D01*
X102453963Y-98089282D01*
X102384166Y-98086090D01*
X102327175Y-98045670D01*
X102301084Y-97980855D01*
X102300500Y-97968833D01*
X102300500Y-91374500D01*
X102320185Y-91307461D01*
X102372989Y-91261706D01*
X102424500Y-91250500D01*
X162175500Y-91250500D01*
X162242539Y-91270185D01*
G37*
%TD.AperFunction*%
%TA.AperFunction,Conductor*%
G36*
X123954809Y-95320185D02*
G01*
X123975451Y-95336819D01*
X125363181Y-96724549D01*
X125396666Y-96785872D01*
X125399500Y-96812230D01*
X125399500Y-100223918D01*
X125399500Y-100223920D01*
X125399499Y-100223920D01*
X125428340Y-100368907D01*
X125428343Y-100368917D01*
X125484912Y-100505488D01*
X125484916Y-100505495D01*
X125517274Y-100553922D01*
X125517275Y-100553924D01*
X125567043Y-100628410D01*
X125567047Y-100628415D01*
X126876451Y-101937819D01*
X126909936Y-101999142D01*
X126904952Y-102068834D01*
X126863080Y-102124767D01*
X126797616Y-102149184D01*
X126788770Y-102149500D01*
X120470808Y-102149500D01*
X120403769Y-102129815D01*
X120383127Y-102113181D01*
X120178642Y-101908696D01*
X120145157Y-101847373D01*
X120150141Y-101777681D01*
X120192013Y-101721748D01*
X120255516Y-101697487D01*
X120276692Y-101695635D01*
X120496496Y-101636739D01*
X120702734Y-101540568D01*
X120889139Y-101410047D01*
X121050047Y-101249139D01*
X121093425Y-101187188D01*
X121148001Y-101143563D01*
X121217499Y-101136369D01*
X121279854Y-101167891D01*
X121296576Y-101187189D01*
X121339955Y-101249142D01*
X121500858Y-101410045D01*
X121500861Y-101410047D01*
X121687266Y-101540568D01*
X121893504Y-101636739D01*
X122113308Y-101695635D01*
X122269214Y-101709275D01*
X122339998Y-101715468D01*
X122340000Y-101715468D01*
X122340002Y-101715468D01*
X122410786Y-101709275D01*
X122566692Y-101695635D01*
X122786496Y-101636739D01*
X122992734Y-101540568D01*
X123179139Y-101410047D01*
X123340047Y-101249139D01*
X123470568Y-101062734D01*
X123566739Y-100856496D01*
X123625635Y-100636692D01*
X123645468Y-100410000D01*
X123625635Y-100183308D01*
X123566739Y-99963504D01*
X123470568Y-99757266D01*
X123340047Y-99570861D01*
X123340045Y-99570858D01*
X123179141Y-99409954D01*
X122992734Y-99279432D01*
X122992732Y-99279431D01*
X122786497Y-99183261D01*
X122786488Y-99183258D01*
X122566697Y-99124366D01*
X122566687Y-99124364D01*
X122492253Y-99117852D01*
X122427184Y-99092399D01*
X122386206Y-99035808D01*
X122382328Y-98966046D01*
X122390679Y-98941918D01*
X122421267Y-98876321D01*
X122421269Y-98876317D01*
X122480139Y-98656610D01*
X122480141Y-98656599D01*
X122499966Y-98430002D01*
X122499966Y-98429997D01*
X122480141Y-98203400D01*
X122480139Y-98203389D01*
X122421269Y-97983682D01*
X122421266Y-97983673D01*
X122390454Y-97917598D01*
X122379962Y-97848521D01*
X122408481Y-97784737D01*
X122466958Y-97746497D01*
X122492029Y-97741665D01*
X122566600Y-97735141D01*
X122566610Y-97735139D01*
X122786317Y-97676269D01*
X122786331Y-97676264D01*
X122992478Y-97580136D01*
X123065471Y-97529024D01*
X122469409Y-96932962D01*
X122532993Y-96915925D01*
X122647007Y-96850099D01*
X122740099Y-96757007D01*
X122805925Y-96642993D01*
X122822962Y-96579409D01*
X123419024Y-97175471D01*
X123470136Y-97102478D01*
X123566264Y-96896331D01*
X123566269Y-96896317D01*
X123625139Y-96676610D01*
X123625141Y-96676599D01*
X123644966Y-96450002D01*
X123644966Y-96449997D01*
X123625141Y-96223400D01*
X123625139Y-96223389D01*
X123566269Y-96003682D01*
X123566264Y-96003668D01*
X123470136Y-95797521D01*
X123470132Y-95797513D01*
X123419025Y-95724526D01*
X122822962Y-96320589D01*
X122805925Y-96257007D01*
X122740099Y-96142993D01*
X122647007Y-96049901D01*
X122532993Y-95984075D01*
X122469410Y-95967037D01*
X123099628Y-95336819D01*
X123160951Y-95303334D01*
X123187309Y-95300500D01*
X123887770Y-95300500D01*
X123954809Y-95320185D01*
G37*
%TD.AperFunction*%
%TA.AperFunction,Conductor*%
G36*
X121559729Y-95320185D02*
G01*
X121580371Y-95336819D01*
X122210590Y-95967037D01*
X122147007Y-95984075D01*
X122032993Y-96049901D01*
X121939901Y-96142993D01*
X121874075Y-96257007D01*
X121857037Y-96320590D01*
X121260974Y-95724526D01*
X121208536Y-95729114D01*
X121140036Y-95715347D01*
X121096154Y-95676709D01*
X121050045Y-95610858D01*
X120951368Y-95512181D01*
X120917883Y-95450858D01*
X120922867Y-95381166D01*
X120964739Y-95325233D01*
X121030203Y-95300816D01*
X121039049Y-95300500D01*
X121492690Y-95300500D01*
X121559729Y-95320185D01*
G37*
%TD.AperFunction*%
%TD*%
M02*
