M48
; DRILL file {KiCad 8.0.0} date 2025-12-14T23:56:05+0300
; FORMAT={-:-/ absolute / inch / decimal}
; #@! TF.CreationDate,2025-12-14T23:56:05+03:00
; #@! TF.GenerationSoftware,Kicad,Pcbnew,8.0.0
; #@! TF.FileFunction,Plated,1,2,PTH
FMAT,2
INCH
; #@! TA.AperFunction,Plated,PTH,ComponentDrill
T1C0.0374
; #@! TA.AperFunction,Plated,PTH,ComponentDrill
T2C0.0394
; #@! TA.AperFunction,Plated,PTH,ComponentDrill
T3C0.0787
%
G90
G05
T1
X5.3835Y-3.9626
X5.4835Y-3.9626
X5.5835Y-3.9626
X5.6835Y-3.9626
X5.7835Y-3.9626
X5.8835Y-3.9626
X5.9835Y-3.9626
X6.0835Y-3.9626
X6.1835Y-3.9626
X6.2835Y-3.9626
T2
X4.4346Y-3.7969
X4.4346Y-3.9528
X4.4797Y-3.8748
X4.5248Y-3.7969
X4.5248Y-3.9528
X4.5699Y-3.8748
X4.615Y-3.7969
X4.615Y-3.9528
X4.66Y-3.8748
X4.7051Y-3.7969
X4.7051Y-3.9528
X4.7502Y-3.8748
X4.7953Y-3.7969
X4.7953Y-3.9528
X4.8404Y-3.8748
T3
G00X4.1096Y-3.8776
M15
G01X4.1569Y-3.8776
M16
G05
G00X5.0939Y-3.8776
M15
G01X5.1411Y-3.8776
M16
G05
M30
