%TF.GenerationSoftware,KiCad,Pcbnew,8.0.0*%
%TF.CreationDate,2025-12-14T23:55:59+03:00*%
%TF.ProjectId,Loewe Q2300 Breakout Board,4c6f6577-6520-4513-9233-303020427265,rev?*%
%TF.SameCoordinates,Original*%
%TF.FileFunction,Copper,L2,Bot*%
%TF.FilePolarity,Positive*%
%FSLAX46Y46*%
G04 Gerber Fmt 4.6, Leading zero omitted, Abs format (unit mm)*
G04 Created by KiCad (PCBNEW 8.0.0) date 2025-12-14 23:55:59*
%MOMM*%
%LPD*%
G01*
G04 APERTURE LIST*
G04 Aperture macros list*
%AMRoundRect*
0 Rectangle with rounded corners*
0 $1 Rounding radius*
0 $2 $3 $4 $5 $6 $7 $8 $9 X,Y pos of 4 corners*
0 Add a 4 corners polygon primitive as box body*
4,1,4,$2,$3,$4,$5,$6,$7,$8,$9,$2,$3,0*
0 Add four circle primitives for the rounded corners*
1,1,$1+$1,$2,$3*
1,1,$1+$1,$4,$5*
1,1,$1+$1,$6,$7*
1,1,$1+$1,$8,$9*
0 Add four rect primitives between the rounded corners*
20,1,$1+$1,$2,$3,$4,$5,0*
20,1,$1+$1,$4,$5,$6,$7,0*
20,1,$1+$1,$6,$7,$8,$9,0*
20,1,$1+$1,$8,$9,$2,$3,0*%
G04 Aperture macros list end*
%TA.AperFunction,ComponentPad*%
%ADD10C,4.000000*%
%TD*%
%TA.AperFunction,ComponentPad*%
%ADD11R,1.600000X1.600000*%
%TD*%
%TA.AperFunction,ComponentPad*%
%ADD12C,1.600000*%
%TD*%
%TA.AperFunction,ComponentPad*%
%ADD13RoundRect,0.250000X0.600000X0.725000X-0.600000X0.725000X-0.600000X-0.725000X0.600000X-0.725000X0*%
%TD*%
%TA.AperFunction,ComponentPad*%
%ADD14O,1.700000X1.950000*%
%TD*%
%TA.AperFunction,Conductor*%
%ADD15C,0.500000*%
%TD*%
%TA.AperFunction,Conductor*%
%ADD16C,0.300000*%
%TD*%
G04 APERTURE END LIST*
D10*
%TO.P,J1,0*%
%TO.N,unconnected-(J1-Pad0)_0*%
X104985000Y-98490000D03*
%TO.N,unconnected-(J1-Pad0)*%
X129985000Y-98490000D03*
D11*
%TO.P,J1,1*%
%TO.N,/RED_B*%
X121800000Y-96440000D03*
D12*
%TO.P,J1,2*%
%TO.N,/GREEN_B*%
X119510000Y-96440000D03*
%TO.P,J1,3*%
%TO.N,/BLUE_B*%
X117220000Y-96440000D03*
%TO.P,J1,4*%
%TO.N,unconnected-(J1-Pad4)*%
X114930000Y-96440000D03*
%TO.P,J1,5*%
%TO.N,/GND_B*%
X112640000Y-96440000D03*
%TO.P,J1,6*%
X122945000Y-98420000D03*
%TO.P,J1,7*%
X120655000Y-98420000D03*
%TO.P,J1,8*%
X118365000Y-98420000D03*
%TO.P,J1,9*%
%TO.N,unconnected-(J1-Pad9)*%
X116075000Y-98420000D03*
%TO.P,J1,10*%
%TO.N,/GND_B*%
X113785000Y-98420000D03*
%TO.P,J1,11*%
%TO.N,unconnected-(J1-Pad11)*%
X121800000Y-100400000D03*
%TO.P,J1,12*%
%TO.N,unconnected-(J1-Pad12)*%
X119510000Y-100400000D03*
%TO.P,J1,13*%
%TO.N,/HSYNC_B*%
X117220000Y-100400000D03*
%TO.P,J1,14*%
%TO.N,/VSYNC_B*%
X114930000Y-100400000D03*
%TO.P,J1,15*%
%TO.N,unconnected-(J1-Pad15)*%
X112640000Y-100400000D03*
%TD*%
D13*
%TO.P,J2,1,Pin_1*%
%TO.N,/GND_B*%
X159600000Y-100650000D03*
D14*
%TO.P,J2,2,Pin_2*%
%TO.N,/VSYNC_B*%
X157060000Y-100650000D03*
%TO.P,J2,3,Pin_3*%
%TO.N,/GND_B*%
X154520000Y-100650000D03*
%TO.P,J2,4,Pin_4*%
%TO.N,/HSYNC_B*%
X151980000Y-100650000D03*
%TO.P,J2,5,Pin_5*%
%TO.N,/GND_B*%
X149440000Y-100650000D03*
%TO.P,J2,6,Pin_6*%
%TO.N,/BLUE_B*%
X146900000Y-100650000D03*
%TO.P,J2,7,Pin_7*%
%TO.N,/GND_B*%
X144360000Y-100650000D03*
%TO.P,J2,8,Pin_8*%
%TO.N,/GREEN_B*%
X141820000Y-100650000D03*
%TO.P,J2,9,Pin_9*%
%TO.N,/GND_B*%
X139280000Y-100650000D03*
%TO.P,J2,10,Pin_10*%
%TO.N,/RED_B*%
X136740000Y-100650000D03*
%TD*%
D15*
%TO.N,/GND_B*%
X113785000Y-98420000D02*
X111920000Y-98420000D01*
D16*
%TO.N,/HSYNC_B*%
X119620000Y-102800000D02*
X117220000Y-100400000D01*
X149830000Y-102800000D02*
X119620000Y-102800000D01*
X151980000Y-100650000D02*
X149830000Y-102800000D01*
D15*
%TO.N,/GND_B*%
X122945000Y-98420000D02*
X120655000Y-98420000D01*
%TO.N,/BLUE_B*%
X140100000Y-93850000D02*
X146900000Y-100650000D01*
X119810000Y-93850000D02*
X140100000Y-93850000D01*
X117220000Y-96440000D02*
X119810000Y-93850000D01*
%TO.N,/GREEN_B*%
X126150000Y-100150000D02*
X128200000Y-102200000D01*
X126150000Y-96450000D02*
X126150000Y-100150000D01*
X140270000Y-102200000D02*
X141820000Y-100650000D01*
X124250000Y-94550000D02*
X126150000Y-96450000D01*
X119510000Y-96440000D02*
X121400000Y-94550000D01*
X121400000Y-94550000D02*
X124250000Y-94550000D01*
X128200000Y-102200000D02*
X140270000Y-102200000D01*
%TO.N,unconnected-(J1-Pad4)*%
X115470000Y-96450000D02*
X115510000Y-96450000D01*
%TD*%
%TA.AperFunction,Conductor*%
%TO.N,/GND_B*%
G36*
X162242539Y-91270185D02*
G01*
X162288294Y-91322989D01*
X162299500Y-91374500D01*
X162299500Y-102825500D01*
X162279815Y-102892539D01*
X162227011Y-102938294D01*
X162175500Y-102949500D01*
X150899808Y-102949500D01*
X150832769Y-102929815D01*
X150787014Y-102877011D01*
X150777070Y-102807853D01*
X150806095Y-102744297D01*
X150812127Y-102737819D01*
X151001167Y-102548777D01*
X151454502Y-102095441D01*
X151515823Y-102061958D01*
X151580497Y-102065192D01*
X151663757Y-102092246D01*
X151873713Y-102125500D01*
X151873714Y-102125500D01*
X152086286Y-102125500D01*
X152086287Y-102125500D01*
X152296243Y-102092246D01*
X152498412Y-102026557D01*
X152687816Y-101930051D01*
X152730973Y-101898696D01*
X152859786Y-101805109D01*
X152859788Y-101805106D01*
X152859792Y-101805104D01*
X153010104Y-101654792D01*
X153010106Y-101654788D01*
X153010109Y-101654786D01*
X153102448Y-101527690D01*
X153135051Y-101482816D01*
X153139793Y-101473508D01*
X153187763Y-101422711D01*
X153255583Y-101405911D01*
X153321719Y-101428445D01*
X153360763Y-101473500D01*
X153365377Y-101482555D01*
X153490272Y-101654459D01*
X153490276Y-101654464D01*
X153640535Y-101804723D01*
X153640540Y-101804727D01*
X153812442Y-101929620D01*
X154001782Y-102026095D01*
X154203871Y-102091757D01*
X154270000Y-102102231D01*
X154270000Y-101054145D01*
X154336657Y-101092630D01*
X154457465Y-101125000D01*
X154582535Y-101125000D01*
X154703343Y-101092630D01*
X154770000Y-101054145D01*
X154770000Y-102102230D01*
X154836126Y-102091757D01*
X154836129Y-102091757D01*
X155038217Y-102026095D01*
X155227557Y-101929620D01*
X155399459Y-101804727D01*
X155399464Y-101804723D01*
X155549723Y-101654464D01*
X155549727Y-101654459D01*
X155674620Y-101482558D01*
X155679232Y-101473507D01*
X155727205Y-101422709D01*
X155795025Y-101405912D01*
X155861161Y-101428447D01*
X155900204Y-101473504D01*
X155904949Y-101482817D01*
X156029890Y-101654786D01*
X156180213Y-101805109D01*
X156352179Y-101930048D01*
X156352181Y-101930049D01*
X156352184Y-101930051D01*
X156541588Y-102026557D01*
X156743757Y-102092246D01*
X156953713Y-102125500D01*
X156953714Y-102125500D01*
X157166286Y-102125500D01*
X157166287Y-102125500D01*
X157376243Y-102092246D01*
X157578412Y-102026557D01*
X157767816Y-101930051D01*
X157810973Y-101898696D01*
X157939786Y-101805109D01*
X157939788Y-101805106D01*
X157939792Y-101805104D01*
X158090104Y-101654792D01*
X158094018Y-101649404D01*
X158149342Y-101606734D01*
X158218955Y-101600748D01*
X158280753Y-101633348D01*
X158312046Y-101683272D01*
X158315639Y-101694114D01*
X158315643Y-101694124D01*
X158407684Y-101843345D01*
X158531654Y-101967315D01*
X158680875Y-102059356D01*
X158680880Y-102059358D01*
X158847302Y-102114505D01*
X158847309Y-102114506D01*
X158950019Y-102124999D01*
X159349999Y-102124999D01*
X159350000Y-102124998D01*
X159350000Y-101054145D01*
X159416657Y-101092630D01*
X159537465Y-101125000D01*
X159662535Y-101125000D01*
X159783343Y-101092630D01*
X159850000Y-101054145D01*
X159850000Y-102124999D01*
X160249972Y-102124999D01*
X160249986Y-102124998D01*
X160352697Y-102114505D01*
X160519119Y-102059358D01*
X160519124Y-102059356D01*
X160668345Y-101967315D01*
X160792315Y-101843345D01*
X160884356Y-101694124D01*
X160884358Y-101694119D01*
X160939505Y-101527697D01*
X160939506Y-101527690D01*
X160949999Y-101424986D01*
X160950000Y-101424973D01*
X160950000Y-100900000D01*
X160004146Y-100900000D01*
X160042630Y-100833343D01*
X160075000Y-100712535D01*
X160075000Y-100587465D01*
X160042630Y-100466657D01*
X160004146Y-100400000D01*
X160949999Y-100400000D01*
X160949999Y-99875028D01*
X160949998Y-99875013D01*
X160939505Y-99772302D01*
X160884358Y-99605880D01*
X160884356Y-99605875D01*
X160792315Y-99456654D01*
X160668345Y-99332684D01*
X160519124Y-99240643D01*
X160519119Y-99240641D01*
X160352697Y-99185494D01*
X160352690Y-99185493D01*
X160249986Y-99175000D01*
X159850000Y-99175000D01*
X159850000Y-100245854D01*
X159783343Y-100207370D01*
X159662535Y-100175000D01*
X159537465Y-100175000D01*
X159416657Y-100207370D01*
X159350000Y-100245854D01*
X159350000Y-99175000D01*
X158950028Y-99175000D01*
X158950012Y-99175001D01*
X158847302Y-99185494D01*
X158680880Y-99240641D01*
X158680875Y-99240643D01*
X158531654Y-99332684D01*
X158407684Y-99456654D01*
X158315643Y-99605875D01*
X158315641Y-99605881D01*
X158312046Y-99616729D01*
X158272270Y-99674171D01*
X158207753Y-99700991D01*
X158138977Y-99688672D01*
X158094020Y-99650598D01*
X158090105Y-99645209D01*
X157939786Y-99494890D01*
X157767820Y-99369951D01*
X157578414Y-99273444D01*
X157578413Y-99273443D01*
X157578412Y-99273443D01*
X157376243Y-99207754D01*
X157376241Y-99207753D01*
X157376240Y-99207753D01*
X157214957Y-99182208D01*
X157166287Y-99174500D01*
X156953713Y-99174500D01*
X156905042Y-99182208D01*
X156743760Y-99207753D01*
X156541585Y-99273444D01*
X156352179Y-99369951D01*
X156180213Y-99494890D01*
X156029890Y-99645213D01*
X155904949Y-99817182D01*
X155900202Y-99826499D01*
X155852227Y-99877293D01*
X155784405Y-99894087D01*
X155718271Y-99871548D01*
X155679234Y-99826495D01*
X155674622Y-99817444D01*
X155549727Y-99645540D01*
X155549723Y-99645535D01*
X155399464Y-99495276D01*
X155399459Y-99495272D01*
X155227557Y-99370379D01*
X155038215Y-99273903D01*
X154836124Y-99208241D01*
X154770000Y-99197768D01*
X154770000Y-100245854D01*
X154703343Y-100207370D01*
X154582535Y-100175000D01*
X154457465Y-100175000D01*
X154336657Y-100207370D01*
X154270000Y-100245854D01*
X154270000Y-99197768D01*
X154269999Y-99197768D01*
X154203875Y-99208241D01*
X154001784Y-99273903D01*
X153812442Y-99370379D01*
X153640540Y-99495272D01*
X153640535Y-99495276D01*
X153490276Y-99645535D01*
X153490272Y-99645540D01*
X153365378Y-99817443D01*
X153360762Y-99826502D01*
X153312784Y-99877295D01*
X153244963Y-99894087D01*
X153178829Y-99871546D01*
X153139794Y-99826493D01*
X153135051Y-99817184D01*
X153135049Y-99817181D01*
X153135048Y-99817179D01*
X153010109Y-99645213D01*
X152859786Y-99494890D01*
X152687820Y-99369951D01*
X152498414Y-99273444D01*
X152498413Y-99273443D01*
X152498412Y-99273443D01*
X152296243Y-99207754D01*
X152296241Y-99207753D01*
X152296240Y-99207753D01*
X152134957Y-99182208D01*
X152086287Y-99174500D01*
X151873713Y-99174500D01*
X151825042Y-99182208D01*
X151663760Y-99207753D01*
X151461585Y-99273444D01*
X151272179Y-99369951D01*
X151100213Y-99494890D01*
X150949890Y-99645213D01*
X150824949Y-99817182D01*
X150820202Y-99826499D01*
X150772227Y-99877293D01*
X150704405Y-99894087D01*
X150638271Y-99871548D01*
X150599234Y-99826495D01*
X150594622Y-99817444D01*
X150469727Y-99645540D01*
X150469723Y-99645535D01*
X150319464Y-99495276D01*
X150319459Y-99495272D01*
X150147557Y-99370379D01*
X149958215Y-99273903D01*
X149756124Y-99208241D01*
X149690000Y-99197768D01*
X149690000Y-100245854D01*
X149623343Y-100207370D01*
X149502535Y-100175000D01*
X149377465Y-100175000D01*
X149256657Y-100207370D01*
X149190000Y-100245854D01*
X149190000Y-99197768D01*
X149189999Y-99197768D01*
X149123875Y-99208241D01*
X148921784Y-99273903D01*
X148732442Y-99370379D01*
X148560540Y-99495272D01*
X148560535Y-99495276D01*
X148410276Y-99645535D01*
X148410272Y-99645540D01*
X148285378Y-99817443D01*
X148280762Y-99826502D01*
X148232784Y-99877295D01*
X148164963Y-99894087D01*
X148098829Y-99871546D01*
X148059794Y-99826493D01*
X148055051Y-99817184D01*
X148055049Y-99817181D01*
X148055048Y-99817179D01*
X147930109Y-99645213D01*
X147779786Y-99494890D01*
X147607820Y-99369951D01*
X147418414Y-99273444D01*
X147418413Y-99273443D01*
X147418412Y-99273443D01*
X147216243Y-99207754D01*
X147216241Y-99207753D01*
X147216240Y-99207753D01*
X147054957Y-99182208D01*
X147006287Y-99174500D01*
X146793713Y-99174500D01*
X146590360Y-99206707D01*
X146521067Y-99197752D01*
X146483282Y-99171915D01*
X140578421Y-93267052D01*
X140578414Y-93267046D01*
X140504729Y-93217812D01*
X140504729Y-93217813D01*
X140455491Y-93184913D01*
X140318917Y-93128343D01*
X140318907Y-93128340D01*
X140173920Y-93099500D01*
X140173918Y-93099500D01*
X119736082Y-93099500D01*
X119736080Y-93099500D01*
X119591092Y-93128340D01*
X119591082Y-93128343D01*
X119454508Y-93184913D01*
X119331584Y-93267048D01*
X119331584Y-93267049D01*
X117485348Y-95113282D01*
X117424025Y-95146767D01*
X117386861Y-95149129D01*
X117220003Y-95134532D01*
X117219998Y-95134532D01*
X116993313Y-95154364D01*
X116993302Y-95154366D01*
X116773511Y-95213258D01*
X116773502Y-95213261D01*
X116567267Y-95309431D01*
X116567265Y-95309432D01*
X116380858Y-95439954D01*
X116219953Y-95600859D01*
X116176575Y-95662811D01*
X116121998Y-95706436D01*
X116052500Y-95713630D01*
X115990145Y-95682107D01*
X115973425Y-95662811D01*
X115930046Y-95600859D01*
X115769141Y-95439954D01*
X115582734Y-95309432D01*
X115582732Y-95309431D01*
X115376497Y-95213261D01*
X115376488Y-95213258D01*
X115156697Y-95154366D01*
X115156693Y-95154365D01*
X115156692Y-95154365D01*
X115156691Y-95154364D01*
X115156686Y-95154364D01*
X114930002Y-95134532D01*
X114929998Y-95134532D01*
X114703313Y-95154364D01*
X114703302Y-95154366D01*
X114483511Y-95213258D01*
X114483502Y-95213261D01*
X114277267Y-95309431D01*
X114277265Y-95309432D01*
X114090858Y-95439954D01*
X113929956Y-95600856D01*
X113883845Y-95666710D01*
X113829268Y-95710335D01*
X113771464Y-95719114D01*
X113719025Y-95714526D01*
X113122962Y-96310589D01*
X113105925Y-96247007D01*
X113040099Y-96132993D01*
X112947007Y-96039901D01*
X112832993Y-95974075D01*
X112769410Y-95957037D01*
X113365472Y-95360974D01*
X113292478Y-95309863D01*
X113086331Y-95213735D01*
X113086317Y-95213730D01*
X112866610Y-95154860D01*
X112866599Y-95154858D01*
X112640002Y-95135034D01*
X112639998Y-95135034D01*
X112413400Y-95154858D01*
X112413389Y-95154860D01*
X112193682Y-95213730D01*
X112193673Y-95213734D01*
X111987516Y-95309866D01*
X111987512Y-95309868D01*
X111914526Y-95360973D01*
X111914526Y-95360974D01*
X112510590Y-95957037D01*
X112447007Y-95974075D01*
X112332993Y-96039901D01*
X112239901Y-96132993D01*
X112174075Y-96247007D01*
X112157037Y-96310589D01*
X111560974Y-95714526D01*
X111560973Y-95714526D01*
X111509868Y-95787512D01*
X111509866Y-95787516D01*
X111413734Y-95993673D01*
X111413730Y-95993682D01*
X111354860Y-96213389D01*
X111354858Y-96213400D01*
X111335034Y-96439997D01*
X111335034Y-96440002D01*
X111354858Y-96666599D01*
X111354860Y-96666610D01*
X111413730Y-96886317D01*
X111413735Y-96886331D01*
X111509863Y-97092478D01*
X111560974Y-97165472D01*
X112157037Y-96569409D01*
X112174075Y-96632993D01*
X112239901Y-96747007D01*
X112332993Y-96840099D01*
X112447007Y-96905925D01*
X112510590Y-96922962D01*
X111914526Y-97519025D01*
X111987513Y-97570132D01*
X111987521Y-97570136D01*
X112193668Y-97666264D01*
X112193682Y-97666269D01*
X112413389Y-97725139D01*
X112413400Y-97725141D01*
X112487970Y-97731665D01*
X112553039Y-97757117D01*
X112594017Y-97813708D01*
X112597896Y-97883470D01*
X112589545Y-97907597D01*
X112558735Y-97973668D01*
X112558730Y-97973682D01*
X112499860Y-98193389D01*
X112499858Y-98193400D01*
X112480034Y-98419997D01*
X112480034Y-98420002D01*
X112499858Y-98646599D01*
X112499860Y-98646610D01*
X112558730Y-98866317D01*
X112558735Y-98866331D01*
X112589320Y-98931920D01*
X112599812Y-99000997D01*
X112571292Y-99064781D01*
X112512815Y-99103020D01*
X112487746Y-99107852D01*
X112413312Y-99114364D01*
X112413302Y-99114366D01*
X112193511Y-99173258D01*
X112193502Y-99173261D01*
X111987267Y-99269431D01*
X111987265Y-99269432D01*
X111800858Y-99399954D01*
X111639954Y-99560858D01*
X111509432Y-99747265D01*
X111509431Y-99747267D01*
X111413261Y-99953502D01*
X111413258Y-99953511D01*
X111354366Y-100173302D01*
X111354364Y-100173313D01*
X111334532Y-100399998D01*
X111334532Y-100400000D01*
X111354364Y-100626686D01*
X111354366Y-100626697D01*
X111413258Y-100846488D01*
X111413261Y-100846497D01*
X111509431Y-101052732D01*
X111509432Y-101052734D01*
X111639954Y-101239141D01*
X111800858Y-101400045D01*
X111800861Y-101400047D01*
X111987266Y-101530568D01*
X112193504Y-101626739D01*
X112413308Y-101685635D01*
X112569214Y-101699275D01*
X112639998Y-101705468D01*
X112640000Y-101705468D01*
X112640002Y-101705468D01*
X112710786Y-101699275D01*
X112866692Y-101685635D01*
X113086496Y-101626739D01*
X113292734Y-101530568D01*
X113479139Y-101400047D01*
X113640047Y-101239139D01*
X113683425Y-101177188D01*
X113738001Y-101133563D01*
X113807499Y-101126369D01*
X113869854Y-101157891D01*
X113886576Y-101177189D01*
X113929955Y-101239142D01*
X114090858Y-101400045D01*
X114090861Y-101400047D01*
X114277266Y-101530568D01*
X114483504Y-101626739D01*
X114703308Y-101685635D01*
X114859214Y-101699275D01*
X114929998Y-101705468D01*
X114930000Y-101705468D01*
X114930002Y-101705468D01*
X115000786Y-101699275D01*
X115156692Y-101685635D01*
X115376496Y-101626739D01*
X115582734Y-101530568D01*
X115769139Y-101400047D01*
X115930047Y-101239139D01*
X115973425Y-101177188D01*
X116028001Y-101133563D01*
X116097499Y-101126369D01*
X116159854Y-101157891D01*
X116176576Y-101177189D01*
X116219955Y-101239142D01*
X116380858Y-101400045D01*
X116380861Y-101400047D01*
X116567266Y-101530568D01*
X116773504Y-101626739D01*
X116993308Y-101685635D01*
X117149214Y-101699275D01*
X117219998Y-101705468D01*
X117220000Y-101705468D01*
X117220002Y-101705468D01*
X117251421Y-101702719D01*
X117446692Y-101685635D01*
X117487162Y-101674791D01*
X117557012Y-101676452D01*
X117606938Y-101706884D01*
X118637873Y-102737819D01*
X118671358Y-102799142D01*
X118666374Y-102868834D01*
X118624502Y-102924767D01*
X118559038Y-102949184D01*
X118550192Y-102949500D01*
X102424500Y-102949500D01*
X102357461Y-102929815D01*
X102311706Y-102877011D01*
X102300500Y-102825500D01*
X102300500Y-99073587D01*
X102320185Y-99006548D01*
X102372989Y-98960793D01*
X102442147Y-98950849D01*
X102505703Y-98979874D01*
X102543477Y-99038652D01*
X102546300Y-99050336D01*
X102550573Y-99072734D01*
X102558270Y-99113083D01*
X102655497Y-99412316D01*
X102655499Y-99412321D01*
X102789461Y-99697003D01*
X102789464Y-99697009D01*
X102958051Y-99962661D01*
X102958054Y-99962665D01*
X103158606Y-100205090D01*
X103158608Y-100205092D01*
X103158610Y-100205094D01*
X103386091Y-100418713D01*
X103387968Y-100420476D01*
X103387978Y-100420484D01*
X103642504Y-100605408D01*
X103642509Y-100605410D01*
X103642516Y-100605416D01*
X103918234Y-100756994D01*
X103918239Y-100756996D01*
X103918241Y-100756997D01*
X103918242Y-100756998D01*
X104210771Y-100872818D01*
X104210774Y-100872819D01*
X104478881Y-100941657D01*
X104515527Y-100951066D01*
X104581010Y-100959338D01*
X104827670Y-100990499D01*
X104827679Y-100990499D01*
X104827682Y-100990500D01*
X104827684Y-100990500D01*
X105142316Y-100990500D01*
X105142318Y-100990500D01*
X105142321Y-100990499D01*
X105142329Y-100990499D01*
X105328593Y-100966968D01*
X105454473Y-100951066D01*
X105759225Y-100872819D01*
X105759228Y-100872818D01*
X106051757Y-100756998D01*
X106051758Y-100756997D01*
X106051756Y-100756997D01*
X106051766Y-100756994D01*
X106327484Y-100605416D01*
X106582030Y-100420478D01*
X106811390Y-100205094D01*
X107011947Y-99962663D01*
X107180537Y-99697007D01*
X107314503Y-99412315D01*
X107411731Y-99113079D01*
X107470688Y-98804015D01*
X107490444Y-98490000D01*
X107490181Y-98485826D01*
X107470689Y-98175995D01*
X107470688Y-98175988D01*
X107470688Y-98175985D01*
X107411731Y-97866921D01*
X107314503Y-97567685D01*
X107274338Y-97482331D01*
X107254441Y-97440047D01*
X107180537Y-97282993D01*
X107073629Y-97114532D01*
X107011948Y-97017338D01*
X107011945Y-97017334D01*
X106811393Y-96774909D01*
X106811391Y-96774907D01*
X106582031Y-96559523D01*
X106582021Y-96559515D01*
X106327495Y-96374591D01*
X106327488Y-96374586D01*
X106327484Y-96374584D01*
X106051766Y-96223006D01*
X106051763Y-96223004D01*
X106051758Y-96223002D01*
X106051757Y-96223001D01*
X105759228Y-96107181D01*
X105759225Y-96107180D01*
X105454476Y-96028934D01*
X105454463Y-96028932D01*
X105142329Y-95989500D01*
X105142318Y-95989500D01*
X104827682Y-95989500D01*
X104827670Y-95989500D01*
X104515536Y-96028932D01*
X104515523Y-96028934D01*
X104210774Y-96107180D01*
X104210771Y-96107181D01*
X103918242Y-96223001D01*
X103918241Y-96223002D01*
X103642516Y-96374584D01*
X103642504Y-96374591D01*
X103387978Y-96559515D01*
X103387968Y-96559523D01*
X103158608Y-96774907D01*
X103158606Y-96774909D01*
X102958054Y-97017334D01*
X102958051Y-97017338D01*
X102789464Y-97282990D01*
X102789461Y-97282996D01*
X102655499Y-97567678D01*
X102655497Y-97567683D01*
X102590649Y-97767266D01*
X102558269Y-97866921D01*
X102546302Y-97929650D01*
X102514406Y-97991811D01*
X102453963Y-98026861D01*
X102384167Y-98023669D01*
X102327175Y-97983249D01*
X102301084Y-97918434D01*
X102300500Y-97906412D01*
X102300500Y-91374500D01*
X102320185Y-91307461D01*
X102372989Y-91261706D01*
X102424500Y-91250500D01*
X162175500Y-91250500D01*
X162242539Y-91270185D01*
G37*
%TD.AperFunction*%
%TA.AperFunction,Conductor*%
G36*
X123954809Y-95320185D02*
G01*
X123975451Y-95336819D01*
X125363181Y-96724549D01*
X125396666Y-96785872D01*
X125399500Y-96812230D01*
X125399500Y-100223918D01*
X125399500Y-100223920D01*
X125399499Y-100223920D01*
X125428340Y-100368907D01*
X125428343Y-100368917D01*
X125484912Y-100505488D01*
X125484916Y-100505495D01*
X125517274Y-100553922D01*
X125517275Y-100553924D01*
X125567043Y-100628410D01*
X125567047Y-100628415D01*
X126876451Y-101937819D01*
X126909936Y-101999142D01*
X126904952Y-102068834D01*
X126863080Y-102124767D01*
X126797616Y-102149184D01*
X126788770Y-102149500D01*
X119940808Y-102149500D01*
X119873769Y-102129815D01*
X119853127Y-102113181D01*
X119638642Y-101898696D01*
X119605157Y-101837373D01*
X119610141Y-101767681D01*
X119652013Y-101711748D01*
X119715516Y-101687487D01*
X119736692Y-101685635D01*
X119956496Y-101626739D01*
X120162734Y-101530568D01*
X120349139Y-101400047D01*
X120510047Y-101239139D01*
X120553425Y-101177188D01*
X120608001Y-101133563D01*
X120677499Y-101126369D01*
X120739854Y-101157891D01*
X120756576Y-101177189D01*
X120799955Y-101239142D01*
X120960858Y-101400045D01*
X120960861Y-101400047D01*
X121147266Y-101530568D01*
X121353504Y-101626739D01*
X121573308Y-101685635D01*
X121729214Y-101699275D01*
X121799998Y-101705468D01*
X121800000Y-101705468D01*
X121800002Y-101705468D01*
X121870786Y-101699275D01*
X122026692Y-101685635D01*
X122246496Y-101626739D01*
X122452734Y-101530568D01*
X122639139Y-101400047D01*
X122800047Y-101239139D01*
X122930568Y-101052734D01*
X123026739Y-100846496D01*
X123085635Y-100626692D01*
X123105468Y-100400000D01*
X123101823Y-100358343D01*
X123090063Y-100223918D01*
X123085635Y-100173308D01*
X123026739Y-99953504D01*
X122995983Y-99887549D01*
X122985492Y-99818474D01*
X123014011Y-99754690D01*
X123072488Y-99716450D01*
X123097560Y-99711618D01*
X123171599Y-99705141D01*
X123171610Y-99705139D01*
X123391317Y-99646269D01*
X123391331Y-99646264D01*
X123597478Y-99550136D01*
X123670471Y-99499024D01*
X123074409Y-98902962D01*
X123137993Y-98885925D01*
X123252007Y-98820099D01*
X123345099Y-98727007D01*
X123410925Y-98612993D01*
X123427962Y-98549409D01*
X124024024Y-99145471D01*
X124075136Y-99072478D01*
X124171264Y-98866331D01*
X124171269Y-98866317D01*
X124230139Y-98646610D01*
X124230141Y-98646599D01*
X124249966Y-98420002D01*
X124249966Y-98419997D01*
X124230141Y-98193400D01*
X124230139Y-98193389D01*
X124171269Y-97973682D01*
X124171264Y-97973668D01*
X124075136Y-97767521D01*
X124075132Y-97767513D01*
X124024025Y-97694526D01*
X123427962Y-98290589D01*
X123410925Y-98227007D01*
X123345099Y-98112993D01*
X123252007Y-98019901D01*
X123137993Y-97954075D01*
X123074409Y-97937037D01*
X123670472Y-97340974D01*
X123597478Y-97289863D01*
X123391331Y-97193735D01*
X123391319Y-97193731D01*
X123192405Y-97140432D01*
X123132745Y-97104067D01*
X123102216Y-97041220D01*
X123100499Y-97020667D01*
X123100499Y-95592128D01*
X123094091Y-95532517D01*
X123094091Y-95532516D01*
X123069966Y-95467833D01*
X123064982Y-95398141D01*
X123098468Y-95336818D01*
X123159791Y-95303334D01*
X123186148Y-95300500D01*
X123887770Y-95300500D01*
X123954809Y-95320185D01*
G37*
%TD.AperFunction*%
%TA.AperFunction,Conductor*%
G36*
X139804809Y-94620185D02*
G01*
X139825451Y-94636819D01*
X142670963Y-97482331D01*
X144176525Y-98987892D01*
X144210010Y-99049215D01*
X144205026Y-99118907D01*
X144163154Y-99174840D01*
X144108244Y-99198046D01*
X144043869Y-99208242D01*
X143841782Y-99273904D01*
X143652442Y-99370379D01*
X143480540Y-99495272D01*
X143480535Y-99495276D01*
X143330276Y-99645535D01*
X143330272Y-99645540D01*
X143205378Y-99817443D01*
X143200762Y-99826502D01*
X143152784Y-99877295D01*
X143084963Y-99894087D01*
X143018829Y-99871546D01*
X142979794Y-99826493D01*
X142975051Y-99817184D01*
X142975049Y-99817181D01*
X142975048Y-99817179D01*
X142850109Y-99645213D01*
X142699786Y-99494890D01*
X142527820Y-99369951D01*
X142338414Y-99273444D01*
X142338413Y-99273443D01*
X142338412Y-99273443D01*
X142136243Y-99207754D01*
X142136241Y-99207753D01*
X142136240Y-99207753D01*
X141974957Y-99182208D01*
X141926287Y-99174500D01*
X141713713Y-99174500D01*
X141665042Y-99182208D01*
X141503760Y-99207753D01*
X141301585Y-99273444D01*
X141112179Y-99369951D01*
X140940213Y-99494890D01*
X140789890Y-99645213D01*
X140664949Y-99817182D01*
X140660202Y-99826499D01*
X140612227Y-99877293D01*
X140544405Y-99894087D01*
X140478271Y-99871548D01*
X140439234Y-99826495D01*
X140434622Y-99817444D01*
X140309727Y-99645540D01*
X140309723Y-99645535D01*
X140159464Y-99495276D01*
X140159459Y-99495272D01*
X139987557Y-99370379D01*
X139798215Y-99273903D01*
X139596124Y-99208241D01*
X139530000Y-99197768D01*
X139530000Y-100245854D01*
X139463343Y-100207370D01*
X139342535Y-100175000D01*
X139217465Y-100175000D01*
X139096657Y-100207370D01*
X139030000Y-100245854D01*
X139030000Y-99197768D01*
X139029999Y-99197768D01*
X138963875Y-99208241D01*
X138761784Y-99273903D01*
X138572442Y-99370379D01*
X138400540Y-99495272D01*
X138400535Y-99495276D01*
X138250276Y-99645535D01*
X138250272Y-99645540D01*
X138125378Y-99817443D01*
X138120762Y-99826502D01*
X138072784Y-99877295D01*
X138004963Y-99894087D01*
X137938829Y-99871546D01*
X137899794Y-99826493D01*
X137895051Y-99817184D01*
X137895049Y-99817181D01*
X137895048Y-99817179D01*
X137770109Y-99645213D01*
X137619786Y-99494890D01*
X137447820Y-99369951D01*
X137258414Y-99273444D01*
X137258413Y-99273443D01*
X137258412Y-99273443D01*
X137056243Y-99207754D01*
X137056241Y-99207753D01*
X137056240Y-99207753D01*
X136894957Y-99182208D01*
X136846287Y-99174500D01*
X136633713Y-99174500D01*
X136585042Y-99182208D01*
X136423760Y-99207753D01*
X136221585Y-99273444D01*
X136032179Y-99369951D01*
X135860213Y-99494890D01*
X135709890Y-99645213D01*
X135584951Y-99817179D01*
X135488444Y-100006585D01*
X135422753Y-100208760D01*
X135389500Y-100418713D01*
X135389500Y-100881286D01*
X135416745Y-101053308D01*
X135422754Y-101091243D01*
X135450680Y-101177189D01*
X135486419Y-101287182D01*
X135488414Y-101357023D01*
X135452334Y-101416856D01*
X135389633Y-101447684D01*
X135368488Y-101449500D01*
X128562230Y-101449500D01*
X128495191Y-101429815D01*
X128474549Y-101413181D01*
X126936819Y-99875451D01*
X126903334Y-99814128D01*
X126900500Y-99787770D01*
X126900500Y-98490005D01*
X127479556Y-98490005D01*
X127499310Y-98804004D01*
X127499311Y-98804011D01*
X127558270Y-99113083D01*
X127655497Y-99412316D01*
X127655499Y-99412321D01*
X127789461Y-99697003D01*
X127789464Y-99697009D01*
X127958051Y-99962661D01*
X127958054Y-99962665D01*
X128158606Y-100205090D01*
X128158608Y-100205092D01*
X128158610Y-100205094D01*
X128386091Y-100418713D01*
X128387968Y-100420476D01*
X128387978Y-100420484D01*
X128642504Y-100605408D01*
X128642509Y-100605410D01*
X128642516Y-100605416D01*
X128918234Y-100756994D01*
X128918239Y-100756996D01*
X128918241Y-100756997D01*
X128918242Y-100756998D01*
X129210771Y-100872818D01*
X129210774Y-100872819D01*
X129478881Y-100941657D01*
X129515527Y-100951066D01*
X129581010Y-100959338D01*
X129827670Y-100990499D01*
X129827679Y-100990499D01*
X129827682Y-100990500D01*
X129827684Y-100990500D01*
X130142316Y-100990500D01*
X130142318Y-100990500D01*
X130142321Y-100990499D01*
X130142329Y-100990499D01*
X130328593Y-100966968D01*
X130454473Y-100951066D01*
X130759225Y-100872819D01*
X130759228Y-100872818D01*
X131051757Y-100756998D01*
X131051758Y-100756997D01*
X131051756Y-100756997D01*
X131051766Y-100756994D01*
X131327484Y-100605416D01*
X131582030Y-100420478D01*
X131811390Y-100205094D01*
X132011947Y-99962663D01*
X132180537Y-99697007D01*
X132314503Y-99412315D01*
X132411731Y-99113079D01*
X132470688Y-98804015D01*
X132490444Y-98490000D01*
X132490181Y-98485826D01*
X132470689Y-98175995D01*
X132470688Y-98175988D01*
X132470688Y-98175985D01*
X132411731Y-97866921D01*
X132314503Y-97567685D01*
X132274338Y-97482331D01*
X132254441Y-97440047D01*
X132180537Y-97282993D01*
X132073629Y-97114532D01*
X132011948Y-97017338D01*
X132011945Y-97017334D01*
X131811393Y-96774909D01*
X131811391Y-96774907D01*
X131582031Y-96559523D01*
X131582021Y-96559515D01*
X131327495Y-96374591D01*
X131327488Y-96374586D01*
X131327484Y-96374584D01*
X131051766Y-96223006D01*
X131051763Y-96223004D01*
X131051758Y-96223002D01*
X131051757Y-96223001D01*
X130759228Y-96107181D01*
X130759225Y-96107180D01*
X130454476Y-96028934D01*
X130454463Y-96028932D01*
X130142329Y-95989500D01*
X130142318Y-95989500D01*
X129827682Y-95989500D01*
X129827670Y-95989500D01*
X129515536Y-96028932D01*
X129515523Y-96028934D01*
X129210774Y-96107180D01*
X129210771Y-96107181D01*
X128918242Y-96223001D01*
X128918241Y-96223002D01*
X128642516Y-96374584D01*
X128642504Y-96374591D01*
X128387978Y-96559515D01*
X128387968Y-96559523D01*
X128158608Y-96774907D01*
X128158606Y-96774909D01*
X127958054Y-97017334D01*
X127958051Y-97017338D01*
X127789464Y-97282990D01*
X127789461Y-97282996D01*
X127655499Y-97567678D01*
X127655497Y-97567683D01*
X127558270Y-97866916D01*
X127499311Y-98175988D01*
X127499310Y-98175995D01*
X127479556Y-98489994D01*
X127479556Y-98490005D01*
X126900500Y-98490005D01*
X126900500Y-96376079D01*
X126871659Y-96231092D01*
X126871658Y-96231091D01*
X126871658Y-96231087D01*
X126815084Y-96094505D01*
X126771271Y-96028934D01*
X126732952Y-95971584D01*
X125573549Y-94812181D01*
X125540064Y-94750858D01*
X125545048Y-94681166D01*
X125586920Y-94625233D01*
X125652384Y-94600816D01*
X125661230Y-94600500D01*
X139737770Y-94600500D01*
X139804809Y-94620185D01*
G37*
%TD.AperFunction*%
%TD*%
M02*
