M48
; DRILL file {KiCad 8.0.0} date 2025-11-22T16:25:19+0300
; FORMAT={-:-/ absolute / inch / decimal}
; #@! TF.CreationDate,2025-11-22T16:25:19+03:00
; #@! TF.GenerationSoftware,Kicad,Pcbnew,8.0.0
; #@! TF.FileFunction,Plated,1,2,PTH
FMAT,2
INCH
; #@! TA.AperFunction,Plated,PTH,ComponentDrill
T1C0.0374
; #@! TA.AperFunction,Plated,PTH,ComponentDrill
T2C0.0394
; #@! TA.AperFunction,Plated,PTH,ComponentDrill
T3C0.0787
%
G90
G05
T1
X5.3835Y-3.9626
X5.4835Y-3.9626
X5.5835Y-3.9626
X5.6835Y-3.9626
X5.7835Y-3.9626
X5.8835Y-3.9626
X5.9835Y-3.9626
X6.0835Y-3.9626
X6.1835Y-3.9626
X6.2835Y-3.9626
T2
X4.4108Y-3.8752
X4.4559Y-3.7972
X4.4559Y-3.9531
X4.501Y-3.8752
X4.5461Y-3.7972
X4.5461Y-3.9531
X4.5911Y-3.8752
X4.6362Y-3.7972
X4.6362Y-3.9531
X4.6813Y-3.8752
X4.7264Y-3.7972
X4.7264Y-3.9531
X4.7715Y-3.8752
X4.8165Y-3.7972
X4.8165Y-3.9531
T3
G00X4.11Y-3.878
M15
G01X4.1573Y-3.878
M16
G05
G00X5.0943Y-3.878
M15
G01X5.1415Y-3.878
M16
G05
M30
