%TF.GenerationSoftware,KiCad,Pcbnew,8.0.0*%
%TF.CreationDate,2025-11-22T16:21:49+03:00*%
%TF.ProjectId,Loewe Q2300 VGA Adapter,4c6f6577-6520-4513-9233-303020564741,rev?*%
%TF.SameCoordinates,Original*%
%TF.FileFunction,Legend,Bot*%
%TF.FilePolarity,Positive*%
%FSLAX46Y46*%
G04 Gerber Fmt 4.6, Leading zero omitted, Abs format (unit mm)*
G04 Created by KiCad (PCBNEW 8.0.0) date 2025-11-22 16:21:49*
%MOMM*%
%LPD*%
G01*
G04 APERTURE LIST*
%ADD10C,0.200000*%
%ADD11C,0.150000*%
%ADD12C,0.120000*%
G04 APERTURE END LIST*
D10*
X100882707Y-77684600D02*
X100668422Y-77756028D01*
X100668422Y-77756028D02*
X100311279Y-77756028D01*
X100311279Y-77756028D02*
X100168422Y-77684600D01*
X100168422Y-77684600D02*
X100096993Y-77613171D01*
X100096993Y-77613171D02*
X100025564Y-77470314D01*
X100025564Y-77470314D02*
X100025564Y-77327457D01*
X100025564Y-77327457D02*
X100096993Y-77184600D01*
X100096993Y-77184600D02*
X100168422Y-77113171D01*
X100168422Y-77113171D02*
X100311279Y-77041742D01*
X100311279Y-77041742D02*
X100596993Y-76970314D01*
X100596993Y-76970314D02*
X100739850Y-76898885D01*
X100739850Y-76898885D02*
X100811279Y-76827457D01*
X100811279Y-76827457D02*
X100882707Y-76684600D01*
X100882707Y-76684600D02*
X100882707Y-76541742D01*
X100882707Y-76541742D02*
X100811279Y-76398885D01*
X100811279Y-76398885D02*
X100739850Y-76327457D01*
X100739850Y-76327457D02*
X100596993Y-76256028D01*
X100596993Y-76256028D02*
X100239850Y-76256028D01*
X100239850Y-76256028D02*
X100025564Y-76327457D01*
X99525565Y-76256028D02*
X99168422Y-77756028D01*
X99168422Y-77756028D02*
X98882708Y-76684600D01*
X98882708Y-76684600D02*
X98596993Y-77756028D01*
X98596993Y-77756028D02*
X98239851Y-76256028D01*
X100811279Y-82756028D02*
X100811279Y-81256028D01*
X100811279Y-81970314D02*
X99954136Y-81970314D01*
X99954136Y-82756028D02*
X99954136Y-81256028D01*
X50511279Y-75156028D02*
X50511279Y-73656028D01*
X50511279Y-74370314D02*
X49654136Y-74370314D01*
X49654136Y-75156028D02*
X49654136Y-73656028D01*
X100311279Y-71970314D02*
X100096993Y-72041742D01*
X100096993Y-72041742D02*
X100025564Y-72113171D01*
X100025564Y-72113171D02*
X99954136Y-72256028D01*
X99954136Y-72256028D02*
X99954136Y-72470314D01*
X99954136Y-72470314D02*
X100025564Y-72613171D01*
X100025564Y-72613171D02*
X100096993Y-72684600D01*
X100096993Y-72684600D02*
X100239850Y-72756028D01*
X100239850Y-72756028D02*
X100811279Y-72756028D01*
X100811279Y-72756028D02*
X100811279Y-71256028D01*
X100811279Y-71256028D02*
X100311279Y-71256028D01*
X100311279Y-71256028D02*
X100168422Y-71327457D01*
X100168422Y-71327457D02*
X100096993Y-71398885D01*
X100096993Y-71398885D02*
X100025564Y-71541742D01*
X100025564Y-71541742D02*
X100025564Y-71684600D01*
X100025564Y-71684600D02*
X100096993Y-71827457D01*
X100096993Y-71827457D02*
X100168422Y-71898885D01*
X100168422Y-71898885D02*
X100311279Y-71970314D01*
X100311279Y-71970314D02*
X100811279Y-71970314D01*
X90296993Y-53256028D02*
X91011279Y-53256028D01*
X91011279Y-53256028D02*
X91011279Y-51756028D01*
X89582707Y-53256028D02*
X89725564Y-53184600D01*
X89725564Y-53184600D02*
X89796993Y-53113171D01*
X89796993Y-53113171D02*
X89868421Y-52970314D01*
X89868421Y-52970314D02*
X89868421Y-52541742D01*
X89868421Y-52541742D02*
X89796993Y-52398885D01*
X89796993Y-52398885D02*
X89725564Y-52327457D01*
X89725564Y-52327457D02*
X89582707Y-52256028D01*
X89582707Y-52256028D02*
X89368421Y-52256028D01*
X89368421Y-52256028D02*
X89225564Y-52327457D01*
X89225564Y-52327457D02*
X89154136Y-52398885D01*
X89154136Y-52398885D02*
X89082707Y-52541742D01*
X89082707Y-52541742D02*
X89082707Y-52970314D01*
X89082707Y-52970314D02*
X89154136Y-53113171D01*
X89154136Y-53113171D02*
X89225564Y-53184600D01*
X89225564Y-53184600D02*
X89368421Y-53256028D01*
X89368421Y-53256028D02*
X89582707Y-53256028D01*
X87868421Y-53184600D02*
X88011278Y-53256028D01*
X88011278Y-53256028D02*
X88296993Y-53256028D01*
X88296993Y-53256028D02*
X88439850Y-53184600D01*
X88439850Y-53184600D02*
X88511278Y-53041742D01*
X88511278Y-53041742D02*
X88511278Y-52470314D01*
X88511278Y-52470314D02*
X88439850Y-52327457D01*
X88439850Y-52327457D02*
X88296993Y-52256028D01*
X88296993Y-52256028D02*
X88011278Y-52256028D01*
X88011278Y-52256028D02*
X87868421Y-52327457D01*
X87868421Y-52327457D02*
X87796993Y-52470314D01*
X87796993Y-52470314D02*
X87796993Y-52613171D01*
X87796993Y-52613171D02*
X88511278Y-52756028D01*
X87296993Y-52256028D02*
X87011279Y-53256028D01*
X87011279Y-53256028D02*
X86725564Y-52541742D01*
X86725564Y-52541742D02*
X86439850Y-53256028D01*
X86439850Y-53256028D02*
X86154136Y-52256028D01*
X85011278Y-53184600D02*
X85154135Y-53256028D01*
X85154135Y-53256028D02*
X85439850Y-53256028D01*
X85439850Y-53256028D02*
X85582707Y-53184600D01*
X85582707Y-53184600D02*
X85654135Y-53041742D01*
X85654135Y-53041742D02*
X85654135Y-52470314D01*
X85654135Y-52470314D02*
X85582707Y-52327457D01*
X85582707Y-52327457D02*
X85439850Y-52256028D01*
X85439850Y-52256028D02*
X85154135Y-52256028D01*
X85154135Y-52256028D02*
X85011278Y-52327457D01*
X85011278Y-52327457D02*
X84939850Y-52470314D01*
X84939850Y-52470314D02*
X84939850Y-52613171D01*
X84939850Y-52613171D02*
X85654135Y-52756028D01*
X83368421Y-51756028D02*
X82511279Y-51756028D01*
X82939850Y-53256028D02*
X82939850Y-51756028D01*
X82225564Y-51756028D02*
X81725564Y-53256028D01*
X81725564Y-53256028D02*
X81225564Y-51756028D01*
X80796993Y-53184600D02*
X80654136Y-53256028D01*
X80654136Y-53256028D02*
X80368422Y-53256028D01*
X80368422Y-53256028D02*
X80225565Y-53184600D01*
X80225565Y-53184600D02*
X80154136Y-53041742D01*
X80154136Y-53041742D02*
X80154136Y-52970314D01*
X80154136Y-52970314D02*
X80225565Y-52827457D01*
X80225565Y-52827457D02*
X80368422Y-52756028D01*
X80368422Y-52756028D02*
X80582708Y-52756028D01*
X80582708Y-52756028D02*
X80725565Y-52684600D01*
X80725565Y-52684600D02*
X80796993Y-52541742D01*
X80796993Y-52541742D02*
X80796993Y-52470314D01*
X80796993Y-52470314D02*
X80725565Y-52327457D01*
X80725565Y-52327457D02*
X80582708Y-52256028D01*
X80582708Y-52256028D02*
X80368422Y-52256028D01*
X80368422Y-52256028D02*
X80225565Y-52327457D01*
X77368422Y-53398885D02*
X77511279Y-53327457D01*
X77511279Y-53327457D02*
X77654136Y-53184600D01*
X77654136Y-53184600D02*
X77868422Y-52970314D01*
X77868422Y-52970314D02*
X78011279Y-52898885D01*
X78011279Y-52898885D02*
X78154136Y-52898885D01*
X78082707Y-53256028D02*
X78225565Y-53184600D01*
X78225565Y-53184600D02*
X78368422Y-53041742D01*
X78368422Y-53041742D02*
X78439850Y-52756028D01*
X78439850Y-52756028D02*
X78439850Y-52256028D01*
X78439850Y-52256028D02*
X78368422Y-51970314D01*
X78368422Y-51970314D02*
X78225565Y-51827457D01*
X78225565Y-51827457D02*
X78082707Y-51756028D01*
X78082707Y-51756028D02*
X77796993Y-51756028D01*
X77796993Y-51756028D02*
X77654136Y-51827457D01*
X77654136Y-51827457D02*
X77511279Y-51970314D01*
X77511279Y-51970314D02*
X77439850Y-52256028D01*
X77439850Y-52256028D02*
X77439850Y-52756028D01*
X77439850Y-52756028D02*
X77511279Y-53041742D01*
X77511279Y-53041742D02*
X77654136Y-53184600D01*
X77654136Y-53184600D02*
X77796993Y-53256028D01*
X77796993Y-53256028D02*
X78082707Y-53256028D01*
X76868421Y-51898885D02*
X76796993Y-51827457D01*
X76796993Y-51827457D02*
X76654136Y-51756028D01*
X76654136Y-51756028D02*
X76296993Y-51756028D01*
X76296993Y-51756028D02*
X76154136Y-51827457D01*
X76154136Y-51827457D02*
X76082707Y-51898885D01*
X76082707Y-51898885D02*
X76011278Y-52041742D01*
X76011278Y-52041742D02*
X76011278Y-52184600D01*
X76011278Y-52184600D02*
X76082707Y-52398885D01*
X76082707Y-52398885D02*
X76939850Y-53256028D01*
X76939850Y-53256028D02*
X76011278Y-53256028D01*
X75511279Y-51756028D02*
X74582707Y-51756028D01*
X74582707Y-51756028D02*
X75082707Y-52327457D01*
X75082707Y-52327457D02*
X74868422Y-52327457D01*
X74868422Y-52327457D02*
X74725565Y-52398885D01*
X74725565Y-52398885D02*
X74654136Y-52470314D01*
X74654136Y-52470314D02*
X74582707Y-52613171D01*
X74582707Y-52613171D02*
X74582707Y-52970314D01*
X74582707Y-52970314D02*
X74654136Y-53113171D01*
X74654136Y-53113171D02*
X74725565Y-53184600D01*
X74725565Y-53184600D02*
X74868422Y-53256028D01*
X74868422Y-53256028D02*
X75296993Y-53256028D01*
X75296993Y-53256028D02*
X75439850Y-53184600D01*
X75439850Y-53184600D02*
X75511279Y-53113171D01*
X73654136Y-51756028D02*
X73511279Y-51756028D01*
X73511279Y-51756028D02*
X73368422Y-51827457D01*
X73368422Y-51827457D02*
X73296994Y-51898885D01*
X73296994Y-51898885D02*
X73225565Y-52041742D01*
X73225565Y-52041742D02*
X73154136Y-52327457D01*
X73154136Y-52327457D02*
X73154136Y-52684600D01*
X73154136Y-52684600D02*
X73225565Y-52970314D01*
X73225565Y-52970314D02*
X73296994Y-53113171D01*
X73296994Y-53113171D02*
X73368422Y-53184600D01*
X73368422Y-53184600D02*
X73511279Y-53256028D01*
X73511279Y-53256028D02*
X73654136Y-53256028D01*
X73654136Y-53256028D02*
X73796994Y-53184600D01*
X73796994Y-53184600D02*
X73868422Y-53113171D01*
X73868422Y-53113171D02*
X73939851Y-52970314D01*
X73939851Y-52970314D02*
X74011279Y-52684600D01*
X74011279Y-52684600D02*
X74011279Y-52327457D01*
X74011279Y-52327457D02*
X73939851Y-52041742D01*
X73939851Y-52041742D02*
X73868422Y-51898885D01*
X73868422Y-51898885D02*
X73796994Y-51827457D01*
X73796994Y-51827457D02*
X73654136Y-51756028D01*
X72225565Y-51756028D02*
X72082708Y-51756028D01*
X72082708Y-51756028D02*
X71939851Y-51827457D01*
X71939851Y-51827457D02*
X71868423Y-51898885D01*
X71868423Y-51898885D02*
X71796994Y-52041742D01*
X71796994Y-52041742D02*
X71725565Y-52327457D01*
X71725565Y-52327457D02*
X71725565Y-52684600D01*
X71725565Y-52684600D02*
X71796994Y-52970314D01*
X71796994Y-52970314D02*
X71868423Y-53113171D01*
X71868423Y-53113171D02*
X71939851Y-53184600D01*
X71939851Y-53184600D02*
X72082708Y-53256028D01*
X72082708Y-53256028D02*
X72225565Y-53256028D01*
X72225565Y-53256028D02*
X72368423Y-53184600D01*
X72368423Y-53184600D02*
X72439851Y-53113171D01*
X72439851Y-53113171D02*
X72511280Y-52970314D01*
X72511280Y-52970314D02*
X72582708Y-52684600D01*
X72582708Y-52684600D02*
X72582708Y-52327457D01*
X72582708Y-52327457D02*
X72511280Y-52041742D01*
X72511280Y-52041742D02*
X72439851Y-51898885D01*
X72439851Y-51898885D02*
X72368423Y-51827457D01*
X72368423Y-51827457D02*
X72225565Y-51756028D01*
X70154137Y-51756028D02*
X69654137Y-53256028D01*
X69654137Y-53256028D02*
X69154137Y-51756028D01*
X67868423Y-51827457D02*
X68011281Y-51756028D01*
X68011281Y-51756028D02*
X68225566Y-51756028D01*
X68225566Y-51756028D02*
X68439852Y-51827457D01*
X68439852Y-51827457D02*
X68582709Y-51970314D01*
X68582709Y-51970314D02*
X68654138Y-52113171D01*
X68654138Y-52113171D02*
X68725566Y-52398885D01*
X68725566Y-52398885D02*
X68725566Y-52613171D01*
X68725566Y-52613171D02*
X68654138Y-52898885D01*
X68654138Y-52898885D02*
X68582709Y-53041742D01*
X68582709Y-53041742D02*
X68439852Y-53184600D01*
X68439852Y-53184600D02*
X68225566Y-53256028D01*
X68225566Y-53256028D02*
X68082709Y-53256028D01*
X68082709Y-53256028D02*
X67868423Y-53184600D01*
X67868423Y-53184600D02*
X67796995Y-53113171D01*
X67796995Y-53113171D02*
X67796995Y-52613171D01*
X67796995Y-52613171D02*
X68082709Y-52613171D01*
X67225566Y-52827457D02*
X66511281Y-52827457D01*
X67368423Y-53256028D02*
X66868423Y-51756028D01*
X66868423Y-51756028D02*
X66368423Y-53256028D01*
X64725567Y-53256028D02*
X64725567Y-51756028D01*
X64725567Y-51756028D02*
X64225567Y-52827457D01*
X64225567Y-52827457D02*
X63725567Y-51756028D01*
X63725567Y-51756028D02*
X63725567Y-53256028D01*
X62796995Y-53256028D02*
X62939852Y-53184600D01*
X62939852Y-53184600D02*
X63011281Y-53113171D01*
X63011281Y-53113171D02*
X63082709Y-52970314D01*
X63082709Y-52970314D02*
X63082709Y-52541742D01*
X63082709Y-52541742D02*
X63011281Y-52398885D01*
X63011281Y-52398885D02*
X62939852Y-52327457D01*
X62939852Y-52327457D02*
X62796995Y-52256028D01*
X62796995Y-52256028D02*
X62582709Y-52256028D01*
X62582709Y-52256028D02*
X62439852Y-52327457D01*
X62439852Y-52327457D02*
X62368424Y-52398885D01*
X62368424Y-52398885D02*
X62296995Y-52541742D01*
X62296995Y-52541742D02*
X62296995Y-52970314D01*
X62296995Y-52970314D02*
X62368424Y-53113171D01*
X62368424Y-53113171D02*
X62439852Y-53184600D01*
X62439852Y-53184600D02*
X62582709Y-53256028D01*
X62582709Y-53256028D02*
X62796995Y-53256028D01*
X61011281Y-53256028D02*
X61011281Y-51756028D01*
X61011281Y-53184600D02*
X61154138Y-53256028D01*
X61154138Y-53256028D02*
X61439852Y-53256028D01*
X61439852Y-53256028D02*
X61582709Y-53184600D01*
X61582709Y-53184600D02*
X61654138Y-53113171D01*
X61654138Y-53113171D02*
X61725566Y-52970314D01*
X61725566Y-52970314D02*
X61725566Y-52541742D01*
X61725566Y-52541742D02*
X61654138Y-52398885D01*
X61654138Y-52398885D02*
X61582709Y-52327457D01*
X61582709Y-52327457D02*
X61439852Y-52256028D01*
X61439852Y-52256028D02*
X61154138Y-52256028D01*
X61154138Y-52256028D02*
X61011281Y-52327457D01*
X59654138Y-52256028D02*
X59654138Y-53256028D01*
X60296995Y-52256028D02*
X60296995Y-53041742D01*
X60296995Y-53041742D02*
X60225566Y-53184600D01*
X60225566Y-53184600D02*
X60082709Y-53256028D01*
X60082709Y-53256028D02*
X59868423Y-53256028D01*
X59868423Y-53256028D02*
X59725566Y-53184600D01*
X59725566Y-53184600D02*
X59654138Y-53113171D01*
X58725566Y-53256028D02*
X58868423Y-53184600D01*
X58868423Y-53184600D02*
X58939852Y-53041742D01*
X58939852Y-53041742D02*
X58939852Y-51756028D01*
X57582709Y-53184600D02*
X57725566Y-53256028D01*
X57725566Y-53256028D02*
X58011281Y-53256028D01*
X58011281Y-53256028D02*
X58154138Y-53184600D01*
X58154138Y-53184600D02*
X58225566Y-53041742D01*
X58225566Y-53041742D02*
X58225566Y-52470314D01*
X58225566Y-52470314D02*
X58154138Y-52327457D01*
X58154138Y-52327457D02*
X58011281Y-52256028D01*
X58011281Y-52256028D02*
X57725566Y-52256028D01*
X57725566Y-52256028D02*
X57582709Y-52327457D01*
X57582709Y-52327457D02*
X57511281Y-52470314D01*
X57511281Y-52470314D02*
X57511281Y-52613171D01*
X57511281Y-52613171D02*
X58225566Y-52756028D01*
X49654136Y-60056028D02*
X50154136Y-59341742D01*
X50511279Y-60056028D02*
X50511279Y-58556028D01*
X50511279Y-58556028D02*
X49939850Y-58556028D01*
X49939850Y-58556028D02*
X49796993Y-58627457D01*
X49796993Y-58627457D02*
X49725564Y-58698885D01*
X49725564Y-58698885D02*
X49654136Y-58841742D01*
X49654136Y-58841742D02*
X49654136Y-59056028D01*
X49654136Y-59056028D02*
X49725564Y-59198885D01*
X49725564Y-59198885D02*
X49796993Y-59270314D01*
X49796993Y-59270314D02*
X49939850Y-59341742D01*
X49939850Y-59341742D02*
X50511279Y-59341742D01*
X101025564Y-73856028D02*
X100525564Y-75356028D01*
X100525564Y-75356028D02*
X100025564Y-73856028D01*
X98668422Y-75213171D02*
X98739850Y-75284600D01*
X98739850Y-75284600D02*
X98954136Y-75356028D01*
X98954136Y-75356028D02*
X99096993Y-75356028D01*
X99096993Y-75356028D02*
X99311279Y-75284600D01*
X99311279Y-75284600D02*
X99454136Y-75141742D01*
X99454136Y-75141742D02*
X99525565Y-74998885D01*
X99525565Y-74998885D02*
X99596993Y-74713171D01*
X99596993Y-74713171D02*
X99596993Y-74498885D01*
X99596993Y-74498885D02*
X99525565Y-74213171D01*
X99525565Y-74213171D02*
X99454136Y-74070314D01*
X99454136Y-74070314D02*
X99311279Y-73927457D01*
X99311279Y-73927457D02*
X99096993Y-73856028D01*
X99096993Y-73856028D02*
X98954136Y-73856028D01*
X98954136Y-73856028D02*
X98739850Y-73927457D01*
X98739850Y-73927457D02*
X98668422Y-73998885D01*
X97168422Y-75213171D02*
X97239850Y-75284600D01*
X97239850Y-75284600D02*
X97454136Y-75356028D01*
X97454136Y-75356028D02*
X97596993Y-75356028D01*
X97596993Y-75356028D02*
X97811279Y-75284600D01*
X97811279Y-75284600D02*
X97954136Y-75141742D01*
X97954136Y-75141742D02*
X98025565Y-74998885D01*
X98025565Y-74998885D02*
X98096993Y-74713171D01*
X98096993Y-74713171D02*
X98096993Y-74498885D01*
X98096993Y-74498885D02*
X98025565Y-74213171D01*
X98025565Y-74213171D02*
X97954136Y-74070314D01*
X97954136Y-74070314D02*
X97811279Y-73927457D01*
X97811279Y-73927457D02*
X97596993Y-73856028D01*
X97596993Y-73856028D02*
X97454136Y-73856028D01*
X97454136Y-73856028D02*
X97239850Y-73927457D01*
X97239850Y-73927457D02*
X97168422Y-73998885D01*
X100025564Y-66327457D02*
X100168422Y-66256028D01*
X100168422Y-66256028D02*
X100382707Y-66256028D01*
X100382707Y-66256028D02*
X100596993Y-66327457D01*
X100596993Y-66327457D02*
X100739850Y-66470314D01*
X100739850Y-66470314D02*
X100811279Y-66613171D01*
X100811279Y-66613171D02*
X100882707Y-66898885D01*
X100882707Y-66898885D02*
X100882707Y-67113171D01*
X100882707Y-67113171D02*
X100811279Y-67398885D01*
X100811279Y-67398885D02*
X100739850Y-67541742D01*
X100739850Y-67541742D02*
X100596993Y-67684600D01*
X100596993Y-67684600D02*
X100382707Y-67756028D01*
X100382707Y-67756028D02*
X100239850Y-67756028D01*
X100239850Y-67756028D02*
X100025564Y-67684600D01*
X100025564Y-67684600D02*
X99954136Y-67613171D01*
X99954136Y-67613171D02*
X99954136Y-67113171D01*
X99954136Y-67113171D02*
X100239850Y-67113171D01*
X101025564Y-78656028D02*
X100525564Y-80156028D01*
X100525564Y-80156028D02*
X100025564Y-78656028D01*
X46093971Y-72475564D02*
X44593971Y-71975564D01*
X44593971Y-71975564D02*
X46093971Y-71475564D01*
X46022542Y-70189850D02*
X46093971Y-70332708D01*
X46093971Y-70332708D02*
X46093971Y-70546993D01*
X46093971Y-70546993D02*
X46022542Y-70761279D01*
X46022542Y-70761279D02*
X45879685Y-70904136D01*
X45879685Y-70904136D02*
X45736828Y-70975565D01*
X45736828Y-70975565D02*
X45451114Y-71046993D01*
X45451114Y-71046993D02*
X45236828Y-71046993D01*
X45236828Y-71046993D02*
X44951114Y-70975565D01*
X44951114Y-70975565D02*
X44808257Y-70904136D01*
X44808257Y-70904136D02*
X44665400Y-70761279D01*
X44665400Y-70761279D02*
X44593971Y-70546993D01*
X44593971Y-70546993D02*
X44593971Y-70404136D01*
X44593971Y-70404136D02*
X44665400Y-70189850D01*
X44665400Y-70189850D02*
X44736828Y-70118422D01*
X44736828Y-70118422D02*
X45236828Y-70118422D01*
X45236828Y-70118422D02*
X45236828Y-70404136D01*
X45022542Y-69546993D02*
X45022542Y-68832708D01*
X44593971Y-69689850D02*
X46093971Y-69189850D01*
X46093971Y-69189850D02*
X44593971Y-68689850D01*
X49725564Y-63527457D02*
X49868422Y-63456028D01*
X49868422Y-63456028D02*
X50082707Y-63456028D01*
X50082707Y-63456028D02*
X50296993Y-63527457D01*
X50296993Y-63527457D02*
X50439850Y-63670314D01*
X50439850Y-63670314D02*
X50511279Y-63813171D01*
X50511279Y-63813171D02*
X50582707Y-64098885D01*
X50582707Y-64098885D02*
X50582707Y-64313171D01*
X50582707Y-64313171D02*
X50511279Y-64598885D01*
X50511279Y-64598885D02*
X50439850Y-64741742D01*
X50439850Y-64741742D02*
X50296993Y-64884600D01*
X50296993Y-64884600D02*
X50082707Y-64956028D01*
X50082707Y-64956028D02*
X49939850Y-64956028D01*
X49939850Y-64956028D02*
X49725564Y-64884600D01*
X49725564Y-64884600D02*
X49654136Y-64813171D01*
X49654136Y-64813171D02*
X49654136Y-64313171D01*
X49654136Y-64313171D02*
X49939850Y-64313171D01*
X50011279Y-69170314D02*
X49796993Y-69241742D01*
X49796993Y-69241742D02*
X49725564Y-69313171D01*
X49725564Y-69313171D02*
X49654136Y-69456028D01*
X49654136Y-69456028D02*
X49654136Y-69670314D01*
X49654136Y-69670314D02*
X49725564Y-69813171D01*
X49725564Y-69813171D02*
X49796993Y-69884600D01*
X49796993Y-69884600D02*
X49939850Y-69956028D01*
X49939850Y-69956028D02*
X50511279Y-69956028D01*
X50511279Y-69956028D02*
X50511279Y-68456028D01*
X50511279Y-68456028D02*
X50011279Y-68456028D01*
X50011279Y-68456028D02*
X49868422Y-68527457D01*
X49868422Y-68527457D02*
X49796993Y-68598885D01*
X49796993Y-68598885D02*
X49725564Y-68741742D01*
X49725564Y-68741742D02*
X49725564Y-68884600D01*
X49725564Y-68884600D02*
X49796993Y-69027457D01*
X49796993Y-69027457D02*
X49868422Y-69098885D01*
X49868422Y-69098885D02*
X50011279Y-69170314D01*
X50011279Y-69170314D02*
X50511279Y-69170314D01*
X99954136Y-62856028D02*
X100454136Y-62141742D01*
X100811279Y-62856028D02*
X100811279Y-61356028D01*
X100811279Y-61356028D02*
X100239850Y-61356028D01*
X100239850Y-61356028D02*
X100096993Y-61427457D01*
X100096993Y-61427457D02*
X100025564Y-61498885D01*
X100025564Y-61498885D02*
X99954136Y-61641742D01*
X99954136Y-61641742D02*
X99954136Y-61856028D01*
X99954136Y-61856028D02*
X100025564Y-61998885D01*
X100025564Y-61998885D02*
X100096993Y-62070314D01*
X100096993Y-62070314D02*
X100239850Y-62141742D01*
X100239850Y-62141742D02*
X100811279Y-62141742D01*
X50725564Y-78456028D02*
X50225564Y-79956028D01*
X50225564Y-79956028D02*
X49725564Y-78456028D01*
D11*
X92500002Y-55143208D02*
X92500002Y-55952732D01*
X92500002Y-55952732D02*
X92547621Y-56047970D01*
X92547621Y-56047970D02*
X92595240Y-56095589D01*
X92595240Y-56095589D02*
X92690478Y-56143208D01*
X92690478Y-56143208D02*
X92833335Y-56143208D01*
X92833335Y-56143208D02*
X92928573Y-56095589D01*
X92500002Y-55762256D02*
X92595240Y-55809875D01*
X92595240Y-55809875D02*
X92785716Y-55809875D01*
X92785716Y-55809875D02*
X92880954Y-55762256D01*
X92880954Y-55762256D02*
X92928573Y-55714636D01*
X92928573Y-55714636D02*
X92976192Y-55619398D01*
X92976192Y-55619398D02*
X92976192Y-55333684D01*
X92976192Y-55333684D02*
X92928573Y-55238446D01*
X92928573Y-55238446D02*
X92880954Y-55190827D01*
X92880954Y-55190827D02*
X92785716Y-55143208D01*
X92785716Y-55143208D02*
X92595240Y-55143208D01*
X92595240Y-55143208D02*
X92500002Y-55190827D01*
X92023811Y-55809875D02*
X92023811Y-55143208D01*
X92023811Y-54809875D02*
X92071430Y-54857494D01*
X92071430Y-54857494D02*
X92023811Y-54905113D01*
X92023811Y-54905113D02*
X91976192Y-54857494D01*
X91976192Y-54857494D02*
X92023811Y-54809875D01*
X92023811Y-54809875D02*
X92023811Y-54905113D01*
X91690478Y-55143208D02*
X91309526Y-55143208D01*
X91547621Y-54809875D02*
X91547621Y-55667017D01*
X91547621Y-55667017D02*
X91500002Y-55762256D01*
X91500002Y-55762256D02*
X91404764Y-55809875D01*
X91404764Y-55809875D02*
X91309526Y-55809875D01*
X90976192Y-55809875D02*
X90976192Y-54809875D01*
X90547621Y-55809875D02*
X90547621Y-55286065D01*
X90547621Y-55286065D02*
X90595240Y-55190827D01*
X90595240Y-55190827D02*
X90690478Y-55143208D01*
X90690478Y-55143208D02*
X90833335Y-55143208D01*
X90833335Y-55143208D02*
X90928573Y-55190827D01*
X90928573Y-55190827D02*
X90976192Y-55238446D01*
X89642859Y-55143208D02*
X89642859Y-55809875D01*
X90071430Y-55143208D02*
X90071430Y-55667017D01*
X90071430Y-55667017D02*
X90023811Y-55762256D01*
X90023811Y-55762256D02*
X89928573Y-55809875D01*
X89928573Y-55809875D02*
X89785716Y-55809875D01*
X89785716Y-55809875D02*
X89690478Y-55762256D01*
X89690478Y-55762256D02*
X89642859Y-55714636D01*
X89166668Y-55809875D02*
X89166668Y-54809875D01*
X89166668Y-55190827D02*
X89071430Y-55143208D01*
X89071430Y-55143208D02*
X88880954Y-55143208D01*
X88880954Y-55143208D02*
X88785716Y-55190827D01*
X88785716Y-55190827D02*
X88738097Y-55238446D01*
X88738097Y-55238446D02*
X88690478Y-55333684D01*
X88690478Y-55333684D02*
X88690478Y-55619398D01*
X88690478Y-55619398D02*
X88738097Y-55714636D01*
X88738097Y-55714636D02*
X88785716Y-55762256D01*
X88785716Y-55762256D02*
X88880954Y-55809875D01*
X88880954Y-55809875D02*
X89071430Y-55809875D01*
X89071430Y-55809875D02*
X89166668Y-55762256D01*
X88261906Y-55714636D02*
X88214287Y-55762256D01*
X88214287Y-55762256D02*
X88261906Y-55809875D01*
X88261906Y-55809875D02*
X88309525Y-55762256D01*
X88309525Y-55762256D02*
X88261906Y-55714636D01*
X88261906Y-55714636D02*
X88261906Y-55809875D01*
X87357145Y-55762256D02*
X87452383Y-55809875D01*
X87452383Y-55809875D02*
X87642859Y-55809875D01*
X87642859Y-55809875D02*
X87738097Y-55762256D01*
X87738097Y-55762256D02*
X87785716Y-55714636D01*
X87785716Y-55714636D02*
X87833335Y-55619398D01*
X87833335Y-55619398D02*
X87833335Y-55333684D01*
X87833335Y-55333684D02*
X87785716Y-55238446D01*
X87785716Y-55238446D02*
X87738097Y-55190827D01*
X87738097Y-55190827D02*
X87642859Y-55143208D01*
X87642859Y-55143208D02*
X87452383Y-55143208D01*
X87452383Y-55143208D02*
X87357145Y-55190827D01*
X86785716Y-55809875D02*
X86880954Y-55762256D01*
X86880954Y-55762256D02*
X86928573Y-55714636D01*
X86928573Y-55714636D02*
X86976192Y-55619398D01*
X86976192Y-55619398D02*
X86976192Y-55333684D01*
X86976192Y-55333684D02*
X86928573Y-55238446D01*
X86928573Y-55238446D02*
X86880954Y-55190827D01*
X86880954Y-55190827D02*
X86785716Y-55143208D01*
X86785716Y-55143208D02*
X86642859Y-55143208D01*
X86642859Y-55143208D02*
X86547621Y-55190827D01*
X86547621Y-55190827D02*
X86500002Y-55238446D01*
X86500002Y-55238446D02*
X86452383Y-55333684D01*
X86452383Y-55333684D02*
X86452383Y-55619398D01*
X86452383Y-55619398D02*
X86500002Y-55714636D01*
X86500002Y-55714636D02*
X86547621Y-55762256D01*
X86547621Y-55762256D02*
X86642859Y-55809875D01*
X86642859Y-55809875D02*
X86785716Y-55809875D01*
X86023811Y-55809875D02*
X86023811Y-55143208D01*
X86023811Y-55238446D02*
X85976192Y-55190827D01*
X85976192Y-55190827D02*
X85880954Y-55143208D01*
X85880954Y-55143208D02*
X85738097Y-55143208D01*
X85738097Y-55143208D02*
X85642859Y-55190827D01*
X85642859Y-55190827D02*
X85595240Y-55286065D01*
X85595240Y-55286065D02*
X85595240Y-55809875D01*
X85595240Y-55286065D02*
X85547621Y-55190827D01*
X85547621Y-55190827D02*
X85452383Y-55143208D01*
X85452383Y-55143208D02*
X85309526Y-55143208D01*
X85309526Y-55143208D02*
X85214287Y-55190827D01*
X85214287Y-55190827D02*
X85166668Y-55286065D01*
X85166668Y-55286065D02*
X85166668Y-55809875D01*
X83976193Y-54762256D02*
X84833335Y-56047970D01*
X83642859Y-55143208D02*
X83642859Y-56143208D01*
X83642859Y-55190827D02*
X83547621Y-55143208D01*
X83547621Y-55143208D02*
X83357145Y-55143208D01*
X83357145Y-55143208D02*
X83261907Y-55190827D01*
X83261907Y-55190827D02*
X83214288Y-55238446D01*
X83214288Y-55238446D02*
X83166669Y-55333684D01*
X83166669Y-55333684D02*
X83166669Y-55619398D01*
X83166669Y-55619398D02*
X83214288Y-55714636D01*
X83214288Y-55714636D02*
X83261907Y-55762256D01*
X83261907Y-55762256D02*
X83357145Y-55809875D01*
X83357145Y-55809875D02*
X83547621Y-55809875D01*
X83547621Y-55809875D02*
X83642859Y-55762256D01*
X82738097Y-55809875D02*
X82738097Y-55143208D01*
X82738097Y-55333684D02*
X82690478Y-55238446D01*
X82690478Y-55238446D02*
X82642859Y-55190827D01*
X82642859Y-55190827D02*
X82547621Y-55143208D01*
X82547621Y-55143208D02*
X82452383Y-55143208D01*
X81976192Y-55809875D02*
X82071430Y-55762256D01*
X82071430Y-55762256D02*
X82119049Y-55714636D01*
X82119049Y-55714636D02*
X82166668Y-55619398D01*
X82166668Y-55619398D02*
X82166668Y-55333684D01*
X82166668Y-55333684D02*
X82119049Y-55238446D01*
X82119049Y-55238446D02*
X82071430Y-55190827D01*
X82071430Y-55190827D02*
X81976192Y-55143208D01*
X81976192Y-55143208D02*
X81833335Y-55143208D01*
X81833335Y-55143208D02*
X81738097Y-55190827D01*
X81738097Y-55190827D02*
X81690478Y-55238446D01*
X81690478Y-55238446D02*
X81642859Y-55333684D01*
X81642859Y-55333684D02*
X81642859Y-55619398D01*
X81642859Y-55619398D02*
X81690478Y-55714636D01*
X81690478Y-55714636D02*
X81738097Y-55762256D01*
X81738097Y-55762256D02*
X81833335Y-55809875D01*
X81833335Y-55809875D02*
X81976192Y-55809875D01*
X81214287Y-55809875D02*
X81214287Y-54809875D01*
X81214287Y-55190827D02*
X81119049Y-55143208D01*
X81119049Y-55143208D02*
X80928573Y-55143208D01*
X80928573Y-55143208D02*
X80833335Y-55190827D01*
X80833335Y-55190827D02*
X80785716Y-55238446D01*
X80785716Y-55238446D02*
X80738097Y-55333684D01*
X80738097Y-55333684D02*
X80738097Y-55619398D01*
X80738097Y-55619398D02*
X80785716Y-55714636D01*
X80785716Y-55714636D02*
X80833335Y-55762256D01*
X80833335Y-55762256D02*
X80928573Y-55809875D01*
X80928573Y-55809875D02*
X81119049Y-55809875D01*
X81119049Y-55809875D02*
X81214287Y-55762256D01*
X80166668Y-55809875D02*
X80261906Y-55762256D01*
X80261906Y-55762256D02*
X80309525Y-55714636D01*
X80309525Y-55714636D02*
X80357144Y-55619398D01*
X80357144Y-55619398D02*
X80357144Y-55333684D01*
X80357144Y-55333684D02*
X80309525Y-55238446D01*
X80309525Y-55238446D02*
X80261906Y-55190827D01*
X80261906Y-55190827D02*
X80166668Y-55143208D01*
X80166668Y-55143208D02*
X80023811Y-55143208D01*
X80023811Y-55143208D02*
X79928573Y-55190827D01*
X79928573Y-55190827D02*
X79880954Y-55238446D01*
X79880954Y-55238446D02*
X79833335Y-55333684D01*
X79833335Y-55333684D02*
X79833335Y-55619398D01*
X79833335Y-55619398D02*
X79880954Y-55714636D01*
X79880954Y-55714636D02*
X79928573Y-55762256D01*
X79928573Y-55762256D02*
X80023811Y-55809875D01*
X80023811Y-55809875D02*
X80166668Y-55809875D01*
X79547620Y-55143208D02*
X79166668Y-55143208D01*
X79404763Y-54809875D02*
X79404763Y-55667017D01*
X79404763Y-55667017D02*
X79357144Y-55762256D01*
X79357144Y-55762256D02*
X79261906Y-55809875D01*
X79261906Y-55809875D02*
X79166668Y-55809875D01*
X78452382Y-55762256D02*
X78547620Y-55809875D01*
X78547620Y-55809875D02*
X78738096Y-55809875D01*
X78738096Y-55809875D02*
X78833334Y-55762256D01*
X78833334Y-55762256D02*
X78880953Y-55667017D01*
X78880953Y-55667017D02*
X78880953Y-55286065D01*
X78880953Y-55286065D02*
X78833334Y-55190827D01*
X78833334Y-55190827D02*
X78738096Y-55143208D01*
X78738096Y-55143208D02*
X78547620Y-55143208D01*
X78547620Y-55143208D02*
X78452382Y-55190827D01*
X78452382Y-55190827D02*
X78404763Y-55286065D01*
X78404763Y-55286065D02*
X78404763Y-55381303D01*
X78404763Y-55381303D02*
X78880953Y-55476541D01*
X77976191Y-55809875D02*
X77976191Y-55143208D01*
X77976191Y-55333684D02*
X77928572Y-55238446D01*
X77928572Y-55238446D02*
X77880953Y-55190827D01*
X77880953Y-55190827D02*
X77785715Y-55143208D01*
X77785715Y-55143208D02*
X77690477Y-55143208D01*
X77357143Y-55809875D02*
X77357143Y-55143208D01*
X77357143Y-55333684D02*
X77309524Y-55238446D01*
X77309524Y-55238446D02*
X77261905Y-55190827D01*
X77261905Y-55190827D02*
X77166667Y-55143208D01*
X77166667Y-55143208D02*
X77071429Y-55143208D01*
X76595238Y-55809875D02*
X76690476Y-55762256D01*
X76690476Y-55762256D02*
X76738095Y-55714636D01*
X76738095Y-55714636D02*
X76785714Y-55619398D01*
X76785714Y-55619398D02*
X76785714Y-55333684D01*
X76785714Y-55333684D02*
X76738095Y-55238446D01*
X76738095Y-55238446D02*
X76690476Y-55190827D01*
X76690476Y-55190827D02*
X76595238Y-55143208D01*
X76595238Y-55143208D02*
X76452381Y-55143208D01*
X76452381Y-55143208D02*
X76357143Y-55190827D01*
X76357143Y-55190827D02*
X76309524Y-55238446D01*
X76309524Y-55238446D02*
X76261905Y-55333684D01*
X76261905Y-55333684D02*
X76261905Y-55619398D01*
X76261905Y-55619398D02*
X76309524Y-55714636D01*
X76309524Y-55714636D02*
X76357143Y-55762256D01*
X76357143Y-55762256D02*
X76452381Y-55809875D01*
X76452381Y-55809875D02*
X76595238Y-55809875D01*
X75833333Y-55809875D02*
X75833333Y-55143208D01*
X75833333Y-55333684D02*
X75785714Y-55238446D01*
X75785714Y-55238446D02*
X75738095Y-55190827D01*
X75738095Y-55190827D02*
X75642857Y-55143208D01*
X75642857Y-55143208D02*
X75547619Y-55143208D01*
X74500000Y-54762256D02*
X75357142Y-56047970D01*
X73690476Y-55809875D02*
X74166666Y-55809875D01*
X74166666Y-55809875D02*
X74166666Y-54809875D01*
X73214285Y-55809875D02*
X73309523Y-55762256D01*
X73309523Y-55762256D02*
X73357142Y-55714636D01*
X73357142Y-55714636D02*
X73404761Y-55619398D01*
X73404761Y-55619398D02*
X73404761Y-55333684D01*
X73404761Y-55333684D02*
X73357142Y-55238446D01*
X73357142Y-55238446D02*
X73309523Y-55190827D01*
X73309523Y-55190827D02*
X73214285Y-55143208D01*
X73214285Y-55143208D02*
X73071428Y-55143208D01*
X73071428Y-55143208D02*
X72976190Y-55190827D01*
X72976190Y-55190827D02*
X72928571Y-55238446D01*
X72928571Y-55238446D02*
X72880952Y-55333684D01*
X72880952Y-55333684D02*
X72880952Y-55619398D01*
X72880952Y-55619398D02*
X72928571Y-55714636D01*
X72928571Y-55714636D02*
X72976190Y-55762256D01*
X72976190Y-55762256D02*
X73071428Y-55809875D01*
X73071428Y-55809875D02*
X73214285Y-55809875D01*
X72071428Y-55762256D02*
X72166666Y-55809875D01*
X72166666Y-55809875D02*
X72357142Y-55809875D01*
X72357142Y-55809875D02*
X72452380Y-55762256D01*
X72452380Y-55762256D02*
X72499999Y-55667017D01*
X72499999Y-55667017D02*
X72499999Y-55286065D01*
X72499999Y-55286065D02*
X72452380Y-55190827D01*
X72452380Y-55190827D02*
X72357142Y-55143208D01*
X72357142Y-55143208D02*
X72166666Y-55143208D01*
X72166666Y-55143208D02*
X72071428Y-55190827D01*
X72071428Y-55190827D02*
X72023809Y-55286065D01*
X72023809Y-55286065D02*
X72023809Y-55381303D01*
X72023809Y-55381303D02*
X72499999Y-55476541D01*
X71690475Y-55143208D02*
X71499999Y-55809875D01*
X71499999Y-55809875D02*
X71309523Y-55333684D01*
X71309523Y-55333684D02*
X71119047Y-55809875D01*
X71119047Y-55809875D02*
X70928571Y-55143208D01*
X70166666Y-55762256D02*
X70261904Y-55809875D01*
X70261904Y-55809875D02*
X70452380Y-55809875D01*
X70452380Y-55809875D02*
X70547618Y-55762256D01*
X70547618Y-55762256D02*
X70595237Y-55667017D01*
X70595237Y-55667017D02*
X70595237Y-55286065D01*
X70595237Y-55286065D02*
X70547618Y-55190827D01*
X70547618Y-55190827D02*
X70452380Y-55143208D01*
X70452380Y-55143208D02*
X70261904Y-55143208D01*
X70261904Y-55143208D02*
X70166666Y-55190827D01*
X70166666Y-55190827D02*
X70119047Y-55286065D01*
X70119047Y-55286065D02*
X70119047Y-55381303D01*
X70119047Y-55381303D02*
X70595237Y-55476541D01*
X69928571Y-55905113D02*
X69166666Y-55905113D01*
X69071427Y-54809875D02*
X68738094Y-55809875D01*
X68738094Y-55809875D02*
X68404761Y-54809875D01*
X67547618Y-54857494D02*
X67642856Y-54809875D01*
X67642856Y-54809875D02*
X67785713Y-54809875D01*
X67785713Y-54809875D02*
X67928570Y-54857494D01*
X67928570Y-54857494D02*
X68023808Y-54952732D01*
X68023808Y-54952732D02*
X68071427Y-55047970D01*
X68071427Y-55047970D02*
X68119046Y-55238446D01*
X68119046Y-55238446D02*
X68119046Y-55381303D01*
X68119046Y-55381303D02*
X68071427Y-55571779D01*
X68071427Y-55571779D02*
X68023808Y-55667017D01*
X68023808Y-55667017D02*
X67928570Y-55762256D01*
X67928570Y-55762256D02*
X67785713Y-55809875D01*
X67785713Y-55809875D02*
X67690475Y-55809875D01*
X67690475Y-55809875D02*
X67547618Y-55762256D01*
X67547618Y-55762256D02*
X67499999Y-55714636D01*
X67499999Y-55714636D02*
X67499999Y-55381303D01*
X67499999Y-55381303D02*
X67690475Y-55381303D01*
X67119046Y-55524160D02*
X66642856Y-55524160D01*
X67214284Y-55809875D02*
X66880951Y-54809875D01*
X66880951Y-54809875D02*
X66547618Y-55809875D01*
X66452380Y-55905113D02*
X65690475Y-55905113D01*
X65452379Y-55809875D02*
X65452379Y-54809875D01*
X65452379Y-54809875D02*
X65119046Y-55524160D01*
X65119046Y-55524160D02*
X64785713Y-54809875D01*
X64785713Y-54809875D02*
X64785713Y-55809875D01*
X64166665Y-55809875D02*
X64261903Y-55762256D01*
X64261903Y-55762256D02*
X64309522Y-55714636D01*
X64309522Y-55714636D02*
X64357141Y-55619398D01*
X64357141Y-55619398D02*
X64357141Y-55333684D01*
X64357141Y-55333684D02*
X64309522Y-55238446D01*
X64309522Y-55238446D02*
X64261903Y-55190827D01*
X64261903Y-55190827D02*
X64166665Y-55143208D01*
X64166665Y-55143208D02*
X64023808Y-55143208D01*
X64023808Y-55143208D02*
X63928570Y-55190827D01*
X63928570Y-55190827D02*
X63880951Y-55238446D01*
X63880951Y-55238446D02*
X63833332Y-55333684D01*
X63833332Y-55333684D02*
X63833332Y-55619398D01*
X63833332Y-55619398D02*
X63880951Y-55714636D01*
X63880951Y-55714636D02*
X63928570Y-55762256D01*
X63928570Y-55762256D02*
X64023808Y-55809875D01*
X64023808Y-55809875D02*
X64166665Y-55809875D01*
X62976189Y-55809875D02*
X62976189Y-54809875D01*
X62976189Y-55762256D02*
X63071427Y-55809875D01*
X63071427Y-55809875D02*
X63261903Y-55809875D01*
X63261903Y-55809875D02*
X63357141Y-55762256D01*
X63357141Y-55762256D02*
X63404760Y-55714636D01*
X63404760Y-55714636D02*
X63452379Y-55619398D01*
X63452379Y-55619398D02*
X63452379Y-55333684D01*
X63452379Y-55333684D02*
X63404760Y-55238446D01*
X63404760Y-55238446D02*
X63357141Y-55190827D01*
X63357141Y-55190827D02*
X63261903Y-55143208D01*
X63261903Y-55143208D02*
X63071427Y-55143208D01*
X63071427Y-55143208D02*
X62976189Y-55190827D01*
X62071427Y-55143208D02*
X62071427Y-55809875D01*
X62499998Y-55143208D02*
X62499998Y-55667017D01*
X62499998Y-55667017D02*
X62452379Y-55762256D01*
X62452379Y-55762256D02*
X62357141Y-55809875D01*
X62357141Y-55809875D02*
X62214284Y-55809875D01*
X62214284Y-55809875D02*
X62119046Y-55762256D01*
X62119046Y-55762256D02*
X62071427Y-55714636D01*
X61452379Y-55809875D02*
X61547617Y-55762256D01*
X61547617Y-55762256D02*
X61595236Y-55667017D01*
X61595236Y-55667017D02*
X61595236Y-54809875D01*
X60690474Y-55762256D02*
X60785712Y-55809875D01*
X60785712Y-55809875D02*
X60976188Y-55809875D01*
X60976188Y-55809875D02*
X61071426Y-55762256D01*
X61071426Y-55762256D02*
X61119045Y-55667017D01*
X61119045Y-55667017D02*
X61119045Y-55286065D01*
X61119045Y-55286065D02*
X61071426Y-55190827D01*
X61071426Y-55190827D02*
X60976188Y-55143208D01*
X60976188Y-55143208D02*
X60785712Y-55143208D01*
X60785712Y-55143208D02*
X60690474Y-55190827D01*
X60690474Y-55190827D02*
X60642855Y-55286065D01*
X60642855Y-55286065D02*
X60642855Y-55381303D01*
X60642855Y-55381303D02*
X61119045Y-55476541D01*
X60452379Y-55905113D02*
X59690474Y-55905113D01*
X58785712Y-55905113D02*
X58880950Y-55857494D01*
X58880950Y-55857494D02*
X58976188Y-55762256D01*
X58976188Y-55762256D02*
X59119045Y-55619398D01*
X59119045Y-55619398D02*
X59214283Y-55571779D01*
X59214283Y-55571779D02*
X59309521Y-55571779D01*
X59261902Y-55809875D02*
X59357140Y-55762256D01*
X59357140Y-55762256D02*
X59452378Y-55667017D01*
X59452378Y-55667017D02*
X59499997Y-55476541D01*
X59499997Y-55476541D02*
X59499997Y-55143208D01*
X59499997Y-55143208D02*
X59452378Y-54952732D01*
X59452378Y-54952732D02*
X59357140Y-54857494D01*
X59357140Y-54857494D02*
X59261902Y-54809875D01*
X59261902Y-54809875D02*
X59071426Y-54809875D01*
X59071426Y-54809875D02*
X58976188Y-54857494D01*
X58976188Y-54857494D02*
X58880950Y-54952732D01*
X58880950Y-54952732D02*
X58833331Y-55143208D01*
X58833331Y-55143208D02*
X58833331Y-55476541D01*
X58833331Y-55476541D02*
X58880950Y-55667017D01*
X58880950Y-55667017D02*
X58976188Y-55762256D01*
X58976188Y-55762256D02*
X59071426Y-55809875D01*
X59071426Y-55809875D02*
X59261902Y-55809875D01*
X58452378Y-54905113D02*
X58404759Y-54857494D01*
X58404759Y-54857494D02*
X58309521Y-54809875D01*
X58309521Y-54809875D02*
X58071426Y-54809875D01*
X58071426Y-54809875D02*
X57976188Y-54857494D01*
X57976188Y-54857494D02*
X57928569Y-54905113D01*
X57928569Y-54905113D02*
X57880950Y-55000351D01*
X57880950Y-55000351D02*
X57880950Y-55095589D01*
X57880950Y-55095589D02*
X57928569Y-55238446D01*
X57928569Y-55238446D02*
X58499997Y-55809875D01*
X58499997Y-55809875D02*
X57880950Y-55809875D01*
X57547616Y-54809875D02*
X56928569Y-54809875D01*
X56928569Y-54809875D02*
X57261902Y-55190827D01*
X57261902Y-55190827D02*
X57119045Y-55190827D01*
X57119045Y-55190827D02*
X57023807Y-55238446D01*
X57023807Y-55238446D02*
X56976188Y-55286065D01*
X56976188Y-55286065D02*
X56928569Y-55381303D01*
X56928569Y-55381303D02*
X56928569Y-55619398D01*
X56928569Y-55619398D02*
X56976188Y-55714636D01*
X56976188Y-55714636D02*
X57023807Y-55762256D01*
X57023807Y-55762256D02*
X57119045Y-55809875D01*
X57119045Y-55809875D02*
X57404759Y-55809875D01*
X57404759Y-55809875D02*
X57499997Y-55762256D01*
X57499997Y-55762256D02*
X57547616Y-55714636D01*
X56309521Y-54809875D02*
X56214283Y-54809875D01*
X56214283Y-54809875D02*
X56119045Y-54857494D01*
X56119045Y-54857494D02*
X56071426Y-54905113D01*
X56071426Y-54905113D02*
X56023807Y-55000351D01*
X56023807Y-55000351D02*
X55976188Y-55190827D01*
X55976188Y-55190827D02*
X55976188Y-55428922D01*
X55976188Y-55428922D02*
X56023807Y-55619398D01*
X56023807Y-55619398D02*
X56071426Y-55714636D01*
X56071426Y-55714636D02*
X56119045Y-55762256D01*
X56119045Y-55762256D02*
X56214283Y-55809875D01*
X56214283Y-55809875D02*
X56309521Y-55809875D01*
X56309521Y-55809875D02*
X56404759Y-55762256D01*
X56404759Y-55762256D02*
X56452378Y-55714636D01*
X56452378Y-55714636D02*
X56499997Y-55619398D01*
X56499997Y-55619398D02*
X56547616Y-55428922D01*
X56547616Y-55428922D02*
X56547616Y-55190827D01*
X56547616Y-55190827D02*
X56499997Y-55000351D01*
X56499997Y-55000351D02*
X56452378Y-54905113D01*
X56452378Y-54905113D02*
X56404759Y-54857494D01*
X56404759Y-54857494D02*
X56309521Y-54809875D01*
X55357140Y-54809875D02*
X55261902Y-54809875D01*
X55261902Y-54809875D02*
X55166664Y-54857494D01*
X55166664Y-54857494D02*
X55119045Y-54905113D01*
X55119045Y-54905113D02*
X55071426Y-55000351D01*
X55071426Y-55000351D02*
X55023807Y-55190827D01*
X55023807Y-55190827D02*
X55023807Y-55428922D01*
X55023807Y-55428922D02*
X55071426Y-55619398D01*
X55071426Y-55619398D02*
X55119045Y-55714636D01*
X55119045Y-55714636D02*
X55166664Y-55762256D01*
X55166664Y-55762256D02*
X55261902Y-55809875D01*
X55261902Y-55809875D02*
X55357140Y-55809875D01*
X55357140Y-55809875D02*
X55452378Y-55762256D01*
X55452378Y-55762256D02*
X55499997Y-55714636D01*
X55499997Y-55714636D02*
X55547616Y-55619398D01*
X55547616Y-55619398D02*
X55595235Y-55428922D01*
X55595235Y-55428922D02*
X55595235Y-55190827D01*
X55595235Y-55190827D02*
X55547616Y-55000351D01*
X55547616Y-55000351D02*
X55499997Y-54905113D01*
X55499997Y-54905113D02*
X55452378Y-54857494D01*
X55452378Y-54857494D02*
X55357140Y-54809875D01*
X79023809Y-56753152D02*
X78642857Y-56753152D01*
X78880952Y-56419819D02*
X78880952Y-57276961D01*
X78880952Y-57276961D02*
X78833333Y-57372200D01*
X78833333Y-57372200D02*
X78738095Y-57419819D01*
X78738095Y-57419819D02*
X78642857Y-57419819D01*
X78309523Y-57324580D02*
X78261904Y-57372200D01*
X78261904Y-57372200D02*
X78309523Y-57419819D01*
X78309523Y-57419819D02*
X78357142Y-57372200D01*
X78357142Y-57372200D02*
X78309523Y-57324580D01*
X78309523Y-57324580D02*
X78309523Y-57419819D01*
X77833333Y-57419819D02*
X77833333Y-56753152D01*
X77833333Y-56848390D02*
X77785714Y-56800771D01*
X77785714Y-56800771D02*
X77690476Y-56753152D01*
X77690476Y-56753152D02*
X77547619Y-56753152D01*
X77547619Y-56753152D02*
X77452381Y-56800771D01*
X77452381Y-56800771D02*
X77404762Y-56896009D01*
X77404762Y-56896009D02*
X77404762Y-57419819D01*
X77404762Y-56896009D02*
X77357143Y-56800771D01*
X77357143Y-56800771D02*
X77261905Y-56753152D01*
X77261905Y-56753152D02*
X77119048Y-56753152D01*
X77119048Y-56753152D02*
X77023809Y-56800771D01*
X77023809Y-56800771D02*
X76976190Y-56896009D01*
X76976190Y-56896009D02*
X76976190Y-57419819D01*
X76119048Y-57372200D02*
X76214286Y-57419819D01*
X76214286Y-57419819D02*
X76404762Y-57419819D01*
X76404762Y-57419819D02*
X76500000Y-57372200D01*
X76500000Y-57372200D02*
X76547619Y-57276961D01*
X76547619Y-57276961D02*
X76547619Y-56896009D01*
X76547619Y-56896009D02*
X76500000Y-56800771D01*
X76500000Y-56800771D02*
X76404762Y-56753152D01*
X76404762Y-56753152D02*
X76214286Y-56753152D01*
X76214286Y-56753152D02*
X76119048Y-56800771D01*
X76119048Y-56800771D02*
X76071429Y-56896009D01*
X76071429Y-56896009D02*
X76071429Y-56991247D01*
X76071429Y-56991247D02*
X76547619Y-57086485D01*
X74928572Y-56372200D02*
X75785714Y-57657914D01*
X74166667Y-57419819D02*
X74166667Y-56419819D01*
X74166667Y-57372200D02*
X74261905Y-57419819D01*
X74261905Y-57419819D02*
X74452381Y-57419819D01*
X74452381Y-57419819D02*
X74547619Y-57372200D01*
X74547619Y-57372200D02*
X74595238Y-57324580D01*
X74595238Y-57324580D02*
X74642857Y-57229342D01*
X74642857Y-57229342D02*
X74642857Y-56943628D01*
X74642857Y-56943628D02*
X74595238Y-56848390D01*
X74595238Y-56848390D02*
X74547619Y-56800771D01*
X74547619Y-56800771D02*
X74452381Y-56753152D01*
X74452381Y-56753152D02*
X74261905Y-56753152D01*
X74261905Y-56753152D02*
X74166667Y-56800771D01*
X73690476Y-57419819D02*
X73690476Y-56753152D01*
X73690476Y-56848390D02*
X73642857Y-56800771D01*
X73642857Y-56800771D02*
X73547619Y-56753152D01*
X73547619Y-56753152D02*
X73404762Y-56753152D01*
X73404762Y-56753152D02*
X73309524Y-56800771D01*
X73309524Y-56800771D02*
X73261905Y-56896009D01*
X73261905Y-56896009D02*
X73261905Y-57419819D01*
X73261905Y-56896009D02*
X73214286Y-56800771D01*
X73214286Y-56800771D02*
X73119048Y-56753152D01*
X73119048Y-56753152D02*
X72976191Y-56753152D01*
X72976191Y-56753152D02*
X72880952Y-56800771D01*
X72880952Y-56800771D02*
X72833333Y-56896009D01*
X72833333Y-56896009D02*
X72833333Y-57419819D01*
X71928572Y-56753152D02*
X71928572Y-57562676D01*
X71928572Y-57562676D02*
X71976191Y-57657914D01*
X71976191Y-57657914D02*
X72023810Y-57705533D01*
X72023810Y-57705533D02*
X72119048Y-57753152D01*
X72119048Y-57753152D02*
X72261905Y-57753152D01*
X72261905Y-57753152D02*
X72357143Y-57705533D01*
X71928572Y-57372200D02*
X72023810Y-57419819D01*
X72023810Y-57419819D02*
X72214286Y-57419819D01*
X72214286Y-57419819D02*
X72309524Y-57372200D01*
X72309524Y-57372200D02*
X72357143Y-57324580D01*
X72357143Y-57324580D02*
X72404762Y-57229342D01*
X72404762Y-57229342D02*
X72404762Y-56943628D01*
X72404762Y-56943628D02*
X72357143Y-56848390D01*
X72357143Y-56848390D02*
X72309524Y-56800771D01*
X72309524Y-56800771D02*
X72214286Y-56753152D01*
X72214286Y-56753152D02*
X72023810Y-56753152D01*
X72023810Y-56753152D02*
X71928572Y-56800771D01*
X71690477Y-57515057D02*
X70928572Y-57515057D01*
X70261905Y-57372200D02*
X70357143Y-57419819D01*
X70357143Y-57419819D02*
X70547619Y-57419819D01*
X70547619Y-57419819D02*
X70642857Y-57372200D01*
X70642857Y-57372200D02*
X70690476Y-57324580D01*
X70690476Y-57324580D02*
X70738095Y-57229342D01*
X70738095Y-57229342D02*
X70738095Y-56943628D01*
X70738095Y-56943628D02*
X70690476Y-56848390D01*
X70690476Y-56848390D02*
X70642857Y-56800771D01*
X70642857Y-56800771D02*
X70547619Y-56753152D01*
X70547619Y-56753152D02*
X70357143Y-56753152D01*
X70357143Y-56753152D02*
X70261905Y-56800771D01*
X69833333Y-57419819D02*
X69833333Y-56753152D01*
X69833333Y-56943628D02*
X69785714Y-56848390D01*
X69785714Y-56848390D02*
X69738095Y-56800771D01*
X69738095Y-56800771D02*
X69642857Y-56753152D01*
X69642857Y-56753152D02*
X69547619Y-56753152D01*
X69357142Y-56753152D02*
X68976190Y-56753152D01*
X69214285Y-56419819D02*
X69214285Y-57276961D01*
X69214285Y-57276961D02*
X69166666Y-57372200D01*
X69166666Y-57372200D02*
X69071428Y-57419819D01*
X69071428Y-57419819D02*
X68976190Y-57419819D01*
D10*
X106293971Y-71675564D02*
X106293971Y-70818422D01*
X104793971Y-71246993D02*
X106293971Y-71246993D01*
X106293971Y-70532707D02*
X104793971Y-70032707D01*
X104793971Y-70032707D02*
X106293971Y-69532707D01*
D11*
X56806077Y-92069819D02*
X56472744Y-93069819D01*
X56472744Y-93069819D02*
X56139411Y-92069819D01*
X55806077Y-92974580D02*
X55758458Y-93022200D01*
X55758458Y-93022200D02*
X55806077Y-93069819D01*
X55806077Y-93069819D02*
X55853696Y-93022200D01*
X55853696Y-93022200D02*
X55806077Y-92974580D01*
X55806077Y-92974580D02*
X55806077Y-93069819D01*
X54806078Y-93069819D02*
X55377506Y-93069819D01*
X55091792Y-93069819D02*
X55091792Y-92069819D01*
X55091792Y-92069819D02*
X55187030Y-92212676D01*
X55187030Y-92212676D02*
X55282268Y-92307914D01*
X55282268Y-92307914D02*
X55377506Y-92355533D01*
X54377506Y-92974580D02*
X54329887Y-93022200D01*
X54329887Y-93022200D02*
X54377506Y-93069819D01*
X54377506Y-93069819D02*
X54425125Y-93022200D01*
X54425125Y-93022200D02*
X54377506Y-92974580D01*
X54377506Y-92974580D02*
X54377506Y-93069819D01*
X53710840Y-92069819D02*
X53615602Y-92069819D01*
X53615602Y-92069819D02*
X53520364Y-92117438D01*
X53520364Y-92117438D02*
X53472745Y-92165057D01*
X53472745Y-92165057D02*
X53425126Y-92260295D01*
X53425126Y-92260295D02*
X53377507Y-92450771D01*
X53377507Y-92450771D02*
X53377507Y-92688866D01*
X53377507Y-92688866D02*
X53425126Y-92879342D01*
X53425126Y-92879342D02*
X53472745Y-92974580D01*
X53472745Y-92974580D02*
X53520364Y-93022200D01*
X53520364Y-93022200D02*
X53615602Y-93069819D01*
X53615602Y-93069819D02*
X53710840Y-93069819D01*
X53710840Y-93069819D02*
X53806078Y-93022200D01*
X53806078Y-93022200D02*
X53853697Y-92974580D01*
X53853697Y-92974580D02*
X53901316Y-92879342D01*
X53901316Y-92879342D02*
X53948935Y-92688866D01*
X53948935Y-92688866D02*
X53948935Y-92450771D01*
X53948935Y-92450771D02*
X53901316Y-92260295D01*
X53901316Y-92260295D02*
X53853697Y-92165057D01*
X53853697Y-92165057D02*
X53806078Y-92117438D01*
X53806078Y-92117438D02*
X53710840Y-92069819D01*
X79120357Y-85429580D02*
X79167976Y-85477200D01*
X79167976Y-85477200D02*
X79310833Y-85524819D01*
X79310833Y-85524819D02*
X79406071Y-85524819D01*
X79406071Y-85524819D02*
X79548928Y-85477200D01*
X79548928Y-85477200D02*
X79644166Y-85381961D01*
X79644166Y-85381961D02*
X79691785Y-85286723D01*
X79691785Y-85286723D02*
X79739404Y-85096247D01*
X79739404Y-85096247D02*
X79739404Y-84953390D01*
X79739404Y-84953390D02*
X79691785Y-84762914D01*
X79691785Y-84762914D02*
X79644166Y-84667676D01*
X79644166Y-84667676D02*
X79548928Y-84572438D01*
X79548928Y-84572438D02*
X79406071Y-84524819D01*
X79406071Y-84524819D02*
X79310833Y-84524819D01*
X79310833Y-84524819D02*
X79167976Y-84572438D01*
X79167976Y-84572438D02*
X79120357Y-84620057D01*
X78167976Y-85524819D02*
X78739404Y-85524819D01*
X78453690Y-85524819D02*
X78453690Y-84524819D01*
X78453690Y-84524819D02*
X78548928Y-84667676D01*
X78548928Y-84667676D02*
X78644166Y-84762914D01*
X78644166Y-84762914D02*
X78739404Y-84810533D01*
X77310833Y-84858152D02*
X77310833Y-85524819D01*
X77548928Y-84477200D02*
X77787023Y-85191485D01*
X77787023Y-85191485D02*
X77167976Y-85191485D01*
X79596547Y-88884819D02*
X80167975Y-88884819D01*
X79882261Y-88884819D02*
X79882261Y-87884819D01*
X79882261Y-87884819D02*
X79977499Y-88027676D01*
X79977499Y-88027676D02*
X80072737Y-88122914D01*
X80072737Y-88122914D02*
X80167975Y-88170533D01*
X78977499Y-87884819D02*
X78882261Y-87884819D01*
X78882261Y-87884819D02*
X78787023Y-87932438D01*
X78787023Y-87932438D02*
X78739404Y-87980057D01*
X78739404Y-87980057D02*
X78691785Y-88075295D01*
X78691785Y-88075295D02*
X78644166Y-88265771D01*
X78644166Y-88265771D02*
X78644166Y-88503866D01*
X78644166Y-88503866D02*
X78691785Y-88694342D01*
X78691785Y-88694342D02*
X78739404Y-88789580D01*
X78739404Y-88789580D02*
X78787023Y-88837200D01*
X78787023Y-88837200D02*
X78882261Y-88884819D01*
X78882261Y-88884819D02*
X78977499Y-88884819D01*
X78977499Y-88884819D02*
X79072737Y-88837200D01*
X79072737Y-88837200D02*
X79120356Y-88789580D01*
X79120356Y-88789580D02*
X79167975Y-88694342D01*
X79167975Y-88694342D02*
X79215594Y-88503866D01*
X79215594Y-88503866D02*
X79215594Y-88265771D01*
X79215594Y-88265771D02*
X79167975Y-88075295D01*
X79167975Y-88075295D02*
X79120356Y-87980057D01*
X79120356Y-87980057D02*
X79072737Y-87932438D01*
X79072737Y-87932438D02*
X78977499Y-87884819D01*
X78025118Y-87884819D02*
X77929880Y-87884819D01*
X77929880Y-87884819D02*
X77834642Y-87932438D01*
X77834642Y-87932438D02*
X77787023Y-87980057D01*
X77787023Y-87980057D02*
X77739404Y-88075295D01*
X77739404Y-88075295D02*
X77691785Y-88265771D01*
X77691785Y-88265771D02*
X77691785Y-88503866D01*
X77691785Y-88503866D02*
X77739404Y-88694342D01*
X77739404Y-88694342D02*
X77787023Y-88789580D01*
X77787023Y-88789580D02*
X77834642Y-88837200D01*
X77834642Y-88837200D02*
X77929880Y-88884819D01*
X77929880Y-88884819D02*
X78025118Y-88884819D01*
X78025118Y-88884819D02*
X78120356Y-88837200D01*
X78120356Y-88837200D02*
X78167975Y-88789580D01*
X78167975Y-88789580D02*
X78215594Y-88694342D01*
X78215594Y-88694342D02*
X78263213Y-88503866D01*
X78263213Y-88503866D02*
X78263213Y-88265771D01*
X78263213Y-88265771D02*
X78215594Y-88075295D01*
X78215594Y-88075295D02*
X78167975Y-87980057D01*
X78167975Y-87980057D02*
X78120356Y-87932438D01*
X78120356Y-87932438D02*
X78025118Y-87884819D01*
X77263213Y-88218152D02*
X77263213Y-88884819D01*
X77263213Y-88313390D02*
X77215594Y-88265771D01*
X77215594Y-88265771D02*
X77120356Y-88218152D01*
X77120356Y-88218152D02*
X76977499Y-88218152D01*
X76977499Y-88218152D02*
X76882261Y-88265771D01*
X76882261Y-88265771D02*
X76834642Y-88361009D01*
X76834642Y-88361009D02*
X76834642Y-88884819D01*
D12*
%TO.C,C14*%
X78216248Y-86015000D02*
X78738752Y-86015000D01*
X78216248Y-87485000D02*
X78738752Y-87485000D01*
%TD*%
M02*
