M48
; DRILL file {KiCad 8.0.0} date 2025-11-22T16:21:55+0300
; FORMAT={-:-/ absolute / inch / decimal}
; #@! TF.CreationDate,2025-11-22T16:21:55+03:00
; #@! TF.GenerationSoftware,Kicad,Pcbnew,8.0.0
; #@! TF.FileFunction,Plated,1,2,PTH
FMAT,2
INCH
; #@! TA.AperFunction,Plated,PTH,ViaDrill
T1C0.0118
; #@! TA.AperFunction,Plated,PTH,ComponentDrill
T2C0.0236
; #@! TA.AperFunction,Plated,PTH,ComponentDrill
T3C0.0374
; #@! TA.AperFunction,Plated,PTH,ComponentDrill
T4C0.1260
%
G90
G05
T1
X2.5709Y-3.5295
X2.7402Y-3.502
X2.8228Y-1.8878
X2.8228Y-2.3248
X2.8228Y-2.7461
X2.9366Y-3.372
X2.9843Y-3.5886
X3.0354Y-3.5886
X3.0472Y-2.372
X3.0472Y-2.6437
X3.0472Y-3.0571
X3.1929Y-2.9626
X3.2366Y-3.4587
X3.311Y-3.124
X3.311Y-3.5138
X3.5197Y-2.7815
X3.5276Y-3.2461
X3.5394Y-3.0453
X3.5669Y-2.7815
X3.5709Y-3.5138
X3.5787Y-2.9272
X3.6181Y-2.7815
X3.689Y-3.061
X3.689Y-3.2815
T2
X2.3504Y-2.8524
X2.3583Y-2.002
X2.3622Y-2.4311
X2.4291Y-2.8524
X2.437Y-2.002
X2.4409Y-2.4311
T3
X1.8848Y-2.3205
X1.8848Y-2.4205
X1.8848Y-2.5205
X1.8848Y-2.6205
X1.8848Y-2.7205
X1.8848Y-2.8205
X1.8848Y-2.9205
X1.8848Y-3.0236
X1.8848Y-3.122
X1.8848Y-3.2205
X4.0561Y-2.3425
X4.0561Y-2.4409
X4.0561Y-2.5394
X4.0561Y-2.6425
X4.0561Y-2.7425
X4.0561Y-2.8425
X4.0561Y-2.9425
X4.0561Y-3.0425
X4.0561Y-3.1425
X4.0561Y-3.2425
T4
X1.8937Y-1.9843
X1.8937Y-3.5591
X4.0591Y-1.9843
X4.0591Y-3.5591
M30
