%TF.GenerationSoftware,KiCad,Pcbnew,8.0.0*%
%TF.CreationDate,2025-11-22T16:21:49+03:00*%
%TF.ProjectId,Loewe Q2300 VGA Adapter,4c6f6577-6520-4513-9233-303020564741,rev?*%
%TF.SameCoordinates,Original*%
%TF.FileFunction,Copper,L2,Bot*%
%TF.FilePolarity,Positive*%
%FSLAX46Y46*%
G04 Gerber Fmt 4.6, Leading zero omitted, Abs format (unit mm)*
G04 Created by KiCad (PCBNEW 8.0.0) date 2025-11-22 16:21:49*
%MOMM*%
%LPD*%
G01*
G04 APERTURE LIST*
G04 Aperture macros list*
%AMRoundRect*
0 Rectangle with rounded corners*
0 $1 Rounding radius*
0 $2 $3 $4 $5 $6 $7 $8 $9 X,Y pos of 4 corners*
0 Add a 4 corners polygon primitive as box body*
4,1,4,$2,$3,$4,$5,$6,$7,$8,$9,$2,$3,0*
0 Add four circle primitives for the rounded corners*
1,1,$1+$1,$2,$3*
1,1,$1+$1,$4,$5*
1,1,$1+$1,$6,$7*
1,1,$1+$1,$8,$9*
0 Add four rect primitives between the rounded corners*
20,1,$1+$1,$2,$3,$4,$5,0*
20,1,$1+$1,$4,$5,$6,$7,0*
20,1,$1+$1,$6,$7,$8,$9,0*
20,1,$1+$1,$8,$9,$2,$3,0*%
G04 Aperture macros list end*
%TA.AperFunction,ComponentPad*%
%ADD10R,1.200000X1.200000*%
%TD*%
%TA.AperFunction,ComponentPad*%
%ADD11C,1.200000*%
%TD*%
%TA.AperFunction,ComponentPad*%
%ADD12C,6.400000*%
%TD*%
%TA.AperFunction,ComponentPad*%
%ADD13RoundRect,0.250000X0.725000X-0.600000X0.725000X0.600000X-0.725000X0.600000X-0.725000X-0.600000X0*%
%TD*%
%TA.AperFunction,ComponentPad*%
%ADD14O,1.950000X1.740000*%
%TD*%
%TA.AperFunction,ComponentPad*%
%ADD15O,1.950000X1.780000*%
%TD*%
%TA.AperFunction,ComponentPad*%
%ADD16O,1.950000X1.700000*%
%TD*%
%TA.AperFunction,ComponentPad*%
%ADD17RoundRect,0.250000X-0.725000X0.600000X-0.725000X-0.600000X0.725000X-0.600000X0.725000X0.600000X0*%
%TD*%
%TA.AperFunction,SMDPad,CuDef*%
%ADD18RoundRect,0.250000X0.337500X0.475000X-0.337500X0.475000X-0.337500X-0.475000X0.337500X-0.475000X0*%
%TD*%
%TA.AperFunction,ViaPad*%
%ADD19C,0.600000*%
%TD*%
%TA.AperFunction,Conductor*%
%ADD20C,1.000000*%
%TD*%
%TA.AperFunction,Conductor*%
%ADD21C,0.300000*%
%TD*%
G04 APERTURE END LIST*
D10*
%TO.P,C07,1*%
%TO.N,Net-(C07-Pad1)*%
X61700000Y-72450000D03*
D11*
%TO.P,C07,2*%
%TO.N,/BLUE*%
X59700000Y-72450000D03*
%TD*%
D12*
%TO.P,H1,1*%
%TO.N,N/C*%
X48100000Y-50400000D03*
%TD*%
D13*
%TO.P,W02,1,Pin_1*%
%TO.N,GND*%
X47875000Y-81800000D03*
D14*
%TO.P,W02,2,Pin_2*%
%TO.N,/VSYNC*%
X47875000Y-79300000D03*
D15*
%TO.P,W02,3,Pin_3*%
%TO.N,GND*%
X47875000Y-76800000D03*
D16*
%TO.P,W02,4,Pin_4*%
%TO.N,/HSYNC*%
X47875000Y-74180000D03*
%TO.P,W02,5,Pin_5*%
%TO.N,GND*%
X47875000Y-71640000D03*
%TO.P,W02,6,Pin_6*%
%TO.N,/BLUE*%
X47875000Y-69100000D03*
%TO.P,W02,7,Pin_7*%
%TO.N,GND*%
X47875000Y-66560000D03*
%TO.P,W02,8,Pin_8*%
%TO.N,/GREEN*%
X47875000Y-64020000D03*
%TO.P,W02,9,Pin_9*%
%TO.N,GND*%
X47875000Y-61480000D03*
%TO.P,W02,10,Pin_10*%
%TO.N,/RED*%
X47875000Y-58940000D03*
%TD*%
D17*
%TO.P,W03,1,Pin_1*%
%TO.N,GND*%
X103025000Y-59500000D03*
D14*
%TO.P,W03,2,Pin_2*%
%TO.N,/2R*%
X103025000Y-62000000D03*
D15*
%TO.P,W03,3,Pin_3*%
%TO.N,GND*%
X103025000Y-64500000D03*
D16*
%TO.P,W03,4,Pin_4*%
%TO.N,/2G*%
X103025000Y-67120000D03*
%TO.P,W03,5,Pin_5*%
%TO.N,GND*%
X103025000Y-69660000D03*
%TO.P,W03,6,Pin_6*%
%TO.N,/2B*%
X103025000Y-72200000D03*
%TO.P,W03,7,Pin_7*%
%TO.N,Net-(W03-Pin_7)*%
X103025000Y-74740000D03*
%TO.P,W03,8,Pin_8*%
%TO.N,/SW1*%
X103025000Y-77280000D03*
%TO.P,W03,9,Pin_9*%
%TO.N,/VA*%
X103025000Y-79820000D03*
%TO.P,W03,10,Pin_10*%
%TO.N,/HA*%
X103025000Y-82360000D03*
%TD*%
D10*
%TO.P,C05,1*%
%TO.N,Net-(C05-Pad1)*%
X62000000Y-61750000D03*
D11*
%TO.P,C05,2*%
%TO.N,/GREEN*%
X60000000Y-61750000D03*
%TD*%
D12*
%TO.P,H3,1*%
%TO.N,N/C*%
X48100000Y-90400000D03*
%TD*%
%TO.P,H2,1*%
%TO.N,N/C*%
X103100000Y-50400000D03*
%TD*%
D10*
%TO.P,C03,1*%
%TO.N,Net-(C03-Pad1)*%
X61900000Y-50850000D03*
D11*
%TO.P,C03,2*%
%TO.N,/RED*%
X59900000Y-50850000D03*
%TD*%
D12*
%TO.P,H4,1*%
%TO.N,N/C*%
X103100000Y-90400000D03*
%TD*%
D18*
%TO.P,C14,1*%
%TO.N,VCC*%
X79515000Y-86750000D03*
%TO.P,C14,2*%
%TO.N,GND*%
X77440000Y-86750000D03*
%TD*%
D19*
%TO.N,VCC*%
X84100000Y-89250000D03*
X91900000Y-70650000D03*
X82210000Y-87850000D03*
X90600000Y-70650000D03*
X71700000Y-59050000D03*
X71700000Y-69750000D03*
X89400000Y-70650000D03*
X71700000Y-47950000D03*
%TO.N,GND*%
X89600000Y-82450000D03*
X89900000Y-77350000D03*
X93700000Y-77750000D03*
X75800000Y-91150000D03*
X90900000Y-74350000D03*
X90700000Y-89250000D03*
X81100000Y-75250000D03*
X93700000Y-83350000D03*
X74590000Y-85650000D03*
X65300000Y-89650000D03*
X69600000Y-88950000D03*
%TO.N,Net-(Q10-C)*%
X77100000Y-91150000D03*
X84100000Y-79350000D03*
%TO.N,/SW1*%
X77400000Y-60250000D03*
X77400000Y-67150000D03*
X77400000Y-77650000D03*
%TD*%
D20*
%TO.N,VCC*%
X87700000Y-68550000D02*
X78200000Y-59050000D01*
D21*
X82210000Y-87850000D02*
X81110000Y-86750000D01*
D20*
X87700000Y-70650000D02*
X87700000Y-85650000D01*
X87700000Y-70650000D02*
X87700000Y-68550000D01*
X87700000Y-85650000D02*
X84100000Y-89250000D01*
D21*
X81110000Y-86750000D02*
X79515000Y-86750000D01*
D20*
X91900000Y-70650000D02*
X87700000Y-70650000D01*
X71700000Y-59050000D02*
X71700000Y-47950000D01*
X78200000Y-59050000D02*
X71700000Y-59050000D01*
X71700000Y-59050000D02*
X71700000Y-69750000D01*
D21*
%TO.N,GND*%
X74590000Y-85650000D02*
X75690000Y-86750000D01*
X75690000Y-86750000D02*
X77440000Y-86750000D01*
%TO.N,Net-(Q10-C)*%
X77100000Y-91150000D02*
X80300000Y-91150000D01*
X84100000Y-87350000D02*
X84100000Y-79350000D01*
X80300000Y-91150000D02*
X84100000Y-87350000D01*
%TO.N,/SW1*%
X77400000Y-67150000D02*
X77400000Y-77350000D01*
X77400000Y-67150000D02*
X77400000Y-60250000D01*
X77400000Y-77350000D02*
X77400000Y-77650000D01*
%TD*%
%TA.AperFunction,Conductor*%
%TO.N,GND*%
G36*
X107642539Y-45320185D02*
G01*
X107688294Y-45372989D01*
X107699500Y-45424500D01*
X107699500Y-94975500D01*
X107679815Y-95042539D01*
X107627011Y-95088294D01*
X107575500Y-95099500D01*
X43824500Y-95099500D01*
X43757461Y-95079815D01*
X43711706Y-95027011D01*
X43700500Y-94975500D01*
X43700500Y-90400000D01*
X44394422Y-90400000D01*
X44414722Y-90787339D01*
X44475397Y-91170427D01*
X44475397Y-91170429D01*
X44575788Y-91545094D01*
X44714787Y-91907197D01*
X44890877Y-92252793D01*
X45102122Y-92578082D01*
X45102124Y-92578084D01*
X45346219Y-92879516D01*
X45620484Y-93153781D01*
X45620488Y-93153784D01*
X45921917Y-93397877D01*
X46247206Y-93609122D01*
X46247211Y-93609125D01*
X46592806Y-93785214D01*
X46954913Y-93924214D01*
X47329567Y-94024602D01*
X47712662Y-94085278D01*
X48078576Y-94104455D01*
X48099999Y-94105578D01*
X48100000Y-94105578D01*
X48100001Y-94105578D01*
X48120301Y-94104514D01*
X48487338Y-94085278D01*
X48870433Y-94024602D01*
X49245087Y-93924214D01*
X49607194Y-93785214D01*
X49952789Y-93609125D01*
X50278084Y-93397876D01*
X50579516Y-93153781D01*
X50853781Y-92879516D01*
X51097876Y-92578084D01*
X51309125Y-92252789D01*
X51485214Y-91907194D01*
X51624214Y-91545087D01*
X51724602Y-91170433D01*
X51785278Y-90787338D01*
X51805578Y-90400000D01*
X51785278Y-90012662D01*
X51724602Y-89629567D01*
X51624214Y-89254913D01*
X51485214Y-88892806D01*
X51309125Y-88547211D01*
X51309122Y-88547206D01*
X51097877Y-88221917D01*
X50925902Y-88009546D01*
X50853781Y-87920484D01*
X50579516Y-87646219D01*
X50453699Y-87544334D01*
X50278082Y-87402122D01*
X49952793Y-87190877D01*
X49607197Y-87014787D01*
X49568676Y-87000000D01*
X76352501Y-87000000D01*
X76352501Y-87274986D01*
X76362994Y-87377697D01*
X76418141Y-87544119D01*
X76418143Y-87544124D01*
X76510184Y-87693345D01*
X76634154Y-87817315D01*
X76783375Y-87909356D01*
X76783380Y-87909358D01*
X76949802Y-87964505D01*
X76949809Y-87964506D01*
X77052519Y-87974999D01*
X77189999Y-87974999D01*
X77190000Y-87974998D01*
X77190000Y-87000000D01*
X76352501Y-87000000D01*
X49568676Y-87000000D01*
X49245094Y-86875788D01*
X49245087Y-86875786D01*
X48870433Y-86775398D01*
X48870429Y-86775397D01*
X48870428Y-86775397D01*
X48487339Y-86714722D01*
X48100001Y-86694422D01*
X48099999Y-86694422D01*
X47712660Y-86714722D01*
X47329572Y-86775397D01*
X47329570Y-86775397D01*
X46954905Y-86875788D01*
X46592802Y-87014787D01*
X46247206Y-87190877D01*
X45921917Y-87402122D01*
X45620488Y-87646215D01*
X45620480Y-87646222D01*
X45346222Y-87920480D01*
X45346215Y-87920488D01*
X45102122Y-88221917D01*
X44890877Y-88547206D01*
X44714787Y-88892802D01*
X44575788Y-89254905D01*
X44475397Y-89629570D01*
X44475397Y-89629572D01*
X44414722Y-90012660D01*
X44394422Y-90399999D01*
X44394422Y-90400000D01*
X43700500Y-90400000D01*
X43700500Y-86500000D01*
X76352500Y-86500000D01*
X77190000Y-86500000D01*
X77190000Y-85525000D01*
X77052527Y-85525000D01*
X77052512Y-85525001D01*
X76949802Y-85535494D01*
X76783380Y-85590641D01*
X76783375Y-85590643D01*
X76634154Y-85682684D01*
X76510184Y-85806654D01*
X76418143Y-85955875D01*
X76418141Y-85955880D01*
X76362994Y-86122302D01*
X76362993Y-86122309D01*
X76352500Y-86225013D01*
X76352500Y-86500000D01*
X43700500Y-86500000D01*
X43700500Y-79407866D01*
X46399500Y-79407866D01*
X46433245Y-79620922D01*
X46433246Y-79620926D01*
X46499908Y-79826089D01*
X46597843Y-80018299D01*
X46724641Y-80192821D01*
X46724643Y-80192823D01*
X46853944Y-80322124D01*
X46887429Y-80383447D01*
X46882445Y-80453139D01*
X46840573Y-80509072D01*
X46831360Y-80515343D01*
X46681659Y-80607680D01*
X46681655Y-80607683D01*
X46557684Y-80731654D01*
X46465643Y-80880875D01*
X46465641Y-80880880D01*
X46410494Y-81047302D01*
X46410493Y-81047309D01*
X46400000Y-81150013D01*
X46400000Y-81550000D01*
X47470854Y-81550000D01*
X47432370Y-81616657D01*
X47400000Y-81737465D01*
X47400000Y-81862535D01*
X47432370Y-81983343D01*
X47470854Y-82050000D01*
X46400001Y-82050000D01*
X46400001Y-82449986D01*
X46410494Y-82552697D01*
X46465641Y-82719119D01*
X46465643Y-82719124D01*
X46557684Y-82868345D01*
X46681654Y-82992315D01*
X46830875Y-83084356D01*
X46830880Y-83084358D01*
X46997302Y-83139505D01*
X46997309Y-83139506D01*
X47100019Y-83149999D01*
X47624999Y-83149999D01*
X47625000Y-83149998D01*
X47625000Y-82204145D01*
X47691657Y-82242630D01*
X47812465Y-82275000D01*
X47937535Y-82275000D01*
X48058343Y-82242630D01*
X48125000Y-82204145D01*
X48125000Y-83149999D01*
X48649972Y-83149999D01*
X48649986Y-83149998D01*
X48752697Y-83139505D01*
X48919119Y-83084358D01*
X48919124Y-83084356D01*
X49068345Y-82992315D01*
X49192315Y-82868345D01*
X49284356Y-82719124D01*
X49284358Y-82719119D01*
X49339505Y-82552697D01*
X49339506Y-82552690D01*
X49349999Y-82449986D01*
X49350000Y-82449973D01*
X49350000Y-82050000D01*
X48279146Y-82050000D01*
X48317630Y-81983343D01*
X48350000Y-81862535D01*
X48350000Y-81737465D01*
X48317630Y-81616657D01*
X48279146Y-81550000D01*
X49349999Y-81550000D01*
X49349999Y-81150028D01*
X49349998Y-81150013D01*
X49339505Y-81047302D01*
X49284358Y-80880880D01*
X49284356Y-80880875D01*
X49192315Y-80731654D01*
X49068344Y-80607683D01*
X49068340Y-80607680D01*
X48918639Y-80515343D01*
X48871914Y-80463395D01*
X48860693Y-80394433D01*
X48888536Y-80330351D01*
X48896033Y-80322146D01*
X49025359Y-80192821D01*
X49152157Y-80018299D01*
X49250092Y-79826089D01*
X49316754Y-79620926D01*
X49335312Y-79503757D01*
X49350500Y-79407866D01*
X49350500Y-79192133D01*
X49320144Y-79000478D01*
X49316754Y-78979074D01*
X49250092Y-78773911D01*
X49152157Y-78581701D01*
X49025359Y-78407179D01*
X48872821Y-78254641D01*
X48833378Y-78225984D01*
X48735820Y-78155103D01*
X48693155Y-78099772D01*
X48687176Y-78030159D01*
X48719782Y-77968364D01*
X48735822Y-77954466D01*
X48865520Y-77860236D01*
X49020234Y-77705522D01*
X49020238Y-77705517D01*
X49148831Y-77528522D01*
X49248164Y-77333572D01*
X49315772Y-77125496D01*
X49315772Y-77125493D01*
X49327730Y-77050000D01*
X48279146Y-77050000D01*
X48317630Y-76983343D01*
X48350000Y-76862535D01*
X48350000Y-76737465D01*
X48317630Y-76616657D01*
X48279146Y-76550000D01*
X49327730Y-76550000D01*
X49315772Y-76474506D01*
X49315772Y-76474503D01*
X49248164Y-76266427D01*
X49148831Y-76071477D01*
X49020238Y-75894482D01*
X49020234Y-75894477D01*
X48865522Y-75739765D01*
X48865517Y-75739761D01*
X48688520Y-75611166D01*
X48644052Y-75588508D01*
X48593257Y-75540533D01*
X48576462Y-75472712D01*
X48599000Y-75406578D01*
X48644053Y-75367539D01*
X48707816Y-75335051D01*
X48813299Y-75258414D01*
X48879786Y-75210109D01*
X48879788Y-75210106D01*
X48879792Y-75210104D01*
X49030104Y-75059792D01*
X49030106Y-75059788D01*
X49030109Y-75059786D01*
X49155048Y-74887820D01*
X49155047Y-74887820D01*
X49155051Y-74887816D01*
X49251557Y-74698412D01*
X49317246Y-74496243D01*
X49350500Y-74286287D01*
X49350500Y-74073713D01*
X49317246Y-73863757D01*
X49251557Y-73661588D01*
X49155051Y-73472184D01*
X49155049Y-73472181D01*
X49155048Y-73472179D01*
X49030109Y-73300213D01*
X48879786Y-73149890D01*
X48707817Y-73024949D01*
X48698504Y-73020204D01*
X48647707Y-72972230D01*
X48630912Y-72904409D01*
X48653449Y-72838274D01*
X48698507Y-72799232D01*
X48707558Y-72794620D01*
X48879459Y-72669727D01*
X48879464Y-72669723D01*
X49029723Y-72519464D01*
X49029727Y-72519459D01*
X49080191Y-72450000D01*
X58594785Y-72450000D01*
X58613602Y-72653082D01*
X58669417Y-72849247D01*
X58669422Y-72849260D01*
X58760327Y-73031821D01*
X58883237Y-73194581D01*
X59033958Y-73331980D01*
X59033960Y-73331982D01*
X59133141Y-73393392D01*
X59207363Y-73439348D01*
X59397544Y-73513024D01*
X59598024Y-73550500D01*
X59598026Y-73550500D01*
X59801974Y-73550500D01*
X59801976Y-73550500D01*
X60002456Y-73513024D01*
X60192637Y-73439348D01*
X60366041Y-73331981D01*
X60458017Y-73248133D01*
X60520818Y-73217518D01*
X60590205Y-73225715D01*
X60644146Y-73270125D01*
X60651673Y-73284698D01*
X60651953Y-73284546D01*
X60656206Y-73292335D01*
X60742452Y-73407544D01*
X60742455Y-73407547D01*
X60857664Y-73493793D01*
X60857671Y-73493797D01*
X60992517Y-73544091D01*
X60992516Y-73544091D01*
X60999444Y-73544835D01*
X61052127Y-73550500D01*
X62347872Y-73550499D01*
X62407483Y-73544091D01*
X62542331Y-73493796D01*
X62657546Y-73407546D01*
X62743796Y-73292331D01*
X62794091Y-73157483D01*
X62800500Y-73097873D01*
X62800499Y-71802128D01*
X62794091Y-71742517D01*
X62763950Y-71661706D01*
X62743797Y-71607671D01*
X62743793Y-71607664D01*
X62657547Y-71492455D01*
X62657544Y-71492452D01*
X62542335Y-71406206D01*
X62542328Y-71406202D01*
X62407482Y-71355908D01*
X62407483Y-71355908D01*
X62347883Y-71349501D01*
X62347881Y-71349500D01*
X62347873Y-71349500D01*
X62347864Y-71349500D01*
X61052129Y-71349500D01*
X61052123Y-71349501D01*
X60992516Y-71355908D01*
X60857671Y-71406202D01*
X60857664Y-71406206D01*
X60742455Y-71492452D01*
X60742452Y-71492455D01*
X60656206Y-71607664D01*
X60651953Y-71615454D01*
X60649741Y-71614246D01*
X60615840Y-71659511D01*
X60550370Y-71683913D01*
X60482101Y-71669045D01*
X60458015Y-71651864D01*
X60366041Y-71568019D01*
X60366039Y-71568017D01*
X60192642Y-71460655D01*
X60192635Y-71460651D01*
X60097546Y-71423814D01*
X60002456Y-71386976D01*
X59801976Y-71349500D01*
X59598024Y-71349500D01*
X59397544Y-71386976D01*
X59397541Y-71386976D01*
X59397541Y-71386977D01*
X59207364Y-71460651D01*
X59207357Y-71460655D01*
X59033960Y-71568017D01*
X59033958Y-71568019D01*
X58883237Y-71705418D01*
X58760327Y-71868178D01*
X58669422Y-72050739D01*
X58669417Y-72050752D01*
X58613602Y-72246917D01*
X58594785Y-72449999D01*
X58594785Y-72450000D01*
X49080191Y-72450000D01*
X49154620Y-72347557D01*
X49251095Y-72158217D01*
X49316757Y-71956129D01*
X49316757Y-71956126D01*
X49327231Y-71890000D01*
X48279146Y-71890000D01*
X48317630Y-71823343D01*
X48350000Y-71702535D01*
X48350000Y-71577465D01*
X48317630Y-71456657D01*
X48279146Y-71390000D01*
X49327231Y-71390000D01*
X49316757Y-71323873D01*
X49316757Y-71323870D01*
X49251095Y-71121782D01*
X49154620Y-70932442D01*
X49029727Y-70760540D01*
X49029723Y-70760535D01*
X48879464Y-70610276D01*
X48879459Y-70610272D01*
X48707555Y-70485377D01*
X48698500Y-70480763D01*
X48647706Y-70432788D01*
X48630912Y-70364966D01*
X48653451Y-70298832D01*
X48698508Y-70259793D01*
X48707816Y-70255051D01*
X48816503Y-70176086D01*
X48879786Y-70130109D01*
X48879788Y-70130106D01*
X48879792Y-70130104D01*
X49030104Y-69979792D01*
X49030106Y-69979788D01*
X49030109Y-69979786D01*
X49125461Y-69848543D01*
X70699499Y-69848543D01*
X70737947Y-70041829D01*
X70737950Y-70041839D01*
X70813364Y-70223907D01*
X70813371Y-70223920D01*
X70922860Y-70387781D01*
X70922863Y-70387785D01*
X71062214Y-70527136D01*
X71062218Y-70527139D01*
X71226079Y-70636628D01*
X71226092Y-70636635D01*
X71408160Y-70712049D01*
X71408165Y-70712051D01*
X71408169Y-70712051D01*
X71408170Y-70712052D01*
X71601456Y-70750500D01*
X71601459Y-70750500D01*
X71798543Y-70750500D01*
X71928582Y-70724632D01*
X71991835Y-70712051D01*
X72173914Y-70636632D01*
X72337782Y-70527139D01*
X72477139Y-70387782D01*
X72586632Y-70223914D01*
X72662051Y-70041835D01*
X72695662Y-69872863D01*
X72700500Y-69848543D01*
X72700500Y-60174500D01*
X72720185Y-60107461D01*
X72772989Y-60061706D01*
X72824500Y-60050500D01*
X76478157Y-60050500D01*
X76545196Y-60070185D01*
X76590951Y-60122989D01*
X76601377Y-60188383D01*
X76594435Y-60249996D01*
X76594435Y-60250003D01*
X76614630Y-60429249D01*
X76614631Y-60429254D01*
X76674211Y-60599524D01*
X76730493Y-60689094D01*
X76749500Y-60755067D01*
X76749500Y-66644931D01*
X76730494Y-66710903D01*
X76674211Y-66800477D01*
X76674209Y-66800481D01*
X76614633Y-66970737D01*
X76614630Y-66970750D01*
X76594435Y-67149996D01*
X76594435Y-67150003D01*
X76614630Y-67329249D01*
X76614631Y-67329254D01*
X76674211Y-67499524D01*
X76730493Y-67589094D01*
X76749500Y-67655067D01*
X76749500Y-77144931D01*
X76730494Y-77210903D01*
X76674211Y-77300477D01*
X76674209Y-77300481D01*
X76614633Y-77470737D01*
X76614630Y-77470750D01*
X76594435Y-77649996D01*
X76594435Y-77650003D01*
X76614630Y-77829249D01*
X76614631Y-77829254D01*
X76674211Y-77999523D01*
X76763236Y-78141205D01*
X76770184Y-78152262D01*
X76897738Y-78279816D01*
X77050478Y-78375789D01*
X77219830Y-78435048D01*
X77220745Y-78435368D01*
X77220750Y-78435369D01*
X77399996Y-78455565D01*
X77400000Y-78455565D01*
X77400004Y-78455565D01*
X77579249Y-78435369D01*
X77579252Y-78435368D01*
X77579255Y-78435368D01*
X77749522Y-78375789D01*
X77902262Y-78279816D01*
X78029816Y-78152262D01*
X78125789Y-77999522D01*
X78185368Y-77829255D01*
X78188843Y-77798412D01*
X78205565Y-77650003D01*
X78205565Y-77649996D01*
X78185369Y-77470750D01*
X78185366Y-77470737D01*
X78125790Y-77300481D01*
X78125789Y-77300478D01*
X78089441Y-77242630D01*
X78069506Y-77210903D01*
X78050500Y-77144931D01*
X78050500Y-67655067D01*
X78069507Y-67589094D01*
X78125788Y-67499524D01*
X78147931Y-67436243D01*
X78185368Y-67329255D01*
X78205565Y-67150000D01*
X78197477Y-67078217D01*
X78185369Y-66970750D01*
X78185366Y-66970737D01*
X78125790Y-66800481D01*
X78125789Y-66800478D01*
X78089889Y-66743343D01*
X78069506Y-66710903D01*
X78050500Y-66644931D01*
X78050500Y-60755067D01*
X78069506Y-60689095D01*
X78070837Y-60686977D01*
X78123639Y-60602942D01*
X78175974Y-60556652D01*
X78245027Y-60546004D01*
X78308876Y-60574379D01*
X78316314Y-60581234D01*
X86663181Y-68928101D01*
X86696666Y-68989424D01*
X86699500Y-69015782D01*
X86699500Y-85184218D01*
X86679815Y-85251257D01*
X86663181Y-85271899D01*
X84962181Y-86972899D01*
X84900858Y-87006384D01*
X84831166Y-87001400D01*
X84775233Y-86959528D01*
X84750816Y-86894064D01*
X84750500Y-86885218D01*
X84750500Y-79855067D01*
X84769507Y-79789094D01*
X84825788Y-79699524D01*
X84885368Y-79529254D01*
X84885369Y-79529249D01*
X84905565Y-79350003D01*
X84905565Y-79349996D01*
X84885369Y-79170750D01*
X84885368Y-79170745D01*
X84825788Y-79000476D01*
X84729815Y-78847737D01*
X84602262Y-78720184D01*
X84449523Y-78624211D01*
X84279254Y-78564631D01*
X84279249Y-78564630D01*
X84100004Y-78544435D01*
X84099996Y-78544435D01*
X83920750Y-78564630D01*
X83920745Y-78564631D01*
X83750476Y-78624211D01*
X83597737Y-78720184D01*
X83470184Y-78847737D01*
X83374211Y-79000476D01*
X83314631Y-79170745D01*
X83314630Y-79170750D01*
X83294435Y-79349996D01*
X83294435Y-79350003D01*
X83314630Y-79529249D01*
X83314631Y-79529254D01*
X83374211Y-79699524D01*
X83430493Y-79789094D01*
X83449500Y-79855067D01*
X83449500Y-87029191D01*
X83429815Y-87096230D01*
X83413181Y-87116872D01*
X83081927Y-87448125D01*
X83020604Y-87481610D01*
X82950912Y-87476626D01*
X82894979Y-87434754D01*
X82889260Y-87426428D01*
X82839816Y-87347738D01*
X82712262Y-87220184D01*
X82655599Y-87184580D01*
X82559521Y-87124210D01*
X82389255Y-87064632D01*
X82389246Y-87064630D01*
X82382012Y-87063815D01*
X82317600Y-87036744D01*
X82308223Y-87028277D01*
X81524674Y-86244727D01*
X81524673Y-86244726D01*
X81495170Y-86225013D01*
X81418127Y-86173535D01*
X81299744Y-86124499D01*
X81296807Y-86123914D01*
X81296803Y-86123912D01*
X81296803Y-86123914D01*
X81174071Y-86099500D01*
X81174069Y-86099500D01*
X80674517Y-86099500D01*
X80607478Y-86079815D01*
X80561723Y-86027011D01*
X80556811Y-86014505D01*
X80537314Y-85955666D01*
X80445212Y-85806344D01*
X80321156Y-85682288D01*
X80171834Y-85590186D01*
X80005297Y-85535001D01*
X80005295Y-85535000D01*
X79902510Y-85524500D01*
X79127498Y-85524500D01*
X79127480Y-85524501D01*
X79024703Y-85535000D01*
X79024700Y-85535001D01*
X78858168Y-85590185D01*
X78858163Y-85590187D01*
X78708842Y-85682289D01*
X78584788Y-85806343D01*
X78584783Y-85806349D01*
X78582741Y-85809661D01*
X78580747Y-85811453D01*
X78580307Y-85812011D01*
X78580211Y-85811935D01*
X78530791Y-85856383D01*
X78461828Y-85867602D01*
X78397747Y-85839755D01*
X78371668Y-85809656D01*
X78369819Y-85806659D01*
X78369816Y-85806655D01*
X78245845Y-85682684D01*
X78096624Y-85590643D01*
X78096619Y-85590641D01*
X77930197Y-85535494D01*
X77930190Y-85535493D01*
X77827486Y-85525000D01*
X77690000Y-85525000D01*
X77690000Y-87974999D01*
X77827472Y-87974999D01*
X77827486Y-87974998D01*
X77930197Y-87964505D01*
X78096619Y-87909358D01*
X78096624Y-87909356D01*
X78245845Y-87817315D01*
X78369818Y-87693342D01*
X78371665Y-87690348D01*
X78373469Y-87688724D01*
X78374298Y-87687677D01*
X78374476Y-87687818D01*
X78423610Y-87643621D01*
X78492573Y-87632396D01*
X78556656Y-87660236D01*
X78582743Y-87690341D01*
X78584788Y-87693656D01*
X78708844Y-87817712D01*
X78858166Y-87909814D01*
X79024703Y-87964999D01*
X79127491Y-87975500D01*
X79902508Y-87975499D01*
X79902516Y-87975498D01*
X79902519Y-87975498D01*
X79958802Y-87969748D01*
X80005297Y-87964999D01*
X80171834Y-87909814D01*
X80321156Y-87817712D01*
X80445212Y-87693656D01*
X80537314Y-87544334D01*
X80556811Y-87485493D01*
X80596584Y-87428051D01*
X80661100Y-87401228D01*
X80674517Y-87400500D01*
X80789192Y-87400500D01*
X80856231Y-87420185D01*
X80876873Y-87436819D01*
X81388277Y-87948223D01*
X81421762Y-88009546D01*
X81423815Y-88022012D01*
X81424630Y-88029246D01*
X81424632Y-88029255D01*
X81484210Y-88199521D01*
X81580184Y-88352262D01*
X81707738Y-88479816D01*
X81786417Y-88529253D01*
X81832707Y-88581586D01*
X81843356Y-88650640D01*
X81814981Y-88714488D01*
X81808125Y-88721927D01*
X80066873Y-90463181D01*
X80005550Y-90496666D01*
X79979192Y-90499500D01*
X77605068Y-90499500D01*
X77539096Y-90480494D01*
X77449522Y-90424210D01*
X77449518Y-90424209D01*
X77279262Y-90364633D01*
X77279249Y-90364630D01*
X77100004Y-90344435D01*
X77099996Y-90344435D01*
X76920750Y-90364630D01*
X76920745Y-90364631D01*
X76750476Y-90424211D01*
X76597737Y-90520184D01*
X76470184Y-90647737D01*
X76374211Y-90800476D01*
X76314631Y-90970745D01*
X76314630Y-90970750D01*
X76294435Y-91149996D01*
X76294435Y-91150003D01*
X76314630Y-91329249D01*
X76314631Y-91329254D01*
X76374211Y-91499523D01*
X76470184Y-91652262D01*
X76597738Y-91779816D01*
X76750478Y-91875789D01*
X76840237Y-91907197D01*
X76920745Y-91935368D01*
X76920750Y-91935369D01*
X77099996Y-91955565D01*
X77100000Y-91955565D01*
X77100004Y-91955565D01*
X77279249Y-91935369D01*
X77279251Y-91935368D01*
X77279255Y-91935368D01*
X77279258Y-91935366D01*
X77279262Y-91935366D01*
X77369377Y-91903832D01*
X77449522Y-91875789D01*
X77539096Y-91819505D01*
X77605068Y-91800500D01*
X80364071Y-91800500D01*
X80448615Y-91783682D01*
X80489744Y-91775501D01*
X80608127Y-91726465D01*
X80714669Y-91655277D01*
X81969945Y-90400000D01*
X99394422Y-90400000D01*
X99414722Y-90787339D01*
X99475397Y-91170427D01*
X99475397Y-91170429D01*
X99575788Y-91545094D01*
X99714787Y-91907197D01*
X99890877Y-92252793D01*
X100102122Y-92578082D01*
X100102124Y-92578084D01*
X100346219Y-92879516D01*
X100620484Y-93153781D01*
X100620488Y-93153784D01*
X100921917Y-93397877D01*
X101247206Y-93609122D01*
X101247211Y-93609125D01*
X101592806Y-93785214D01*
X101954913Y-93924214D01*
X102329567Y-94024602D01*
X102712662Y-94085278D01*
X103078576Y-94104455D01*
X103099999Y-94105578D01*
X103100000Y-94105578D01*
X103100001Y-94105578D01*
X103120301Y-94104514D01*
X103487338Y-94085278D01*
X103870433Y-94024602D01*
X104245087Y-93924214D01*
X104607194Y-93785214D01*
X104952789Y-93609125D01*
X105278084Y-93397876D01*
X105579516Y-93153781D01*
X105853781Y-92879516D01*
X106097876Y-92578084D01*
X106309125Y-92252789D01*
X106485214Y-91907194D01*
X106624214Y-91545087D01*
X106724602Y-91170433D01*
X106785278Y-90787338D01*
X106805578Y-90400000D01*
X106785278Y-90012662D01*
X106724602Y-89629567D01*
X106624214Y-89254913D01*
X106485214Y-88892806D01*
X106309125Y-88547211D01*
X106309122Y-88547206D01*
X106097877Y-88221917D01*
X105925902Y-88009546D01*
X105853781Y-87920484D01*
X105579516Y-87646219D01*
X105453699Y-87544334D01*
X105278082Y-87402122D01*
X104952793Y-87190877D01*
X104607197Y-87014787D01*
X104245094Y-86875788D01*
X104245087Y-86875786D01*
X103870433Y-86775398D01*
X103870429Y-86775397D01*
X103870428Y-86775397D01*
X103487339Y-86714722D01*
X103100001Y-86694422D01*
X103099999Y-86694422D01*
X102712660Y-86714722D01*
X102329572Y-86775397D01*
X102329570Y-86775397D01*
X101954905Y-86875788D01*
X101592802Y-87014787D01*
X101247206Y-87190877D01*
X100921917Y-87402122D01*
X100620488Y-87646215D01*
X100620480Y-87646222D01*
X100346222Y-87920480D01*
X100346215Y-87920488D01*
X100102122Y-88221917D01*
X99890877Y-88547206D01*
X99714787Y-88892802D01*
X99575788Y-89254905D01*
X99475397Y-89629570D01*
X99475397Y-89629572D01*
X99414722Y-90012660D01*
X99394422Y-90399999D01*
X99394422Y-90400000D01*
X81969945Y-90400000D01*
X82922505Y-89447440D01*
X82983826Y-89413957D01*
X83053518Y-89418941D01*
X83109451Y-89460813D01*
X83131801Y-89510931D01*
X83137947Y-89541830D01*
X83137949Y-89541836D01*
X83213367Y-89723910D01*
X83213372Y-89723920D01*
X83322860Y-89887780D01*
X83322863Y-89887784D01*
X83462215Y-90027136D01*
X83462219Y-90027139D01*
X83626079Y-90136627D01*
X83626083Y-90136629D01*
X83626086Y-90136631D01*
X83808164Y-90212051D01*
X84001455Y-90250499D01*
X84001458Y-90250500D01*
X84001460Y-90250500D01*
X84198542Y-90250500D01*
X84198543Y-90250499D01*
X84391836Y-90212051D01*
X84573914Y-90136631D01*
X84737781Y-90027139D01*
X88337778Y-86427141D01*
X88337782Y-86427139D01*
X88477139Y-86287782D01*
X88553477Y-86173534D01*
X88586631Y-86123916D01*
X88586635Y-86123907D01*
X88662049Y-85941839D01*
X88662051Y-85941835D01*
X88687986Y-85811453D01*
X88700500Y-85748543D01*
X88700500Y-82466287D01*
X101549500Y-82466287D01*
X101582754Y-82676243D01*
X101596685Y-82719119D01*
X101648444Y-82878414D01*
X101744951Y-83067820D01*
X101869890Y-83239786D01*
X102020213Y-83390109D01*
X102192179Y-83515048D01*
X102192181Y-83515049D01*
X102192184Y-83515051D01*
X102381588Y-83611557D01*
X102583757Y-83677246D01*
X102793713Y-83710500D01*
X102793714Y-83710500D01*
X103256286Y-83710500D01*
X103256287Y-83710500D01*
X103466243Y-83677246D01*
X103668412Y-83611557D01*
X103857816Y-83515051D01*
X103879789Y-83499086D01*
X104029786Y-83390109D01*
X104029788Y-83390106D01*
X104029792Y-83390104D01*
X104180104Y-83239792D01*
X104180106Y-83239788D01*
X104180109Y-83239786D01*
X104305048Y-83067820D01*
X104305047Y-83067820D01*
X104305051Y-83067816D01*
X104401557Y-82878412D01*
X104467246Y-82676243D01*
X104500500Y-82466287D01*
X104500500Y-82253713D01*
X104467246Y-82043757D01*
X104401557Y-81841588D01*
X104305051Y-81652184D01*
X104305049Y-81652181D01*
X104305048Y-81652179D01*
X104180109Y-81480213D01*
X104029786Y-81329890D01*
X103857820Y-81204951D01*
X103857115Y-81204591D01*
X103849054Y-81200485D01*
X103798259Y-81152512D01*
X103781463Y-81084692D01*
X103803999Y-81018556D01*
X103849054Y-80979515D01*
X103857816Y-80975051D01*
X103879789Y-80959086D01*
X104029786Y-80850109D01*
X104029788Y-80850106D01*
X104029792Y-80850104D01*
X104180104Y-80699792D01*
X104180106Y-80699788D01*
X104180109Y-80699786D01*
X104305048Y-80527820D01*
X104305047Y-80527820D01*
X104305051Y-80527816D01*
X104401557Y-80338412D01*
X104467246Y-80136243D01*
X104500500Y-79926287D01*
X104500500Y-79713713D01*
X104467246Y-79503757D01*
X104401557Y-79301588D01*
X104305051Y-79112184D01*
X104305049Y-79112181D01*
X104305048Y-79112179D01*
X104180109Y-78940213D01*
X104029786Y-78789890D01*
X103857820Y-78664951D01*
X103857115Y-78664591D01*
X103849054Y-78660485D01*
X103798259Y-78612512D01*
X103781463Y-78544692D01*
X103803999Y-78478556D01*
X103849054Y-78439515D01*
X103857816Y-78435051D01*
X103939385Y-78375788D01*
X104029786Y-78310109D01*
X104029788Y-78310106D01*
X104029792Y-78310104D01*
X104180104Y-78159792D01*
X104180106Y-78159788D01*
X104180109Y-78159786D01*
X104305048Y-77987820D01*
X104305047Y-77987820D01*
X104305051Y-77987816D01*
X104401557Y-77798412D01*
X104467246Y-77596243D01*
X104500500Y-77386287D01*
X104500500Y-77173713D01*
X104467246Y-76963757D01*
X104401557Y-76761588D01*
X104305051Y-76572184D01*
X104305049Y-76572181D01*
X104305048Y-76572179D01*
X104180109Y-76400213D01*
X104029786Y-76249890D01*
X103857820Y-76124951D01*
X103857115Y-76124591D01*
X103849054Y-76120485D01*
X103798259Y-76072512D01*
X103781463Y-76004692D01*
X103803999Y-75938556D01*
X103849054Y-75899515D01*
X103857816Y-75895051D01*
X103879789Y-75879086D01*
X104029786Y-75770109D01*
X104029788Y-75770106D01*
X104029792Y-75770104D01*
X104180104Y-75619792D01*
X104180106Y-75619788D01*
X104180109Y-75619786D01*
X104305048Y-75447820D01*
X104305047Y-75447820D01*
X104305051Y-75447816D01*
X104401557Y-75258412D01*
X104467246Y-75056243D01*
X104500500Y-74846287D01*
X104500500Y-74633713D01*
X104467246Y-74423757D01*
X104401557Y-74221588D01*
X104305051Y-74032184D01*
X104305049Y-74032181D01*
X104305048Y-74032179D01*
X104180109Y-73860213D01*
X104029786Y-73709890D01*
X103857820Y-73584951D01*
X103857115Y-73584591D01*
X103849054Y-73580485D01*
X103798259Y-73532512D01*
X103781463Y-73464692D01*
X103803999Y-73398556D01*
X103849054Y-73359515D01*
X103857816Y-73355051D01*
X103933295Y-73300213D01*
X104029786Y-73230109D01*
X104029788Y-73230106D01*
X104029792Y-73230104D01*
X104180104Y-73079792D01*
X104180106Y-73079788D01*
X104180109Y-73079786D01*
X104305048Y-72907820D01*
X104305047Y-72907820D01*
X104305051Y-72907816D01*
X104401557Y-72718412D01*
X104467246Y-72516243D01*
X104500500Y-72306287D01*
X104500500Y-72093713D01*
X104467246Y-71883757D01*
X104401557Y-71681588D01*
X104305051Y-71492184D01*
X104305049Y-71492181D01*
X104305048Y-71492179D01*
X104180109Y-71320213D01*
X104029786Y-71169890D01*
X103857817Y-71044949D01*
X103848504Y-71040204D01*
X103797707Y-70992230D01*
X103780912Y-70924409D01*
X103803449Y-70858274D01*
X103848507Y-70819232D01*
X103857558Y-70814620D01*
X104029459Y-70689727D01*
X104029464Y-70689723D01*
X104179723Y-70539464D01*
X104179727Y-70539459D01*
X104304620Y-70367557D01*
X104401095Y-70178217D01*
X104466757Y-69976129D01*
X104466757Y-69976126D01*
X104477231Y-69910000D01*
X103429146Y-69910000D01*
X103467630Y-69843343D01*
X103500000Y-69722535D01*
X103500000Y-69597465D01*
X103467630Y-69476657D01*
X103429146Y-69410000D01*
X104477231Y-69410000D01*
X104466757Y-69343873D01*
X104466757Y-69343870D01*
X104401095Y-69141782D01*
X104304620Y-68952442D01*
X104179727Y-68780540D01*
X104179723Y-68780535D01*
X104029464Y-68630276D01*
X104029459Y-68630272D01*
X103857555Y-68505377D01*
X103848500Y-68500763D01*
X103797706Y-68452788D01*
X103780912Y-68384966D01*
X103803451Y-68318832D01*
X103848508Y-68279793D01*
X103857816Y-68275051D01*
X103937007Y-68217515D01*
X104029786Y-68150109D01*
X104029792Y-68150104D01*
X104103817Y-68076079D01*
X104180104Y-67999792D01*
X104180106Y-67999788D01*
X104180109Y-67999786D01*
X104305048Y-67827820D01*
X104305047Y-67827820D01*
X104305051Y-67827816D01*
X104401557Y-67638412D01*
X104467246Y-67436243D01*
X104500500Y-67226287D01*
X104500500Y-67013713D01*
X104467246Y-66803757D01*
X104401557Y-66601588D01*
X104305051Y-66412184D01*
X104305049Y-66412181D01*
X104305048Y-66412179D01*
X104180109Y-66240213D01*
X104029786Y-66089890D01*
X103857819Y-65964951D01*
X103857818Y-65964950D01*
X103857816Y-65964949D01*
X103794053Y-65932460D01*
X103743257Y-65884485D01*
X103726462Y-65816664D01*
X103749000Y-65750529D01*
X103794054Y-65711490D01*
X103838520Y-65688833D01*
X104015517Y-65560238D01*
X104015522Y-65560234D01*
X104170234Y-65405522D01*
X104170238Y-65405517D01*
X104298831Y-65228522D01*
X104398164Y-65033572D01*
X104465772Y-64825496D01*
X104465772Y-64825493D01*
X104477730Y-64750000D01*
X103429146Y-64750000D01*
X103467630Y-64683343D01*
X103500000Y-64562535D01*
X103500000Y-64437465D01*
X103467630Y-64316657D01*
X103429146Y-64250000D01*
X104477730Y-64250000D01*
X104465772Y-64174506D01*
X104465772Y-64174503D01*
X104398164Y-63966427D01*
X104298831Y-63771477D01*
X104170238Y-63594482D01*
X104170234Y-63594477D01*
X104015522Y-63439765D01*
X104015517Y-63439761D01*
X103885821Y-63345532D01*
X103843155Y-63290203D01*
X103837176Y-63220589D01*
X103869781Y-63158794D01*
X103885820Y-63144896D01*
X104022821Y-63045359D01*
X104175359Y-62892821D01*
X104302157Y-62718299D01*
X104400092Y-62526089D01*
X104466754Y-62320926D01*
X104481752Y-62226230D01*
X104500500Y-62107866D01*
X104500500Y-61892133D01*
X104466754Y-61679077D01*
X104466754Y-61679074D01*
X104400092Y-61473911D01*
X104302157Y-61281701D01*
X104175359Y-61107179D01*
X104046055Y-60977875D01*
X104012570Y-60916552D01*
X104017554Y-60846860D01*
X104059426Y-60790927D01*
X104068639Y-60784655D01*
X104218345Y-60692315D01*
X104342315Y-60568345D01*
X104434356Y-60419124D01*
X104434358Y-60419119D01*
X104489505Y-60252697D01*
X104489506Y-60252690D01*
X104499999Y-60149986D01*
X104500000Y-60149973D01*
X104500000Y-59750000D01*
X103429146Y-59750000D01*
X103467630Y-59683343D01*
X103500000Y-59562535D01*
X103500000Y-59437465D01*
X103467630Y-59316657D01*
X103429146Y-59250000D01*
X104499999Y-59250000D01*
X104499999Y-58850028D01*
X104499998Y-58850013D01*
X104489505Y-58747302D01*
X104434358Y-58580880D01*
X104434356Y-58580875D01*
X104342315Y-58431654D01*
X104218345Y-58307684D01*
X104069124Y-58215643D01*
X104069119Y-58215641D01*
X103902697Y-58160494D01*
X103902690Y-58160493D01*
X103799986Y-58150000D01*
X103275000Y-58150000D01*
X103275000Y-59095854D01*
X103208343Y-59057370D01*
X103087535Y-59025000D01*
X102962465Y-59025000D01*
X102841657Y-59057370D01*
X102775000Y-59095854D01*
X102775000Y-58150000D01*
X102250028Y-58150000D01*
X102250012Y-58150001D01*
X102147302Y-58160494D01*
X101980880Y-58215641D01*
X101980875Y-58215643D01*
X101831654Y-58307684D01*
X101707684Y-58431654D01*
X101615643Y-58580875D01*
X101615641Y-58580880D01*
X101560494Y-58747302D01*
X101560493Y-58747309D01*
X101550000Y-58850013D01*
X101550000Y-59250000D01*
X102620854Y-59250000D01*
X102582370Y-59316657D01*
X102550000Y-59437465D01*
X102550000Y-59562535D01*
X102582370Y-59683343D01*
X102620854Y-59750000D01*
X101550001Y-59750000D01*
X101550001Y-60149986D01*
X101560494Y-60252697D01*
X101615641Y-60419119D01*
X101615643Y-60419124D01*
X101707684Y-60568345D01*
X101831654Y-60692315D01*
X101981360Y-60784655D01*
X102028084Y-60836603D01*
X102039307Y-60905566D01*
X102011463Y-60969648D01*
X102003945Y-60977875D01*
X101874640Y-61107180D01*
X101747843Y-61281700D01*
X101649909Y-61473908D01*
X101583245Y-61679077D01*
X101549500Y-61892133D01*
X101549500Y-62107866D01*
X101583245Y-62320922D01*
X101583246Y-62320926D01*
X101649786Y-62525715D01*
X101649909Y-62526091D01*
X101683658Y-62592328D01*
X101747843Y-62718299D01*
X101874641Y-62892821D01*
X102027179Y-63045359D01*
X102106064Y-63102672D01*
X102164179Y-63144896D01*
X102206844Y-63200227D01*
X102212823Y-63269840D01*
X102180217Y-63331635D01*
X102164178Y-63345532D01*
X102034482Y-63439761D01*
X102034477Y-63439765D01*
X101879765Y-63594477D01*
X101879761Y-63594482D01*
X101751168Y-63771477D01*
X101651835Y-63966427D01*
X101584227Y-64174503D01*
X101584227Y-64174506D01*
X101572270Y-64250000D01*
X102620854Y-64250000D01*
X102582370Y-64316657D01*
X102550000Y-64437465D01*
X102550000Y-64562535D01*
X102582370Y-64683343D01*
X102620854Y-64750000D01*
X101572270Y-64750000D01*
X101584227Y-64825493D01*
X101584227Y-64825496D01*
X101651835Y-65033572D01*
X101751168Y-65228522D01*
X101879761Y-65405517D01*
X101879765Y-65405522D01*
X102034477Y-65560234D01*
X102034482Y-65560238D01*
X102211477Y-65688831D01*
X102255946Y-65711490D01*
X102306742Y-65759465D01*
X102323537Y-65827286D01*
X102301000Y-65893421D01*
X102255947Y-65932459D01*
X102192182Y-65964949D01*
X102020213Y-66089890D01*
X101869890Y-66240213D01*
X101744951Y-66412179D01*
X101648444Y-66601585D01*
X101582753Y-66803760D01*
X101556305Y-66970750D01*
X101549500Y-67013713D01*
X101549500Y-67226287D01*
X101582754Y-67436243D01*
X101632624Y-67589727D01*
X101648444Y-67638414D01*
X101744951Y-67827820D01*
X101869890Y-67999786D01*
X102020213Y-68150109D01*
X102192179Y-68275048D01*
X102192181Y-68275049D01*
X102192184Y-68275051D01*
X102201493Y-68279794D01*
X102252290Y-68327766D01*
X102269087Y-68395587D01*
X102246552Y-68461722D01*
X102201502Y-68500762D01*
X102192443Y-68505378D01*
X102020540Y-68630272D01*
X102020535Y-68630276D01*
X101870276Y-68780535D01*
X101870272Y-68780540D01*
X101745379Y-68952442D01*
X101648904Y-69141782D01*
X101583242Y-69343870D01*
X101583242Y-69343873D01*
X101572769Y-69410000D01*
X102620854Y-69410000D01*
X102582370Y-69476657D01*
X102550000Y-69597465D01*
X102550000Y-69722535D01*
X102582370Y-69843343D01*
X102620854Y-69910000D01*
X101572769Y-69910000D01*
X101583242Y-69976126D01*
X101583242Y-69976129D01*
X101648904Y-70178217D01*
X101745379Y-70367557D01*
X101870272Y-70539459D01*
X101870276Y-70539464D01*
X102020535Y-70689723D01*
X102020540Y-70689727D01*
X102192444Y-70814622D01*
X102201495Y-70819234D01*
X102252292Y-70867208D01*
X102269087Y-70935029D01*
X102246550Y-71001164D01*
X102201499Y-71040202D01*
X102192182Y-71044949D01*
X102020213Y-71169890D01*
X101869890Y-71320213D01*
X101744951Y-71492179D01*
X101648444Y-71681585D01*
X101582753Y-71883760D01*
X101571291Y-71956129D01*
X101549500Y-72093713D01*
X101549500Y-72306287D01*
X101582754Y-72516243D01*
X101632624Y-72669727D01*
X101648444Y-72718414D01*
X101744951Y-72907820D01*
X101869890Y-73079786D01*
X102020213Y-73230109D01*
X102192182Y-73355050D01*
X102200946Y-73359516D01*
X102251742Y-73407491D01*
X102268536Y-73475312D01*
X102245998Y-73541447D01*
X102200946Y-73580484D01*
X102192182Y-73584949D01*
X102020213Y-73709890D01*
X101869890Y-73860213D01*
X101744951Y-74032179D01*
X101648444Y-74221585D01*
X101582753Y-74423760D01*
X101571274Y-74496239D01*
X101549500Y-74633713D01*
X101549500Y-74846287D01*
X101582754Y-75056243D01*
X101632748Y-75210109D01*
X101648444Y-75258414D01*
X101744951Y-75447820D01*
X101869890Y-75619786D01*
X102020213Y-75770109D01*
X102192182Y-75895050D01*
X102200946Y-75899516D01*
X102251742Y-75947491D01*
X102268536Y-76015312D01*
X102245998Y-76081447D01*
X102200946Y-76120484D01*
X102192182Y-76124949D01*
X102020213Y-76249890D01*
X101869890Y-76400213D01*
X101744951Y-76572179D01*
X101648444Y-76761585D01*
X101582753Y-76963760D01*
X101569094Y-77050000D01*
X101549500Y-77173713D01*
X101549500Y-77386287D01*
X101582754Y-77596243D01*
X101618259Y-77705517D01*
X101648444Y-77798414D01*
X101744951Y-77987820D01*
X101869890Y-78159786D01*
X102020213Y-78310109D01*
X102192182Y-78435050D01*
X102200946Y-78439516D01*
X102251742Y-78487491D01*
X102268536Y-78555312D01*
X102245998Y-78621447D01*
X102200946Y-78660484D01*
X102192182Y-78664949D01*
X102020213Y-78789890D01*
X101869890Y-78940213D01*
X101744951Y-79112179D01*
X101648444Y-79301585D01*
X101582753Y-79503760D01*
X101578715Y-79529255D01*
X101549500Y-79713713D01*
X101549500Y-79926287D01*
X101582754Y-80136243D01*
X101643150Y-80322123D01*
X101648444Y-80338414D01*
X101744951Y-80527820D01*
X101869890Y-80699786D01*
X102020213Y-80850109D01*
X102192182Y-80975050D01*
X102200946Y-80979516D01*
X102251742Y-81027491D01*
X102268536Y-81095312D01*
X102245998Y-81161447D01*
X102200946Y-81200484D01*
X102192182Y-81204949D01*
X102020213Y-81329890D01*
X101869890Y-81480213D01*
X101744951Y-81652179D01*
X101648444Y-81841585D01*
X101582753Y-82043760D01*
X101581765Y-82050000D01*
X101549500Y-82253713D01*
X101549500Y-82466287D01*
X88700500Y-82466287D01*
X88700500Y-71774500D01*
X88720185Y-71707461D01*
X88772989Y-71661706D01*
X88824500Y-71650500D01*
X91998543Y-71650500D01*
X92128582Y-71624632D01*
X92191835Y-71612051D01*
X92373914Y-71536632D01*
X92537782Y-71427139D01*
X92677139Y-71287782D01*
X92786632Y-71123914D01*
X92862051Y-70941835D01*
X92887356Y-70814620D01*
X92900500Y-70748543D01*
X92900500Y-70551456D01*
X92862052Y-70358170D01*
X92862051Y-70358169D01*
X92862051Y-70358165D01*
X92837475Y-70298832D01*
X92786635Y-70176092D01*
X92786628Y-70176079D01*
X92677139Y-70012218D01*
X92677136Y-70012214D01*
X92537785Y-69872863D01*
X92537781Y-69872860D01*
X92373920Y-69763371D01*
X92373907Y-69763364D01*
X92191839Y-69687950D01*
X92191829Y-69687947D01*
X91998543Y-69649500D01*
X91998541Y-69649500D01*
X88824500Y-69649500D01*
X88757461Y-69629815D01*
X88711706Y-69577011D01*
X88700500Y-69525500D01*
X88700500Y-68451456D01*
X88700499Y-68451454D01*
X88675896Y-68327766D01*
X88662051Y-68258165D01*
X88652672Y-68235523D01*
X88617291Y-68150104D01*
X88586632Y-68076086D01*
X88586630Y-68076083D01*
X88586628Y-68076079D01*
X88477139Y-67912218D01*
X88477136Y-67912214D01*
X88334686Y-67769764D01*
X88334655Y-67769735D01*
X78981479Y-58416559D01*
X78981459Y-58416537D01*
X78837785Y-58272863D01*
X78837781Y-58272860D01*
X78673920Y-58163371D01*
X78673911Y-58163366D01*
X78590683Y-58128892D01*
X78545165Y-58110038D01*
X78518500Y-58098993D01*
X78491837Y-58087949D01*
X78491833Y-58087947D01*
X78352373Y-58060208D01*
X78298543Y-58049500D01*
X78298541Y-58049500D01*
X72824500Y-58049500D01*
X72757461Y-58029815D01*
X72711706Y-57977011D01*
X72700500Y-57925500D01*
X72700500Y-50400000D01*
X99394422Y-50400000D01*
X99414722Y-50787339D01*
X99475397Y-51170427D01*
X99475397Y-51170429D01*
X99575788Y-51545094D01*
X99714787Y-51907197D01*
X99890877Y-52252793D01*
X100102122Y-52578082D01*
X100102124Y-52578084D01*
X100346219Y-52879516D01*
X100620484Y-53153781D01*
X100620488Y-53153784D01*
X100921917Y-53397877D01*
X101247206Y-53609122D01*
X101247211Y-53609125D01*
X101592806Y-53785214D01*
X101954913Y-53924214D01*
X102329567Y-54024602D01*
X102712662Y-54085278D01*
X103078576Y-54104455D01*
X103099999Y-54105578D01*
X103100000Y-54105578D01*
X103100001Y-54105578D01*
X103120301Y-54104514D01*
X103487338Y-54085278D01*
X103870433Y-54024602D01*
X104245087Y-53924214D01*
X104607194Y-53785214D01*
X104952789Y-53609125D01*
X105278084Y-53397876D01*
X105579516Y-53153781D01*
X105853781Y-52879516D01*
X106097876Y-52578084D01*
X106309125Y-52252789D01*
X106485214Y-51907194D01*
X106624214Y-51545087D01*
X106724602Y-51170433D01*
X106785278Y-50787338D01*
X106805578Y-50400000D01*
X106785278Y-50012662D01*
X106724602Y-49629567D01*
X106624214Y-49254913D01*
X106485214Y-48892806D01*
X106309125Y-48547211D01*
X106097876Y-48221916D01*
X105853781Y-47920484D01*
X105579516Y-47646219D01*
X105369427Y-47476092D01*
X105278082Y-47402122D01*
X104952793Y-47190877D01*
X104607197Y-47014787D01*
X104245094Y-46875788D01*
X104245087Y-46875786D01*
X103870433Y-46775398D01*
X103870429Y-46775397D01*
X103870428Y-46775397D01*
X103487339Y-46714722D01*
X103100001Y-46694422D01*
X103099999Y-46694422D01*
X102712660Y-46714722D01*
X102329572Y-46775397D01*
X102329570Y-46775397D01*
X101954905Y-46875788D01*
X101592802Y-47014787D01*
X101247206Y-47190877D01*
X100921917Y-47402122D01*
X100620488Y-47646215D01*
X100620480Y-47646222D01*
X100346222Y-47920480D01*
X100346215Y-47920488D01*
X100102122Y-48221917D01*
X99890877Y-48547206D01*
X99714787Y-48892802D01*
X99575788Y-49254905D01*
X99475397Y-49629570D01*
X99475397Y-49629572D01*
X99414722Y-50012660D01*
X99394422Y-50399999D01*
X99394422Y-50400000D01*
X72700500Y-50400000D01*
X72700500Y-47851456D01*
X72662052Y-47658170D01*
X72662051Y-47658169D01*
X72662051Y-47658165D01*
X72657101Y-47646215D01*
X72586635Y-47476092D01*
X72586628Y-47476079D01*
X72477139Y-47312218D01*
X72477136Y-47312214D01*
X72337785Y-47172863D01*
X72337781Y-47172860D01*
X72173920Y-47063371D01*
X72173907Y-47063364D01*
X71991839Y-46987950D01*
X71991829Y-46987947D01*
X71798543Y-46949500D01*
X71798541Y-46949500D01*
X71601459Y-46949500D01*
X71601457Y-46949500D01*
X71408170Y-46987947D01*
X71408160Y-46987950D01*
X71226092Y-47063364D01*
X71226079Y-47063371D01*
X71062218Y-47172860D01*
X71062214Y-47172863D01*
X70922863Y-47312214D01*
X70922860Y-47312218D01*
X70813371Y-47476079D01*
X70813364Y-47476092D01*
X70737950Y-47658160D01*
X70737947Y-47658170D01*
X70699500Y-47851456D01*
X70699500Y-47851459D01*
X70699500Y-58951459D01*
X70699500Y-69848541D01*
X70699500Y-69848543D01*
X70699499Y-69848543D01*
X49125461Y-69848543D01*
X49155048Y-69807820D01*
X49155047Y-69807820D01*
X49155051Y-69807816D01*
X49251557Y-69618412D01*
X49317246Y-69416243D01*
X49350500Y-69206287D01*
X49350500Y-68993713D01*
X49317246Y-68783757D01*
X49251557Y-68581588D01*
X49155051Y-68392184D01*
X49155049Y-68392181D01*
X49155048Y-68392179D01*
X49030109Y-68220213D01*
X48879786Y-68069890D01*
X48707817Y-67944949D01*
X48698504Y-67940204D01*
X48647707Y-67892230D01*
X48630912Y-67824409D01*
X48653449Y-67758274D01*
X48698507Y-67719232D01*
X48707558Y-67714620D01*
X48879459Y-67589727D01*
X48879464Y-67589723D01*
X49029723Y-67439464D01*
X49029727Y-67439459D01*
X49154620Y-67267557D01*
X49251095Y-67078217D01*
X49316757Y-66876129D01*
X49316757Y-66876126D01*
X49327231Y-66810000D01*
X48279146Y-66810000D01*
X48317630Y-66743343D01*
X48350000Y-66622535D01*
X48350000Y-66497465D01*
X48317630Y-66376657D01*
X48279146Y-66310000D01*
X49327231Y-66310000D01*
X49316757Y-66243873D01*
X49316757Y-66243870D01*
X49251095Y-66041782D01*
X49154620Y-65852442D01*
X49029727Y-65680540D01*
X49029723Y-65680535D01*
X48879464Y-65530276D01*
X48879459Y-65530272D01*
X48707555Y-65405377D01*
X48698500Y-65400763D01*
X48647706Y-65352788D01*
X48630912Y-65284966D01*
X48653451Y-65218832D01*
X48698508Y-65179793D01*
X48707816Y-65175051D01*
X48787007Y-65117515D01*
X48879786Y-65050109D01*
X48879788Y-65050106D01*
X48879792Y-65050104D01*
X49030104Y-64899792D01*
X49030106Y-64899788D01*
X49030109Y-64899786D01*
X49155048Y-64727820D01*
X49155047Y-64727820D01*
X49155051Y-64727816D01*
X49251557Y-64538412D01*
X49317246Y-64336243D01*
X49350500Y-64126287D01*
X49350500Y-63913713D01*
X49317246Y-63703757D01*
X49251557Y-63501588D01*
X49155051Y-63312184D01*
X49155049Y-63312181D01*
X49155048Y-63312179D01*
X49030109Y-63140213D01*
X48879786Y-62989890D01*
X48707817Y-62864949D01*
X48698504Y-62860204D01*
X48647707Y-62812230D01*
X48630912Y-62744409D01*
X48653449Y-62678274D01*
X48698507Y-62639232D01*
X48707558Y-62634620D01*
X48879459Y-62509727D01*
X48879464Y-62509723D01*
X49029723Y-62359464D01*
X49029727Y-62359459D01*
X49154620Y-62187557D01*
X49251095Y-61998217D01*
X49316757Y-61796129D01*
X49316757Y-61796126D01*
X49324063Y-61750000D01*
X58894785Y-61750000D01*
X58913602Y-61953082D01*
X58969417Y-62149247D01*
X58969422Y-62149260D01*
X59060327Y-62331821D01*
X59183237Y-62494581D01*
X59333958Y-62631980D01*
X59333960Y-62631982D01*
X59394554Y-62669500D01*
X59507363Y-62739348D01*
X59697544Y-62813024D01*
X59898024Y-62850500D01*
X59898026Y-62850500D01*
X60101974Y-62850500D01*
X60101976Y-62850500D01*
X60302456Y-62813024D01*
X60492637Y-62739348D01*
X60666041Y-62631981D01*
X60758017Y-62548133D01*
X60820818Y-62517518D01*
X60890205Y-62525715D01*
X60944146Y-62570125D01*
X60951673Y-62584698D01*
X60951953Y-62584546D01*
X60956206Y-62592335D01*
X61042452Y-62707544D01*
X61042455Y-62707547D01*
X61157664Y-62793793D01*
X61157671Y-62793797D01*
X61292517Y-62844091D01*
X61292516Y-62844091D01*
X61299444Y-62844835D01*
X61352127Y-62850500D01*
X62647872Y-62850499D01*
X62707483Y-62844091D01*
X62842331Y-62793796D01*
X62957546Y-62707546D01*
X63043796Y-62592331D01*
X63094091Y-62457483D01*
X63100500Y-62397873D01*
X63100499Y-61102128D01*
X63094091Y-61042517D01*
X63092171Y-61037370D01*
X63043797Y-60907671D01*
X63043793Y-60907664D01*
X62957547Y-60792455D01*
X62957544Y-60792452D01*
X62842335Y-60706206D01*
X62842328Y-60706202D01*
X62707482Y-60655908D01*
X62707483Y-60655908D01*
X62647883Y-60649501D01*
X62647881Y-60649500D01*
X62647873Y-60649500D01*
X62647864Y-60649500D01*
X61352129Y-60649500D01*
X61352123Y-60649501D01*
X61292516Y-60655908D01*
X61157671Y-60706202D01*
X61157664Y-60706206D01*
X61042455Y-60792452D01*
X61042452Y-60792455D01*
X60956206Y-60907664D01*
X60951953Y-60915454D01*
X60949741Y-60914246D01*
X60915840Y-60959511D01*
X60850370Y-60983913D01*
X60782101Y-60969045D01*
X60758015Y-60951864D01*
X60666041Y-60868019D01*
X60666039Y-60868017D01*
X60492642Y-60760655D01*
X60492635Y-60760651D01*
X60386005Y-60719343D01*
X60302456Y-60686976D01*
X60101976Y-60649500D01*
X59898024Y-60649500D01*
X59697544Y-60686976D01*
X59697541Y-60686976D01*
X59697541Y-60686977D01*
X59507364Y-60760651D01*
X59507357Y-60760655D01*
X59333960Y-60868017D01*
X59333958Y-60868019D01*
X59183237Y-61005418D01*
X59060327Y-61168178D01*
X58969422Y-61350739D01*
X58969417Y-61350752D01*
X58913602Y-61546917D01*
X58894785Y-61749999D01*
X58894785Y-61750000D01*
X49324063Y-61750000D01*
X49327231Y-61730000D01*
X48279146Y-61730000D01*
X48317630Y-61663343D01*
X48350000Y-61542535D01*
X48350000Y-61417465D01*
X48317630Y-61296657D01*
X48279146Y-61230000D01*
X49327231Y-61230000D01*
X49316757Y-61163873D01*
X49316757Y-61163870D01*
X49251095Y-60961782D01*
X49154620Y-60772442D01*
X49029727Y-60600540D01*
X49029723Y-60600535D01*
X48879464Y-60450276D01*
X48879459Y-60450272D01*
X48707555Y-60325377D01*
X48698500Y-60320763D01*
X48647706Y-60272788D01*
X48630912Y-60204966D01*
X48653451Y-60138832D01*
X48698508Y-60099793D01*
X48707816Y-60095051D01*
X48787007Y-60037515D01*
X48879786Y-59970109D01*
X48879788Y-59970106D01*
X48879792Y-59970104D01*
X49030104Y-59819792D01*
X49030106Y-59819788D01*
X49030109Y-59819786D01*
X49155048Y-59647820D01*
X49155047Y-59647820D01*
X49155051Y-59647816D01*
X49251557Y-59458412D01*
X49317246Y-59256243D01*
X49350500Y-59046287D01*
X49350500Y-58833713D01*
X49317246Y-58623757D01*
X49251557Y-58421588D01*
X49155051Y-58232184D01*
X49155049Y-58232181D01*
X49155048Y-58232179D01*
X49030109Y-58060213D01*
X48879786Y-57909890D01*
X48707820Y-57784951D01*
X48518414Y-57688444D01*
X48518413Y-57688443D01*
X48518412Y-57688443D01*
X48316243Y-57622754D01*
X48316241Y-57622753D01*
X48316240Y-57622753D01*
X48154957Y-57597208D01*
X48106287Y-57589500D01*
X47643713Y-57589500D01*
X47595042Y-57597208D01*
X47433760Y-57622753D01*
X47231585Y-57688444D01*
X47042179Y-57784951D01*
X46870213Y-57909890D01*
X46870209Y-57909894D01*
X46719896Y-58060208D01*
X46719890Y-58060213D01*
X46594951Y-58232179D01*
X46498444Y-58421585D01*
X46432753Y-58623760D01*
X46413186Y-58747302D01*
X46399500Y-58833713D01*
X46399500Y-59046287D01*
X46409534Y-59109644D01*
X46432753Y-59256239D01*
X46498444Y-59458414D01*
X46594951Y-59647820D01*
X46719890Y-59819786D01*
X46870213Y-59970109D01*
X47042179Y-60095048D01*
X47042181Y-60095049D01*
X47042184Y-60095051D01*
X47051493Y-60099794D01*
X47102290Y-60147766D01*
X47119087Y-60215587D01*
X47096552Y-60281722D01*
X47051502Y-60320762D01*
X47042443Y-60325378D01*
X46870540Y-60450272D01*
X46870535Y-60450276D01*
X46720276Y-60600535D01*
X46720272Y-60600540D01*
X46595379Y-60772442D01*
X46498904Y-60961782D01*
X46433242Y-61163870D01*
X46433242Y-61163873D01*
X46422769Y-61230000D01*
X47470854Y-61230000D01*
X47432370Y-61296657D01*
X47400000Y-61417465D01*
X47400000Y-61542535D01*
X47432370Y-61663343D01*
X47470854Y-61730000D01*
X46422769Y-61730000D01*
X46433242Y-61796126D01*
X46433242Y-61796129D01*
X46498904Y-61998217D01*
X46595379Y-62187557D01*
X46720272Y-62359459D01*
X46720276Y-62359464D01*
X46870535Y-62509723D01*
X46870540Y-62509727D01*
X47042444Y-62634622D01*
X47051495Y-62639234D01*
X47102292Y-62687208D01*
X47119087Y-62755029D01*
X47096550Y-62821164D01*
X47051499Y-62860202D01*
X47042182Y-62864949D01*
X46870213Y-62989890D01*
X46719890Y-63140213D01*
X46594951Y-63312179D01*
X46498444Y-63501585D01*
X46432753Y-63703760D01*
X46422028Y-63771477D01*
X46399500Y-63913713D01*
X46399500Y-64126287D01*
X46432754Y-64336243D01*
X46465643Y-64437465D01*
X46498444Y-64538414D01*
X46594951Y-64727820D01*
X46719890Y-64899786D01*
X46870213Y-65050109D01*
X47042179Y-65175048D01*
X47042181Y-65175049D01*
X47042184Y-65175051D01*
X47051493Y-65179794D01*
X47102290Y-65227766D01*
X47119087Y-65295587D01*
X47096552Y-65361722D01*
X47051502Y-65400762D01*
X47042443Y-65405378D01*
X46870540Y-65530272D01*
X46870535Y-65530276D01*
X46720276Y-65680535D01*
X46720272Y-65680540D01*
X46595379Y-65852442D01*
X46498904Y-66041782D01*
X46433242Y-66243870D01*
X46433242Y-66243873D01*
X46422769Y-66310000D01*
X47470854Y-66310000D01*
X47432370Y-66376657D01*
X47400000Y-66497465D01*
X47400000Y-66622535D01*
X47432370Y-66743343D01*
X47470854Y-66810000D01*
X46422769Y-66810000D01*
X46433242Y-66876126D01*
X46433242Y-66876129D01*
X46498904Y-67078217D01*
X46595379Y-67267557D01*
X46720272Y-67439459D01*
X46720276Y-67439464D01*
X46870535Y-67589723D01*
X46870540Y-67589727D01*
X47042444Y-67714622D01*
X47051495Y-67719234D01*
X47102292Y-67767208D01*
X47119087Y-67835029D01*
X47096550Y-67901164D01*
X47051499Y-67940202D01*
X47042182Y-67944949D01*
X46870213Y-68069890D01*
X46719890Y-68220213D01*
X46594951Y-68392179D01*
X46498444Y-68581585D01*
X46432753Y-68783760D01*
X46409892Y-68928101D01*
X46399500Y-68993713D01*
X46399500Y-69206287D01*
X46409534Y-69269644D01*
X46432753Y-69416239D01*
X46498444Y-69618414D01*
X46594951Y-69807820D01*
X46719890Y-69979786D01*
X46870213Y-70130109D01*
X47042179Y-70255048D01*
X47042181Y-70255049D01*
X47042184Y-70255051D01*
X47051493Y-70259794D01*
X47102290Y-70307766D01*
X47119087Y-70375587D01*
X47096552Y-70441722D01*
X47051502Y-70480762D01*
X47042443Y-70485378D01*
X46870540Y-70610272D01*
X46870535Y-70610276D01*
X46720276Y-70760535D01*
X46720272Y-70760540D01*
X46595379Y-70932442D01*
X46498904Y-71121782D01*
X46433242Y-71323870D01*
X46433242Y-71323873D01*
X46422769Y-71390000D01*
X47470854Y-71390000D01*
X47432370Y-71456657D01*
X47400000Y-71577465D01*
X47400000Y-71702535D01*
X47432370Y-71823343D01*
X47470854Y-71890000D01*
X46422769Y-71890000D01*
X46433242Y-71956126D01*
X46433242Y-71956129D01*
X46498904Y-72158217D01*
X46595379Y-72347557D01*
X46720272Y-72519459D01*
X46720276Y-72519464D01*
X46870535Y-72669723D01*
X46870540Y-72669727D01*
X47042444Y-72794622D01*
X47051495Y-72799234D01*
X47102292Y-72847208D01*
X47119087Y-72915029D01*
X47096550Y-72981164D01*
X47051499Y-73020202D01*
X47042182Y-73024949D01*
X46870213Y-73149890D01*
X46719890Y-73300213D01*
X46594951Y-73472179D01*
X46498444Y-73661585D01*
X46432753Y-73863760D01*
X46399500Y-74073713D01*
X46399500Y-74286286D01*
X46432753Y-74496239D01*
X46498444Y-74698414D01*
X46594951Y-74887820D01*
X46719890Y-75059786D01*
X46870213Y-75210109D01*
X47042179Y-75335048D01*
X47042181Y-75335049D01*
X47042184Y-75335051D01*
X47105946Y-75367539D01*
X47156742Y-75415513D01*
X47173537Y-75483334D01*
X47151000Y-75549469D01*
X47105948Y-75588508D01*
X47061477Y-75611167D01*
X46884482Y-75739761D01*
X46884477Y-75739765D01*
X46729765Y-75894477D01*
X46729761Y-75894482D01*
X46601168Y-76071477D01*
X46501835Y-76266427D01*
X46434227Y-76474503D01*
X46434227Y-76474506D01*
X46422270Y-76550000D01*
X47470854Y-76550000D01*
X47432370Y-76616657D01*
X47400000Y-76737465D01*
X47400000Y-76862535D01*
X47432370Y-76983343D01*
X47470854Y-77050000D01*
X46422270Y-77050000D01*
X46434227Y-77125493D01*
X46434227Y-77125496D01*
X46501835Y-77333572D01*
X46601168Y-77528522D01*
X46729761Y-77705517D01*
X46729765Y-77705522D01*
X46884481Y-77860238D01*
X47014178Y-77954467D01*
X47056844Y-78009796D01*
X47062823Y-78079410D01*
X47030218Y-78141205D01*
X47014179Y-78155102D01*
X46877185Y-78254636D01*
X46877176Y-78254643D01*
X46724643Y-78407176D01*
X46724643Y-78407177D01*
X46724641Y-78407179D01*
X46672782Y-78478556D01*
X46597843Y-78581700D01*
X46499909Y-78773908D01*
X46433245Y-78979077D01*
X46399500Y-79192133D01*
X46399500Y-79407866D01*
X43700500Y-79407866D01*
X43700500Y-50400000D01*
X44394422Y-50400000D01*
X44414722Y-50787339D01*
X44475397Y-51170427D01*
X44475397Y-51170429D01*
X44575788Y-51545094D01*
X44714787Y-51907197D01*
X44890877Y-52252793D01*
X45102122Y-52578082D01*
X45102124Y-52578084D01*
X45346219Y-52879516D01*
X45620484Y-53153781D01*
X45620488Y-53153784D01*
X45921917Y-53397877D01*
X46247206Y-53609122D01*
X46247211Y-53609125D01*
X46592806Y-53785214D01*
X46954913Y-53924214D01*
X47329567Y-54024602D01*
X47712662Y-54085278D01*
X48078576Y-54104455D01*
X48099999Y-54105578D01*
X48100000Y-54105578D01*
X48100001Y-54105578D01*
X48120301Y-54104514D01*
X48487338Y-54085278D01*
X48870433Y-54024602D01*
X49245087Y-53924214D01*
X49607194Y-53785214D01*
X49952789Y-53609125D01*
X50278084Y-53397876D01*
X50579516Y-53153781D01*
X50853781Y-52879516D01*
X51097876Y-52578084D01*
X51309125Y-52252789D01*
X51485214Y-51907194D01*
X51624214Y-51545087D01*
X51724602Y-51170433D01*
X51775353Y-50850000D01*
X58794785Y-50850000D01*
X58813602Y-51053082D01*
X58869417Y-51249247D01*
X58869422Y-51249260D01*
X58960327Y-51431821D01*
X59083237Y-51594581D01*
X59233958Y-51731980D01*
X59233960Y-51731982D01*
X59233962Y-51731983D01*
X59407363Y-51839348D01*
X59597544Y-51913024D01*
X59798024Y-51950500D01*
X59798026Y-51950500D01*
X60001974Y-51950500D01*
X60001976Y-51950500D01*
X60202456Y-51913024D01*
X60392637Y-51839348D01*
X60566041Y-51731981D01*
X60658017Y-51648133D01*
X60720818Y-51617518D01*
X60790205Y-51625715D01*
X60844146Y-51670125D01*
X60851673Y-51684698D01*
X60851953Y-51684546D01*
X60856206Y-51692335D01*
X60942452Y-51807544D01*
X60942455Y-51807547D01*
X61057664Y-51893793D01*
X61057671Y-51893797D01*
X61192517Y-51944091D01*
X61192516Y-51944091D01*
X61199444Y-51944835D01*
X61252127Y-51950500D01*
X62547872Y-51950499D01*
X62607483Y-51944091D01*
X62742331Y-51893796D01*
X62857546Y-51807546D01*
X62943796Y-51692331D01*
X62994091Y-51557483D01*
X63000500Y-51497873D01*
X63000499Y-50202128D01*
X62994091Y-50142517D01*
X62945658Y-50012662D01*
X62943797Y-50007671D01*
X62943793Y-50007664D01*
X62857547Y-49892455D01*
X62857544Y-49892452D01*
X62742335Y-49806206D01*
X62742328Y-49806202D01*
X62607482Y-49755908D01*
X62607483Y-49755908D01*
X62547883Y-49749501D01*
X62547881Y-49749500D01*
X62547873Y-49749500D01*
X62547864Y-49749500D01*
X61252129Y-49749500D01*
X61252123Y-49749501D01*
X61192516Y-49755908D01*
X61057671Y-49806202D01*
X61057664Y-49806206D01*
X60942455Y-49892452D01*
X60942452Y-49892455D01*
X60856206Y-50007664D01*
X60851953Y-50015454D01*
X60849741Y-50014246D01*
X60815840Y-50059511D01*
X60750370Y-50083913D01*
X60682101Y-50069045D01*
X60658015Y-50051864D01*
X60566041Y-49968019D01*
X60566039Y-49968017D01*
X60392642Y-49860655D01*
X60392635Y-49860651D01*
X60297546Y-49823814D01*
X60202456Y-49786976D01*
X60001976Y-49749500D01*
X59798024Y-49749500D01*
X59597544Y-49786976D01*
X59597541Y-49786976D01*
X59597541Y-49786977D01*
X59407364Y-49860651D01*
X59407357Y-49860655D01*
X59233960Y-49968017D01*
X59233958Y-49968019D01*
X59083237Y-50105418D01*
X58960327Y-50268178D01*
X58869422Y-50450739D01*
X58869417Y-50450752D01*
X58813602Y-50646917D01*
X58794785Y-50849999D01*
X58794785Y-50850000D01*
X51775353Y-50850000D01*
X51785278Y-50787338D01*
X51805578Y-50400000D01*
X51785278Y-50012662D01*
X51724602Y-49629567D01*
X51624214Y-49254913D01*
X51485214Y-48892806D01*
X51309125Y-48547211D01*
X51097876Y-48221916D01*
X50853781Y-47920484D01*
X50579516Y-47646219D01*
X50369427Y-47476092D01*
X50278082Y-47402122D01*
X49952793Y-47190877D01*
X49607197Y-47014787D01*
X49245094Y-46875788D01*
X49245087Y-46875786D01*
X48870433Y-46775398D01*
X48870429Y-46775397D01*
X48870428Y-46775397D01*
X48487339Y-46714722D01*
X48100001Y-46694422D01*
X48099999Y-46694422D01*
X47712660Y-46714722D01*
X47329572Y-46775397D01*
X47329570Y-46775397D01*
X46954905Y-46875788D01*
X46592802Y-47014787D01*
X46247206Y-47190877D01*
X45921917Y-47402122D01*
X45620488Y-47646215D01*
X45620480Y-47646222D01*
X45346222Y-47920480D01*
X45346215Y-47920488D01*
X45102122Y-48221917D01*
X44890877Y-48547206D01*
X44714787Y-48892802D01*
X44575788Y-49254905D01*
X44475397Y-49629570D01*
X44475397Y-49629572D01*
X44414722Y-50012660D01*
X44394422Y-50399999D01*
X44394422Y-50400000D01*
X43700500Y-50400000D01*
X43700500Y-45424500D01*
X43720185Y-45357461D01*
X43772989Y-45311706D01*
X43824500Y-45300500D01*
X107575500Y-45300500D01*
X107642539Y-45320185D01*
G37*
%TD.AperFunction*%
%TD*%
M02*
